<svg width="405" height="64" viewBox="0 0 405 64" fill="none" xmlns="http://www.w3.org/2000/svg">
<rect width="405" height="63.0978" rx="31.5489" fill="white"/>
<path d="M372.617 40.6371L367.688 35.7078C368.849 34.1691 369.546 32.2624 369.546 30.191C369.546 25.1236 365.422 21.001 360.356 21.001C355.288 21.002 351.166 25.1247 351.166 30.192C351.166 35.2584 355.288 39.382 360.356 39.382C362.426 39.382 364.334 38.6855 365.872 37.5246L370.802 42.4539C371.052 42.7043 371.381 42.8295 371.709 42.8295C372.037 42.8295 372.366 42.7043 372.617 42.4529C373.118 41.9521 373.118 41.1389 372.617 40.6371ZM353.733 30.192C353.733 26.5402 356.704 23.57 360.356 23.57C364.006 23.57 366.977 26.5402 366.977 30.191C366.977 33.8417 364.006 36.812 360.356 36.812C356.704 36.813 353.733 33.8428 353.733 30.192Z" fill="#0249FF"/>
</svg>
