<svg width="28" height="28" viewBox="0 0 28 28" fill="none" xmlns="http://www.w3.org/2000/svg">
<path d="M23.2003 7.37933H3.75V20.069H23.2003V7.37933Z" fill="#B31942"/>
<path d="M3.75 8.84351H23.2003ZM23.2003 10.7958H3.75ZM3.75 12.748H23.2003ZM23.2003 14.7003H3.75ZM3.75 16.6525H23.2003ZM23.2003 18.6048H3.75Z" fill="#000008"/>
<path d="M3.75 8.84351H23.2003M23.2003 10.7958H3.75M3.75 12.748H23.2003M23.2003 14.7003H3.75M3.75 16.6525H23.2003M23.2003 18.6048H3.75" stroke="white" stroke-width="0.649039"/>
<path d="M13.5825 7.37933H3.75V14.2122H13.5825V7.37933Z" fill="#0A3161"/>
<path d="M4.56951 7.67218L4.8035 8.37851L4.19092 7.94198H4.94811L4.33553 8.37851L4.56951 7.67218Z" fill="white"/>
<path d="M4.56951 9.03888L4.8035 9.74521L4.19092 9.30867H4.94811L4.33553 9.74521L4.56951 9.03888Z" fill="white"/>
<path d="M4.56951 10.4052L4.8035 11.1115L4.19092 10.675H4.94811L4.33553 11.1115L4.56951 10.4052Z" fill="white"/>
<path d="M4.56951 11.7719L4.8035 12.4782L4.19092 12.0417H4.94811L4.33553 12.4782L4.56951 11.7719Z" fill="white"/>
<path d="M4.56951 13.1385L4.8035 13.8448L4.19092 13.4083H4.94811L4.33553 13.8448L4.56951 13.1385Z" fill="white"/>
<path d="M5.38934 8.35535L5.62332 9.06168L5.01074 8.62514H5.76793L5.15535 9.06168L5.38934 8.35535Z" fill="white"/>
<path d="M5.38934 9.72205L5.62332 10.4284L5.01074 9.99184H5.76793L5.15535 10.4284L5.38934 9.72205Z" fill="white"/>
<path d="M5.38934 11.0887L5.62332 11.7951L5.01074 11.3585H5.76793L5.15535 11.7951L5.38934 11.0887Z" fill="white"/>
<path d="M5.38934 12.4551L5.62332 13.1614L5.01074 12.7249H5.76793L5.15535 13.1614L5.38934 12.4551Z" fill="white"/>
<path d="M6.20818 7.67218L6.44217 8.37851L5.82959 7.94198H6.58678L5.9742 8.37851L6.20818 7.67218Z" fill="white"/>
<path d="M6.20818 9.03894L6.44217 9.74527L5.82959 9.30874H6.58678L5.9742 9.74527L6.20818 9.03894Z" fill="white"/>
<path d="M6.20818 10.4053L6.44217 11.1116L5.82959 10.6751H6.58678L5.9742 11.1116L6.20818 10.4053Z" fill="white"/>
<path d="M6.20818 11.7719L6.44217 12.4782L5.82959 12.0417H6.58678L5.9742 12.4782L6.20818 11.7719Z" fill="white"/>
<path d="M6.20818 13.1387L6.44217 13.845L5.82959 13.4085H6.58678L5.9742 13.845L6.20818 13.1387Z" fill="white"/>
<path d="M7.02801 8.35565L7.26199 9.06198L6.64941 8.62545H7.4066L6.79402 9.06198L7.02801 8.35565Z" fill="white"/>
<path d="M7.02801 9.72241L7.26199 10.4287L6.64941 9.99221H7.4066L6.79402 10.4287L7.02801 9.72241Z" fill="white"/>
<path d="M7.02801 11.0889L7.26199 11.7953L6.64941 11.3587H7.4066L6.79402 11.7953L7.02801 11.0889Z" fill="white"/>
<path d="M7.02801 12.4554L7.26199 13.1618L6.64941 12.7252H7.4066L6.79402 13.1618L7.02801 12.4554Z" fill="white"/>
<path d="M7.84686 7.67218L8.08084 8.37851L7.46826 7.94198H8.22545L7.61287 8.37851L7.84686 7.67218Z" fill="white"/>
<path d="M7.84686 9.03888L8.08084 9.74521L7.46826 9.30867H8.22545L7.61287 9.74521L7.84686 9.03888Z" fill="white"/>
<path d="M7.84686 10.4052L8.08084 11.1115L7.46826 10.675H8.22545L7.61287 11.1115L7.84686 10.4052Z" fill="white"/>
<path d="M7.84686 11.7719L8.08084 12.4782L7.46826 12.0417H8.22545L7.61287 12.4782L7.84686 11.7719Z" fill="white"/>
<path d="M7.84686 13.1387L8.08084 13.845L7.46826 13.4085H8.22545L7.61287 13.845L7.84686 13.1387Z" fill="white"/>
<path d="M8.66619 8.35565L8.90018 9.06198L8.2876 8.62545H9.04479L8.43221 9.06198L8.66619 8.35565Z" fill="white"/>
<path d="M8.66619 9.72241L8.90018 10.4287L8.2876 9.99221H9.04479L8.43221 10.4287L8.66619 9.72241Z" fill="white"/>
<path d="M8.66619 11.0889L8.90018 11.7953L8.2876 11.3587H9.04479L8.43221 11.7953L8.66619 11.0889Z" fill="white"/>
<path d="M8.66619 12.4554L8.90018 13.1618L8.2876 12.7252H9.04479L8.43221 13.1618L8.66619 12.4554Z" fill="white"/>
<path d="M9.48553 7.67212L9.71951 8.37845L9.10693 7.94191H9.86412L9.25154 8.37845L9.48553 7.67212Z" fill="white"/>
<path d="M9.48553 9.03888L9.71951 9.74521L9.10693 9.30867H9.86412L9.25154 9.74521L9.48553 9.03888Z" fill="white"/>
<path d="M9.48553 10.4052L9.71951 11.1115L9.10693 10.675H9.86412L9.25154 11.1115L9.48553 10.4052Z" fill="white"/>
<path d="M9.48553 11.772L9.71951 12.4783L9.10693 12.0418H9.86412L9.25154 12.4783L9.48553 11.772Z" fill="white"/>
<path d="M9.48553 13.1387L9.71951 13.845L9.10693 13.4085H9.86412L9.25154 13.845L9.48553 13.1387Z" fill="white"/>
<path d="M10.3049 8.35565L10.5388 9.06198L9.92627 8.62545H10.6835L10.0709 9.06198L10.3049 8.35565Z" fill="white"/>
<path d="M10.3049 9.72241L10.5388 10.4287L9.92627 9.99221H10.6835L10.0709 10.4287L10.3049 9.72241Z" fill="white"/>
<path d="M10.3049 11.0889L10.5388 11.7953L9.92627 11.3587H10.6835L10.0709 11.7953L10.3049 11.0889Z" fill="white"/>
<path d="M10.3049 12.4554L10.5388 13.1618L9.92627 12.7252H10.6835L10.0709 13.1618L10.3049 12.4554Z" fill="white"/>
<path d="M11.1247 7.67218L11.3587 8.37851L10.7461 7.94198H11.5033L10.8907 8.37851L11.1247 7.67218Z" fill="white"/>
<path d="M11.1247 9.03888L11.3587 9.74521L10.7461 9.30867H11.5033L10.8907 9.74521L11.1247 9.03888Z" fill="white"/>
<path d="M11.1247 10.4052L11.3587 11.1115L10.7461 10.675H11.5033L10.8907 11.1115L11.1247 10.4052Z" fill="white"/>
<path d="M11.1247 11.772L11.3587 12.4783L10.7461 12.0418H11.5033L10.8907 12.4783L11.1247 11.772Z" fill="white"/>
<path d="M11.1247 13.1385L11.3587 13.8448L10.7461 13.4083H11.5033L10.8907 13.8448L11.1247 13.1385Z" fill="white"/>
<path d="M11.944 8.35535L12.178 9.06168L11.5654 8.62514H12.3226L11.71 9.06168L11.944 8.35535Z" fill="white"/>
<path d="M11.944 9.72211L12.178 10.4284L11.5654 9.9919H12.3226L11.71 10.4284L11.944 9.72211Z" fill="white"/>
<path d="M11.944 11.0887L12.178 11.7951L11.5654 11.3585H12.3226L11.71 11.7951L11.944 11.0887Z" fill="white"/>
<path d="M11.944 12.4551L12.178 13.1614L11.5654 12.7249H12.3226L11.71 13.1614L11.944 12.4551Z" fill="white"/>
<path d="M12.7634 7.67212L12.9973 8.37845L12.3848 7.94191H13.142L12.5294 8.37845L12.7634 7.67212Z" fill="white"/>
<path d="M12.7634 9.03888L12.9973 9.74521L12.3848 9.30867H13.142L12.5294 9.74521L12.7634 9.03888Z" fill="white"/>
<path d="M12.7634 10.4055L12.9973 11.1118L12.3848 10.6753H13.142L12.5294 11.1118L12.7634 10.4055Z" fill="white"/>
<path d="M12.7634 11.772L12.9973 12.4783L12.3848 12.0418H13.142L12.5294 12.4783L12.7634 11.772Z" fill="white"/>
<path d="M12.7629 13.1387L12.9969 13.845L12.3843 13.4085H13.1415L12.5289 13.845L12.7629 13.1387Z" fill="white"/>
</svg>
