<svg width="907" height="409" viewBox="0 0 907 409" fill="none" xmlns="http://www.w3.org/2000/svg">
<g filter="url(#filter0_d_571_492)">
<rect x="4" y="22" width="427" height="368" rx="40" fill="#F5F5F5"/>
</g>
<g filter="url(#filter1_d_571_492)">
<rect x="473" y="22" width="427" height="368" rx="40" fill="#F5F5F5"/>
</g>
<path d="M519.344 60.1914C519.344 63.1875 520.943 66.1582 524.625 67.377L522.873 69.916C520.423 69.0146 518.734 67.3135 517.77 65.168C516.767 67.5801 514.964 69.4844 512.285 70.4492L510.533 67.9102C514.393 66.6406 516.068 63.4668 516.068 60.166V57.6523H519.344V60.1914ZM530.16 56.2559V73.3184H526.936V63.7715H522.594V61.1562H526.936V56.2559H530.16ZM530.643 76.3398V78.9297H514.773V71.5156H518.049V76.3398H530.643ZM554.23 65.3965V67.9609H545.293V69.4336H551.666V75.3496H538.793V76.7461H552.275V79.1836H535.619V73.0645H548.467V71.8711H535.594V69.4336H542.043V67.9609H533.156V65.3965H554.23ZM551.564 56.8906V64.1777H535.771V56.8906H551.564ZM538.945 59.4043V61.6895H548.34V59.4043H538.945Z" fill="#0249FF"/>
<rect x="81" y="128" width="283" height="48" rx="10" fill="#B8CBFE"/>
<rect x="81" y="277" width="283" height="48" rx="10" fill="#5C9CEC"/>
<path d="M208.484 142.305V144.156C208.484 146.148 208.484 148.305 207.898 151.305H210.922V153.133H202.414V162.016H200.164V153.133H191.773V151.305H205.648C206.281 148.316 206.281 146.113 206.281 144.156V144.133H194.117V142.305H208.484ZM230.586 140.992V161.992H228.453V151.047H225.852V160.961H223.742V141.391H225.852V149.219H228.453V140.992H230.586ZM221.375 143.359V156.461H213.219V143.359H221.375ZM215.328 145.117V154.68H219.289V145.117H215.328ZM240.57 147.18C240.57 150.508 242.75 154.211 245.938 155.711L244.672 157.445C242.316 156.309 240.453 153.941 239.516 151.188C238.543 154.199 236.574 156.789 234.172 157.984L232.859 156.227C236.047 154.703 238.367 150.742 238.367 147.18V144.953H233.633V143.102H245.141V144.953H240.57V147.18ZM249.617 140.992V149.312H252.992V151.188H249.617V161.992H247.391V140.992H249.617Z" fill="white"/>
<path d="M203.703 291.891V293.695H201.711V300.281C202.707 300.199 203.68 300.105 204.617 300L204.758 301.664C200.516 302.344 195.641 302.438 192.031 302.438L191.773 300.609L194.352 300.586V293.695H192.359V291.891H203.703ZM208.273 290.016V296.227H211.32V298.102H208.273V305.461H206.047V290.016H208.273ZM209.164 308.742V310.547H194.961V303.984H197.188V308.742H209.164ZM196.508 300.516C197.504 300.504 198.512 300.469 199.531 300.398V293.695H196.508V300.516ZM230.586 289.992V310.992H228.453V300.047H225.852V309.961H223.742V290.391H225.852V298.219H228.453V289.992H230.586ZM221.375 292.359V305.461H213.219V292.359H221.375ZM215.328 294.117V303.68H219.289V294.117H215.328ZM240.57 296.18C240.57 299.508 242.75 303.211 245.938 304.711L244.672 306.445C242.316 305.309 240.453 302.941 239.516 300.188C238.543 303.199 236.574 305.789 234.172 306.984L232.859 305.227C236.047 303.703 238.367 299.742 238.367 296.18V293.953H233.633V292.102H245.141V293.953H240.57V296.18ZM249.617 289.992V298.312H252.992V300.188H249.617V310.992H247.391V289.992H249.617Z" fill="white"/>
<path d="M229.5 199.181L229.138 198.089L229.5 197L229.862 198.089L229.5 199.181ZM230.012 245.457C230.012 245.867 229.958 246.259 229.862 246.548C229.766 246.837 229.636 247 229.5 247C229.364 247 229.234 246.837 229.138 246.548C229.042 246.259 228.989 245.867 228.989 245.457H230.012ZM224.5 212L229.138 198.089L229.862 200.273L226 212H224.5ZM229.862 198.089L234.5 212H233L229.138 200.273L229.862 198.089ZM230.012 199.181V245.457H228.989V199.181H230.012Z" fill="black"/>
<path d="M215 244.819L214.638 245.911L215 247L215.362 245.911L215 244.819ZM215.512 198.543C215.512 198.133 215.458 197.741 215.362 197.452C215.266 197.163 215.136 197 215 197C214.864 197 214.734 197.163 214.638 197.452C214.542 197.741 214.489 198.133 214.489 198.543H215.512ZM210 232L214.638 245.911L215.362 243.727L211.5 232H210ZM215.362 245.911L220 232H218.5L214.638 243.727L215.362 245.911ZM215.512 244.819V198.543H214.489V244.819H215.512Z" fill="black"/>
<path d="M260.398 216.496V226.996H259.332V221.57H257.973V226.457H256.953V216.707H257.973V220.656H259.332V216.496H260.398ZM255.676 217.762V218.664H252.852V223.527C254.141 223.516 255.113 223.457 256.238 223.246L256.32 224.16C255.055 224.418 253.977 224.465 252.441 224.477H251.738V217.762H255.676ZM265.379 218.172C265.379 219.555 266.34 220.832 267.91 221.348L267.312 222.227C266.164 221.822 265.303 221.002 264.852 219.965C264.389 221.143 263.498 222.062 262.273 222.52L261.676 221.629C263.316 221.043 264.266 219.648 264.277 218.078V217.047H265.379V218.172ZM270.008 216.496V219.133H271.531V220.07H270.008V222.836H268.895V216.496H270.008ZM266.621 223.082C268.777 223.082 270.102 223.797 270.102 225.027C270.102 226.27 268.777 226.984 266.621 226.973C264.441 226.984 263.094 226.27 263.094 225.027C263.094 223.797 264.441 223.082 266.621 223.082ZM266.621 223.961C265.098 223.961 264.195 224.359 264.207 225.027C264.195 225.719 265.098 226.094 266.621 226.105C268.133 226.094 269.012 225.719 269.012 225.027C269.012 224.359 268.133 223.961 266.621 223.961ZM284.633 220.844V221.734H280.391V222.648H283.426V225.109H277.309V226.035H283.719V226.891H276.219V224.301H282.324V223.504H276.207V222.648H279.277V221.734H275.059V220.844H284.633ZM283.402 216.836V220.07H276.289V216.836H283.402ZM277.379 217.715V219.191H282.289V217.715H277.379ZM294.184 216.508V224.242H293.07V220.598H290.891V219.672H293.07V216.508H294.184ZM290.961 217.293C290.949 220.035 289.062 222.098 286.051 223.07L285.582 222.18C287.92 221.424 289.508 219.994 289.742 218.219H286.121V217.293H290.961ZM294.453 225.871V226.773H287.422V223.445H288.547V225.871H294.453ZM307.086 217.152V218.078C307.086 219.074 307.086 220.152 306.793 221.652H308.305V222.566H304.051V227.008H302.926V222.566H298.73V221.652H305.668C305.984 220.158 305.984 219.057 305.984 218.078V218.066H299.902V217.152H307.086ZM317.809 216.496V222.133H316.695V216.496H317.809ZM312.031 222.637V223.82H316.707V222.637H317.809V226.867H310.941V222.637H312.031ZM312.031 225.953H316.707V224.699H312.031V225.953ZM312.113 216.977C313.719 216.977 314.902 217.973 314.902 219.414C314.902 220.855 313.719 221.852 312.113 221.84C310.508 221.852 309.312 220.855 309.312 219.414C309.312 217.973 310.508 216.977 312.113 216.977ZM312.113 217.914C311.117 217.902 310.402 218.523 310.402 219.414C310.402 220.316 311.117 220.926 312.113 220.926C313.098 220.926 313.812 220.316 313.812 219.414C313.812 218.523 313.098 217.902 312.113 217.914Z" fill="black"/>
<rect x="545" y="128" width="283" height="48" rx="10" fill="#B8CBFE"/>
<rect x="545" y="277" width="283" height="48" rx="10" fill="#5C9CEC"/>
<path d="M672.484 142.305V144.156C672.484 146.148 672.484 148.305 671.898 151.305H674.922V153.133H666.414V162.016H664.164V153.133H655.773V151.305H669.648C670.281 148.316 670.281 146.113 670.281 144.156V144.133H658.117V142.305H672.484ZM694.586 140.992V161.992H692.453V151.047H689.852V160.961H687.742V141.391H689.852V149.219H692.453V140.992H694.586ZM685.375 143.359V156.461H677.219V143.359H685.375ZM679.328 145.117V154.68H683.289V145.117H679.328ZM704.57 147.18C704.57 150.508 706.75 154.211 709.938 155.711L708.672 157.445C706.316 156.309 704.453 153.941 703.516 151.188C702.543 154.199 700.574 156.789 698.172 157.984L696.859 156.227C700.047 154.703 702.367 150.742 702.367 147.18V144.953H697.633V143.102H709.141V144.953H704.57V147.18ZM713.617 140.992V149.312H716.992V151.188H713.617V161.992H711.391V140.992H713.617Z" fill="white"/>
<path d="M667.703 291.891V293.695H665.711V300.281C666.707 300.199 667.68 300.105 668.617 300L668.758 301.664C664.516 302.344 659.641 302.438 656.031 302.438L655.773 300.609L658.352 300.586V293.695H656.359V291.891H667.703ZM672.273 290.016V296.227H675.32V298.102H672.273V305.461H670.047V290.016H672.273ZM673.164 308.742V310.547H658.961V303.984H661.188V308.742H673.164ZM660.508 300.516C661.504 300.504 662.512 300.469 663.531 300.398V293.695H660.508V300.516ZM694.586 289.992V310.992H692.453V300.047H689.852V309.961H687.742V290.391H689.852V298.219H692.453V289.992H694.586ZM685.375 292.359V305.461H677.219V292.359H685.375ZM679.328 294.117V303.68H683.289V294.117H679.328ZM704.57 296.18C704.57 299.508 706.75 303.211 709.938 304.711L708.672 306.445C706.316 305.309 704.453 302.941 703.516 300.188C702.543 303.199 700.574 305.789 698.172 306.984L696.859 305.227C700.047 303.703 702.367 299.742 702.367 296.18V293.953H697.633V292.102H709.141V293.953H704.57V296.18ZM713.617 289.992V298.312H716.992V300.188H713.617V310.992H711.391V289.992H713.617Z" fill="white"/>
<path d="M693.5 199.181L693.138 198.089L693.5 197L693.862 198.089L693.5 199.181ZM694.012 245.457C694.012 245.867 693.958 246.259 693.862 246.548C693.766 246.837 693.636 247 693.5 247C693.364 247 693.234 246.837 693.138 246.548C693.042 246.259 692.989 245.867 692.989 245.457H694.012ZM688.5 212L693.138 198.089L693.862 200.273L690 212H688.5ZM693.862 198.089L698.5 212H697L693.138 200.273L693.862 198.089ZM694.012 199.181V245.457H692.989V199.181H694.012Z" fill="black"/>
<path d="M679 244.819L678.638 245.911L679 247L679.362 245.911L679 244.819ZM679.512 198.543C679.512 198.133 679.458 197.741 679.362 197.452C679.266 197.163 679.136 197 679 197C678.864 197 678.734 197.163 678.638 197.452C678.542 197.741 678.489 198.133 678.489 198.543H679.512ZM674 232L678.638 245.911L679.362 243.727L675.5 232H674ZM679.362 245.911L684 232H682.5L678.638 243.727L679.362 245.911ZM679.512 244.819V198.543H678.489V244.819H679.512Z" fill="black"/>
<path d="M600.048 216.465C600.048 218.721 598.69 220.098 596.864 220.098C595.019 220.098 593.671 218.721 593.671 216.465C593.671 214.199 595.019 212.832 596.864 212.832C598.69 212.832 600.048 214.199 600.048 216.465ZM598.983 216.465C598.983 214.746 598.075 213.818 596.864 213.818C595.644 213.818 594.735 214.746 594.735 216.465C594.735 218.184 595.644 219.111 596.864 219.111C598.075 219.111 598.983 218.184 598.983 216.465ZM607.401 216.465C607.401 218.721 606.044 220.098 604.218 220.098C602.372 220.098 601.024 218.721 601.024 216.465C601.024 214.199 602.372 212.832 604.218 212.832C606.044 212.832 607.401 214.199 607.401 216.465ZM606.337 216.465C606.337 214.746 605.429 213.818 604.218 213.818C602.997 213.818 602.089 214.746 602.089 216.465C602.089 218.184 602.997 219.111 604.218 219.111C605.429 219.111 606.337 218.184 606.337 216.465ZM611.425 214.307C611.415 215.908 612.382 217.51 613.739 218.115L613.183 218.848C612.177 218.369 611.381 217.388 610.976 216.191C610.565 217.471 609.76 218.53 608.71 219.043L608.144 218.262C609.521 217.646 610.487 215.977 610.487 214.307V212.812H611.425V214.307ZM615.458 212.08V220.85H614.53V212.08H615.458ZM624.149 212.08V217.178H623.222V214.98H621.581V214.209H623.222V212.08H624.149ZM624.149 217.588V220.723H618.378V217.588H624.149ZM619.296 218.32V219.971H623.241V218.32H619.296ZM619.989 213.574C619.989 214.668 620.78 215.752 622.099 216.211L621.62 216.943C620.639 216.597 619.911 215.894 619.53 215.029C619.149 215.991 618.383 216.763 617.343 217.129L616.864 216.396C618.212 215.938 619.042 214.775 619.042 213.574V213.369H617.147V212.607H621.864V213.369H619.989V213.574ZM633.026 212.08V220.83H632.138V212.08H633.026ZM631.249 212.246V220.4H630.36V216.182H629.374C629.296 217.891 628.563 218.955 627.479 218.945C626.337 218.955 625.595 217.754 625.595 215.859C625.595 213.965 626.337 212.773 627.479 212.783C628.544 212.773 629.267 213.784 629.374 215.43H630.36V212.246H631.249ZM627.479 213.652C626.845 213.652 626.454 214.463 626.454 215.859C626.454 217.256 626.845 218.066 627.479 218.066C628.124 218.066 628.524 217.256 628.524 215.859C628.524 214.463 628.124 213.652 627.479 213.652ZM577.221 228.465C577.221 230.721 575.863 232.098 574.037 232.098C572.191 232.098 570.844 230.721 570.844 228.465C570.844 226.199 572.191 224.832 574.037 224.832C575.863 224.832 577.221 226.199 577.221 228.465ZM576.156 228.465C576.156 226.746 575.248 225.818 574.037 225.818C572.816 225.818 571.908 226.746 571.908 228.465C571.908 230.184 572.816 231.111 574.037 231.111C575.248 231.111 576.156 230.184 576.156 228.465ZM584.574 228.465C584.574 230.721 583.217 232.098 581.391 232.098C579.545 232.098 578.197 230.721 578.197 228.465C578.197 226.199 579.545 224.832 581.391 224.832C583.217 224.832 584.574 226.199 584.574 228.465ZM583.51 228.465C583.51 226.746 582.602 225.818 581.391 225.818C580.17 225.818 579.262 226.746 579.262 228.465C579.262 230.184 580.17 231.111 581.391 231.111C582.602 231.111 583.51 230.184 583.51 228.465ZM589.369 224.227C591.342 224.227 592.494 224.754 592.494 225.73C592.494 226.707 591.342 227.244 589.369 227.244C587.396 227.244 586.244 226.707 586.244 225.73C586.244 224.754 587.396 224.227 589.369 224.227ZM589.369 224.91C587.973 224.91 587.201 225.213 587.211 225.73C587.201 226.268 587.973 226.551 589.369 226.551C590.766 226.551 591.537 226.268 591.537 225.73C591.537 225.213 590.766 224.91 589.369 224.91ZM593.363 227.781V228.523H585.385V227.781H593.363ZM592.357 229.197V231.248H587.26V232.029H592.602V232.742H586.352V230.574H591.439V229.891H586.342V229.197H592.357ZM603.432 224.627V225.398C603.432 226.229 603.432 227.127 603.188 228.377H604.447V229.139H600.902V232.84H599.965V229.139H596.469V228.377H602.25C602.514 227.132 602.514 226.214 602.514 225.398V225.389H597.445V224.627H603.432ZM612.641 224.08V232.83H611.752V228.27H610.668V232.4H609.789V224.246H610.668V227.508H611.752V224.08H612.641ZM608.803 225.066V230.525H605.404V225.066H608.803ZM606.283 225.799V229.783H607.934V225.799H606.283ZM620.57 224.08V227.625H621.977V228.396H620.57V232.83H619.652V224.08H620.57ZM618.891 225.447V226.209H613.705V225.447H615.863V224.197H616.791V225.447H618.891ZM616.332 226.854C617.582 226.854 618.5 227.693 618.51 228.885C618.5 230.086 617.582 230.916 616.332 230.926C615.072 230.916 614.154 230.086 614.154 228.885C614.154 227.693 615.072 226.854 616.332 226.854ZM616.332 227.615C615.59 227.615 615.033 228.133 615.043 228.885C615.033 229.646 615.59 230.154 616.332 230.145C617.074 230.154 617.621 229.646 617.621 228.885C617.621 228.133 617.074 227.615 616.332 227.615ZM626.273 224.715C626.273 225.364 626.166 225.96 625.961 226.502H627.201V224.266H628.08V228.982H627.201V227.254H625.57C625.014 228.118 624.13 228.807 622.924 229.314L622.455 228.621C624.188 227.933 625.146 226.858 625.316 225.467H622.855V224.715H626.273ZM629.857 224.09V229.119H628.979V224.09H629.857ZM625.512 229.93C625.502 230.687 625.878 231.478 626.674 231.961C627.47 231.434 627.855 230.584 627.865 229.93V229.402H628.764V229.93C628.764 230.838 629.369 231.736 630.502 232.107L630.053 232.791C629.184 232.483 628.598 231.897 628.295 231.17C628.017 231.873 627.499 232.522 626.684 232.859C625.849 232.542 625.326 231.912 625.062 231.189C624.745 231.893 624.164 232.479 623.344 232.791L622.875 232.107C623.998 231.707 624.623 230.779 624.623 229.93V229.402H625.512V229.93ZM632.943 229.324V230.252H637.055V229.324H637.982V232.723H632.025V229.324H632.943ZM632.943 231.98H637.055V230.975H632.943V231.98ZM639.018 228.006V228.777H631.039V228.006H639.018ZM635.502 224.549C635.502 225.555 636.898 226.531 638.578 226.736L638.246 227.469C636.825 227.269 635.59 226.6 635.033 225.672C634.462 226.604 633.222 227.269 631.82 227.469L631.469 226.736C633.168 226.521 634.555 225.584 634.555 224.549V224.178H635.502V224.549ZM646.947 224.08V232.83H646.02V224.08H646.947ZM641.137 224.93V229.803C642.411 229.793 643.754 229.69 645.16 229.402L645.287 230.184C643.734 230.496 642.328 230.604 640.951 230.604H640.219V224.93H641.137ZM655.141 224.08V227.469H656.547V228.23H655.141V232.85H654.213V224.08H655.141ZM652.787 224.92V225.672H649.623V229.9C651.093 229.896 652.196 229.832 653.441 229.607L653.559 230.389C652.191 230.633 651.029 230.682 649.398 230.672H648.695V224.92H652.787Z" fill="black"/>
<path d="M70.1602 56.2559V73.8516H66.9355V69.4844H63.8125V66.9199H66.9355V64.6094H63.8125V61.9941H66.9355V56.2559H70.1602ZM63.584 58.668V61.2324H50.7363V58.668H55.7129V56.2051H58.9375V58.668H63.584ZM57.2871 62.0449C60.4609 62.0449 62.7461 63.9238 62.7715 66.5898C62.7461 69.2559 60.4609 71.1094 57.2871 71.1094C54.1387 71.1094 51.8535 69.2559 51.8789 66.5898C51.8535 63.9238 54.1387 62.0449 57.2871 62.0449ZM57.2871 64.5586C55.8652 64.584 54.875 65.2949 54.9004 66.5898C54.875 67.9102 55.8652 68.6465 57.2871 68.6465C58.6836 68.6465 59.6992 67.9102 59.7246 66.5898C59.6992 65.2949 58.6836 64.584 57.2871 64.5586ZM70.6426 76.3398V78.9297H54.7734V72.3535H58.0488V76.3398H70.6426ZM94.2305 65.3965V67.9609H85.293V69.4336H91.666V75.3496H78.793V76.7461H92.2754V79.1836H75.6191V73.0645H88.4668V71.8711H75.5938V69.4336H82.043V67.9609H73.1562V65.3965H94.2305ZM91.5645 56.8906V64.1777H75.7715V56.8906H91.5645ZM78.9453 59.4043V61.6895H88.3398V59.4043H78.9453Z" fill="#0249FF"/>
<path d="M724.41 216.496V226.996H723.355V216.496H724.41ZM722.266 216.766V226.48H721.211V222.906H719.418V221.992H721.211V220.281H719.594C719.084 222.045 717.965 223.574 715.984 224.758L715.328 223.961C717.555 222.637 718.627 220.873 718.82 218.711H715.844V217.797H719.922C719.922 218.336 719.881 218.857 719.793 219.367H721.211V216.766H722.266ZM735.496 218.031V218.945H734.008V220.281H735.496V221.219H734.008V222.719H732.895V216.496H734.008V218.031H735.496ZM734.008 223.188V226.996H732.895V224.09H727.07V223.188H734.008ZM728.711 217.105C730.316 217.105 731.5 218.137 731.512 219.613C731.5 221.09 730.316 222.121 728.711 222.121C727.105 222.121 725.91 221.09 725.922 219.613C725.91 218.137 727.105 217.105 728.711 217.105ZM728.711 218.055C727.727 218.055 727 218.676 727.012 219.613C727 220.562 727.727 221.184 728.711 221.172C729.695 221.184 730.422 220.562 730.422 219.613C730.422 218.676 729.695 218.055 728.711 218.055ZM739.914 219.168C739.914 221.09 740.992 223 742.598 223.727L741.918 224.617C740.723 224.02 739.826 222.83 739.363 221.395C738.9 222.906 737.98 224.184 736.773 224.816L736.07 223.914C737.699 223.141 738.789 221.113 738.789 219.168V217.375H739.914V219.168ZM744.883 216.496V227.02H743.781V220.891H741.438V219.988H743.781V216.496H744.883ZM750.93 216.941V218.371H753.684V216.941H754.785V221.523H749.84V216.941H750.93ZM750.93 220.633H753.684V219.227H750.93V220.633ZM757.68 216.496V218.699H759.203V219.602H757.68V221.898H756.566V216.496H757.68ZM757.68 222.355V225.004H752.008V226H758.043V226.891H750.918V224.184H756.578V223.234H750.895V222.355H757.68ZM765.133 220.176V221.641H769.375V222.543H759.801V221.641H764.031V220.176H765.133ZM765.145 217.105C765.145 218.441 766.785 219.613 768.812 219.871L768.379 220.75C766.709 220.486 765.238 219.672 764.582 218.512C763.908 219.672 762.438 220.486 760.762 220.75L760.352 219.871C762.367 219.613 764.008 218.43 764.02 217.105V216.66H765.145V217.105ZM764.582 223.316C766.855 223.316 768.203 223.973 768.203 225.156C768.203 226.328 766.855 226.984 764.582 226.973C762.297 226.984 760.938 226.328 760.938 225.156C760.938 223.973 762.297 223.316 764.582 223.316ZM764.582 224.172C762.965 224.172 762.062 224.512 762.062 225.156C762.062 225.789 762.965 226.129 764.582 226.129C766.176 226.129 767.09 225.789 767.09 225.156C767.09 224.512 766.176 224.172 764.582 224.172Z" fill="black"/>
<defs>
<filter id="filter0_d_571_492" x="0" y="22" width="435" height="376" filterUnits="userSpaceOnUse" color-interpolation-filters="sRGB">
<feFlood flood-opacity="0" result="BackgroundImageFix"/>
<feColorMatrix in="SourceAlpha" type="matrix" values="0 0 0 0 0 0 0 0 0 0 0 0 0 0 0 0 0 0 127 0" result="hardAlpha"/>
<feOffset dy="4"/>
<feGaussianBlur stdDeviation="2"/>
<feComposite in2="hardAlpha" operator="out"/>
<feColorMatrix type="matrix" values="0 0 0 0 0 0 0 0 0 0 0 0 0 0 0 0 0 0 0.25 0"/>
<feBlend mode="normal" in2="BackgroundImageFix" result="effect1_dropShadow_571_492"/>
<feBlend mode="normal" in="SourceGraphic" in2="effect1_dropShadow_571_492" result="shape"/>
</filter>
<filter id="filter1_d_571_492" x="469" y="22" width="435" height="376" filterUnits="userSpaceOnUse" color-interpolation-filters="sRGB">
<feFlood flood-opacity="0" result="BackgroundImageFix"/>
<feColorMatrix in="SourceAlpha" type="matrix" values="0 0 0 0 0 0 0 0 0 0 0 0 0 0 0 0 0 0 127 0" result="hardAlpha"/>
<feOffset dy="4"/>
<feGaussianBlur stdDeviation="2"/>
<feComposite in2="hardAlpha" operator="out"/>
<feColorMatrix type="matrix" values="0 0 0 0 0 0 0 0 0 0 0 0 0 0 0 0 0 0 0.25 0"/>
<feBlend mode="normal" in2="BackgroundImageFix" result="effect1_dropShadow_571_492"/>
<feBlend mode="normal" in="SourceGraphic" in2="effect1_dropShadow_571_492" result="shape"/>
</filter>
</defs>
</svg>
