<svg width="906" height="286" viewBox="0 0 906 286" fill="none" xmlns="http://www.w3.org/2000/svg">
<g filter="url(#filter0_d_491_291)">
<rect x="4" y="6" width="423" height="270" rx="40" fill="#F5F5F5"/>
</g>
<path d="M60.5117 126.078V127.328C60.5117 128.627 60.5117 130.18 60.082 132.27H62.6016V133.52H55.375V136.723H60.6289V142.582H59.0859V137.992H48.3438V136.723H53.8516V133.52H46.7031V132.27H58.5391C58.9883 130.141 58.9883 128.627 58.9883 127.328H48.7148V126.078H60.5117ZM78.8125 125.219V142.582H77.3086V133.598H74.8086V141.684H73.3633V125.609H74.8086V132.289H77.3086V125.219H78.8125ZM66.3906 127.348V136.723C68.1191 136.703 69.9551 136.586 72.0742 136.156L72.2695 137.523C69.8477 137.953 67.8555 138.09 65.9414 138.09H64.8672V127.348H66.3906ZM95.0625 127.68C95.043 130.004 98.1484 131.977 101.176 132.426L100.609 133.637C97.8945 133.178 95.2578 131.732 94.2031 129.633C93.1484 131.732 90.502 133.178 87.8359 133.637L87.2305 132.426C90.2383 131.977 93.3438 130.004 93.3438 127.68V127.562H87.7773V126.312H100.609V127.562H95.0625V127.68ZM102.113 135.121V136.391H94.9258V142.582H93.4219V136.391H86.293V135.121H102.113ZM109.73 127.738C109.711 130.277 111.547 132.523 114.125 133.422L113.344 134.633C111.332 133.9 109.74 132.396 108.969 130.473C108.197 132.533 106.586 134.154 104.555 134.945L103.754 133.734C106.352 132.777 108.168 130.355 108.168 127.738V126.078H109.73V127.738ZM117.914 136.547V142.582H116.391V137.816H106.234V136.547H117.914ZM117.914 125.219V135.688H116.391V125.219H117.914ZM130.707 127.172V128.422H120.883V127.172H125.102V125.082H126.625V127.172H130.707ZM125.844 129.32C128.168 129.32 129.809 130.59 129.809 132.523C129.809 134.477 128.168 135.746 125.844 135.746C123.5 135.746 121.898 134.477 121.918 132.523C121.898 130.59 123.5 129.32 125.844 129.32ZM125.844 130.473C124.34 130.492 123.344 131.312 123.344 132.523C123.344 133.754 124.34 134.555 125.844 134.555C127.348 134.555 128.363 133.754 128.383 132.523C128.363 131.312 127.348 130.492 125.844 130.473ZM135.258 125.219V136.449H133.715V134.047H130.688V132.777H133.715V130.668H130.707V129.398H133.715V125.219H135.258ZM129.535 136.625C133.148 136.625 135.355 137.699 135.355 139.594C135.355 141.449 133.148 142.543 129.535 142.543C125.883 142.543 123.695 141.449 123.695 139.594C123.695 137.699 125.883 136.625 129.535 136.625ZM129.535 137.816C126.898 137.816 125.277 138.461 125.277 139.594C125.277 140.688 126.898 141.352 129.535 141.352C132.133 141.352 133.734 140.688 133.734 139.594C133.734 138.461 132.133 137.816 129.535 137.816ZM144.027 141V126.859H152.602V128.422H145.785V133.148H152.152V134.691H145.785V139.438H152.699V141H144.027ZM154.594 128.422V126.859H165.258V128.422H160.824V141H159.047V128.422H154.594ZM167.602 141V126.859H176.117V128.422H169.359V133.148H175.473V134.691H169.359V141H167.602ZM191.918 130.492V131.723H180.023V125.863H181.547V130.492H191.918ZM193.754 134.086V135.336H177.855V134.086H193.754ZM192.016 140.883V142.152H179.926V137.113H181.449V140.883H192.016ZM214.555 125.219V142.582H213.031V133.48H208.891V132.211H213.031V125.219H214.555ZM208.93 127.113C208.93 132.035 206.84 136.41 201.039 139.281L200.199 138.051C204.906 135.775 207.084 132.436 207.387 128.363H200.961V127.113H208.93ZM223.148 126.488C225.883 126.488 227.816 128.148 227.816 130.57C227.816 132.992 225.883 134.652 223.148 134.652C220.414 134.652 218.441 132.992 218.461 130.57C218.441 128.148 220.414 126.488 223.148 126.488ZM223.148 127.836C221.293 127.836 219.945 128.949 219.965 130.57C219.945 132.191 221.293 133.305 223.148 133.305C224.984 133.305 226.312 132.191 226.312 130.57C226.312 128.949 224.984 127.836 223.148 127.836ZM231.703 125.219V142.621H230.18V125.219H231.703ZM217.562 137.484C220.766 137.484 225.18 137.465 229.027 136.898L229.145 138.031C225.18 138.773 220.902 138.793 217.777 138.793L217.562 137.484ZM255.668 139.066V140.355H239.77V139.066H246.918V134.828H241.645V126.684H253.695V134.828H248.422V139.066H255.668ZM243.148 127.914V133.598H252.211V127.914H243.148ZM272.895 133.988V135.238H257.055V133.988H272.895ZM271.078 130.805V132.074H259.066V125.98H270.922V127.23H260.59V130.805H271.078ZM271.215 140.902V142.191H259.105V137.113H260.629V140.902H271.215ZM285.238 130.551C285.219 133.344 287.23 136.41 289.75 137.602L288.871 138.812C286.918 137.865 285.268 135.795 284.496 133.441C283.695 136 281.947 138.246 280.004 139.242L279.066 138.031C281.566 136.82 283.715 133.52 283.734 130.551V128.285H279.691V127.016H289.145V128.285H285.238V130.551ZM292.797 125.219V132.25H295.707V133.559H292.797V142.582H291.273V125.219H292.797ZM302.484 128.5C302.465 130.883 304.281 133.09 306.84 133.988L306.059 135.219C304.086 134.506 302.553 133.031 301.781 131.176C301.049 133.256 299.477 134.857 297.426 135.648L296.586 134.418C299.223 133.48 300.961 131.137 300.98 128.441V126.293H302.484V128.5ZM310.219 125.219V130.551H312.836V131.859H310.219V138.051H308.695V125.219H310.219ZM311.02 140.922V142.211H299.379V136.82H300.941V140.922H311.02ZM321.84 125.531C325.707 125.531 327.973 126.586 327.973 128.52C327.973 130.492 325.707 131.547 321.84 131.566C317.973 131.547 315.688 130.492 315.688 128.52C315.688 126.586 317.973 125.531 321.84 125.531ZM321.84 126.684C318.949 126.684 317.27 127.387 317.289 128.52C317.27 129.73 318.949 130.395 321.84 130.395C324.711 130.395 326.41 129.73 326.41 128.52C326.41 127.387 324.711 126.684 321.84 126.684ZM329.75 132.738V133.988H313.93V132.738H329.75ZM327.719 135.492V139.379H317.406V141.176H328.246V142.387H315.883V138.246H326.215V136.664H315.844V135.492H327.719ZM351.117 125.219V142.582H349.633V133.383H347.211V141.703H345.746V125.59H347.211V132.113H349.633V125.219H351.117ZM343.52 127.25V137.914H336.879V127.25H343.52ZM338.324 128.48V136.684H342.074V128.48H338.324ZM368.402 125.219V142.582H366.918V133.383H364.496V141.703H363.031V125.59H364.496V132.113H366.918V125.219H368.402ZM360.805 127.25V137.914H354.164V127.25H360.805ZM355.609 128.48V136.684H359.359V128.48H355.609ZM52.4844 156.883C52.4844 159.656 54.3008 162.508 56.8203 163.719L55.9219 164.91C54.0078 163.973 52.4941 162.078 51.7812 159.832C51.0195 162.244 49.4082 164.266 47.4258 165.223L46.5469 164.031C49.0859 162.84 50.9805 159.871 51 156.883V155.496H47.0156V154.246H50.9805V151.551H52.5234V154.246H56.4297V155.496H52.4844V156.883ZM60.1406 151.219V158.348H63.0508V159.656H60.1406V168.582H58.6172V151.219H60.1406ZM78.3242 162.488V168.582H76.8008V163.777H66.6445V162.488H78.3242ZM78.3242 151.219V161.551H76.8008V151.219H78.3242ZM68.9492 152.273C71.5859 152.254 73.5 153.953 73.5 156.355C73.5 158.797 71.5859 160.477 68.9492 160.477C66.3125 160.477 64.3984 158.797 64.3984 156.355C64.3984 153.953 66.3125 152.254 68.9492 152.273ZM68.9492 153.582C67.1719 153.582 65.8828 154.715 65.9023 156.355C65.8828 158.016 67.1719 159.168 68.9492 159.148C70.707 159.168 71.9961 158.016 71.9961 156.355C71.9961 154.715 70.707 153.582 68.9492 153.582ZM96.1562 151.219V168.582H94.6719V151.219H96.1562ZM92.6602 151.59V167.703H91.1953V159.266H88.9688C88.8027 162.645 87.3672 164.754 85.2188 164.754C82.9531 164.754 81.4883 162.41 81.4883 158.719C81.4883 155.027 82.9531 152.684 85.2188 152.684C87.3281 152.684 88.7539 154.725 88.9492 157.996H91.1953V151.59H92.6602ZM85.2188 154.129C83.8125 154.129 82.9141 155.887 82.9336 158.719C82.9141 161.531 83.8125 163.309 85.2188 163.289C86.625 163.309 87.5234 161.531 87.5234 158.719C87.5234 155.887 86.625 154.129 85.2188 154.129ZM118.422 151.219V168.582H116.957V159.48H114.398V167.684H112.992V151.609H114.398V158.211H116.957V151.219H118.422ZM110.727 153.348V154.617H105.746V162.977C108.139 162.967 109.799 162.879 111.723 162.488L111.859 163.777C109.77 164.207 107.992 164.285 105.336 164.285H104.223V153.348H110.727ZM129.535 154.227V155.477H120.824V154.227H124.438V151.746H125.961V154.227H129.535ZM125.18 156.648C127.367 156.648 128.93 158.289 128.949 160.594C128.93 162.918 127.367 164.578 125.18 164.578C123.012 164.578 121.449 162.918 121.449 160.594C121.449 158.289 123.012 156.648 125.18 156.648ZM125.18 157.938C123.812 157.957 122.816 159.07 122.816 160.594C122.816 162.137 123.812 163.25 125.18 163.23C126.566 163.25 127.582 162.137 127.582 160.594C127.582 159.07 126.566 157.957 125.18 157.938ZM135.648 151.219V168.582H134.184V159.812H131.879V167.723H130.434V151.648H131.879V158.543H134.184V151.219H135.648ZM157.484 151.219V168.621H155.941V151.219H157.484ZM145.707 152.703V157.293H150.883V152.703H152.387V164.422H144.184V152.703H145.707ZM145.707 163.133H150.883V158.523H145.707V163.133ZM170.082 153.152V154.051C170.062 155.418 170.062 157.723 169.574 160.945L168.031 160.809C168.5 157.898 168.539 155.789 168.539 154.402H161.254V153.152H170.082ZM165.531 158.113V163.387C167.455 163.318 169.428 163.191 171.234 162.977L171.312 164.129C167.66 164.695 163.578 164.773 160.473 164.754L160.277 163.484C161.42 163.475 162.689 163.465 164.027 163.426V158.113H165.531ZM173.852 151.219V158.484H176.664V159.812H173.852V168.582H172.328V151.219H173.852ZM182.895 156.16C182.895 158.914 184.242 161.902 186.547 163.27L185.668 164.461C183.998 163.445 182.797 161.59 182.191 159.48C181.547 161.785 180.258 163.768 178.52 164.832L177.543 163.68C179.945 162.273 181.41 159.188 181.41 156.219V152.859H182.895V156.16ZM192.621 151.219V168.582H191.137V151.219H192.621ZM189.027 151.59V167.703H187.582V158.758H184.633V157.449H187.582V151.59H189.027ZM209.359 151.238V163.934H207.836V151.238H209.359ZM209.906 166.922V168.211H198.148V162.645H199.672V166.922H209.906ZM199.984 152.449C202.582 152.449 204.535 154.207 204.535 156.707C204.535 159.246 202.582 160.984 199.984 160.984C197.387 160.984 195.434 159.246 195.434 156.707C195.434 154.207 197.387 152.449 199.984 152.449ZM199.984 153.797C198.227 153.797 196.918 155.008 196.938 156.707C196.918 158.445 198.227 159.637 199.984 159.637C201.703 159.637 203.031 158.445 203.031 156.707C203.031 155.008 201.703 153.797 199.984 153.797ZM231.137 152.078V153.328C231.137 154.627 231.137 156.18 230.707 158.27H233.227V159.52H226V162.723H231.254V168.582H229.711V163.992H218.969V162.723H224.477V159.52H217.328V158.27H229.164C229.613 156.141 229.613 154.627 229.613 153.328H219.34V152.078H231.137ZM249.438 151.219V168.582H247.934V159.598H245.434V167.684H243.988V151.609H245.434V158.289H247.934V151.219H249.438ZM237.016 153.348V162.723C238.744 162.703 240.58 162.586 242.699 162.156L242.895 163.523C240.473 163.953 238.48 164.09 236.566 164.09H235.492V153.348H237.016ZM262.719 154.031C262.719 156.395 264.516 158.562 267.035 159.422L266.195 160.633C264.271 159.93 262.758 158.494 261.996 156.688C261.254 158.729 259.711 160.34 257.68 161.121L256.859 159.891C259.457 158.914 261.195 156.59 261.215 153.914V152.117H262.719V154.031ZM270.492 151.219V155.75H273.109V157.039H270.492V161.785H268.969V151.219H270.492ZM264.926 162.234C268.5 162.234 270.648 163.387 270.648 165.379C270.648 167.41 268.5 168.543 264.926 168.543C261.352 168.543 259.164 167.41 259.164 165.379C259.164 163.387 261.352 162.234 264.926 162.234ZM264.926 163.465C262.309 163.465 260.688 164.188 260.707 165.379C260.688 166.609 262.309 167.312 264.926 167.332C267.562 167.312 269.164 166.609 269.164 165.379C269.164 164.188 267.562 163.465 264.926 163.465ZM280.082 154.52C280.082 156.785 281.781 158.816 284.34 159.656L283.617 160.867C281.615 160.213 280.102 158.826 279.359 157.078C278.607 159.07 277.006 160.623 274.926 161.375L274.145 160.145C276.742 159.266 278.559 157.02 278.578 154.52V153.777H274.613V152.508H283.988V153.777H280.082V154.52ZM287.777 151.219V155.652H290.395V156.941H287.777V161.707H286.254V151.219H287.777ZM282.211 162.176C285.785 162.176 287.934 163.348 287.934 165.34C287.934 167.371 285.785 168.543 282.211 168.543C278.637 168.543 276.449 167.371 276.449 165.34C276.449 163.348 278.637 162.176 282.211 162.176ZM282.211 163.406C279.594 163.406 277.973 164.129 277.992 165.34C277.973 166.59 279.594 167.312 282.211 167.312C284.848 167.312 286.449 166.59 286.449 165.34C286.449 164.129 284.848 163.406 282.211 163.406ZM300.258 153.68C300.238 156.004 303.344 157.977 306.371 158.426L305.805 159.637C303.09 159.178 300.453 157.732 299.398 155.633C298.344 157.732 295.697 159.178 293.031 159.637L292.426 158.426C295.434 157.977 298.539 156.004 298.539 153.68V153.562H292.973V152.312H305.805V153.562H300.258V153.68ZM307.309 161.121V162.391H300.121V168.582H298.617V162.391H291.488V161.121H307.309ZM314.926 153.738C314.906 156.277 316.742 158.523 319.32 159.422L318.539 160.633C316.527 159.9 314.936 158.396 314.164 156.473C313.393 158.533 311.781 160.154 309.75 160.945L308.949 159.734C311.547 158.777 313.363 156.355 313.363 153.738V152.078H314.926V153.738ZM323.109 162.547V168.582H321.586V163.816H311.43V162.547H323.109ZM323.109 151.219V161.688H321.586V151.219H323.109ZM340.941 151.219V168.582H339.457V151.219H340.941ZM337.445 151.59V167.703H335.98V159.266H333.754C333.588 162.645 332.152 164.754 330.004 164.754C327.738 164.754 326.273 162.41 326.273 158.719C326.273 155.027 327.738 152.684 330.004 152.684C332.113 152.684 333.539 154.725 333.734 157.996H335.98V151.59H337.445ZM330.004 154.129C328.598 154.129 327.699 155.887 327.719 158.719C327.699 161.531 328.598 163.309 330.004 163.289C331.41 163.309 332.309 161.531 332.309 158.719C332.309 155.887 331.41 154.129 330.004 154.129ZM352.113 152.801V160.789H344.086V152.801H352.113ZM345.59 154.051V159.559H350.629V154.051H345.59ZM356.918 151.219V156.512H359.535V157.801H356.918V163.953H355.395V151.219H356.918ZM357.719 166.922V168.211H346.059V162.742H347.562V166.922H357.719ZM62.582 187.746V189.016H55.3555V194.582H53.8516V189.016H46.6836V187.746H62.582ZM60.7852 184.699V185.949H48.8125V178.039H60.5898V179.289H50.3359V181.32H60.1797V182.551H50.3359V184.699H60.7852ZM69.8672 182.551C69.8477 185.344 71.8594 188.41 74.3789 189.602L73.5 190.812C71.5469 189.865 69.8965 187.795 69.125 185.441C68.3242 188 66.5762 190.246 64.6328 191.242L63.6953 190.031C66.1953 188.82 68.3438 185.52 68.3633 182.551V180.285H64.3203V179.016H73.7734V180.285H69.8672V182.551ZM77.4258 177.219V184.25H80.3359V185.559H77.4258V194.582H75.9023V177.219H77.4258ZM94.7109 177.219V184.387H97.6211V185.656H94.7109V194.582H93.1875V177.219H94.7109ZM91.5078 180.012V181.281H81.1758V180.012H85.6484V177.434H87.1719V180.012H91.5078ZM86.4297 182.727C88.8906 182.727 90.668 184.367 90.6875 186.711C90.668 189.055 88.8906 190.695 86.4297 190.695C83.9492 190.695 82.1523 189.055 82.1719 186.711C82.1523 184.367 83.9492 182.727 86.4297 182.727ZM86.4297 184.016C84.8086 184.016 83.6172 185.148 83.6367 186.711C83.6172 188.293 84.8086 189.406 86.4297 189.387C88.0312 189.406 89.2031 188.293 89.2227 186.711C89.2031 185.148 88.0312 184.016 86.4297 184.016ZM112.914 177.219V194.582H111.371V177.219H112.914ZM107.777 179.113C107.758 184.113 105.434 188.527 99.6133 191.32L98.7734 190.07C103.471 187.844 105.863 184.514 106.215 180.363H99.5742V179.113H107.777ZM132.367 177.609V184.328H134.477V177.219H135.941V194.582H134.477V185.598H132.367V193.723H130.941V177.609H132.367ZM125.16 179.426V180.695H122.816V188.742C123.471 188.723 124.33 188.645 125.277 188.41L125.414 189.719C123.949 190.051 122.816 190.051 122.074 190.051H121.391V179.426H125.16ZM129.77 179.426V180.695H127.309V188.742C128.119 188.732 129.086 188.654 130.141 188.352L130.277 189.66C128.832 190.051 127.641 190.051 126.625 190.051H125.922V179.426H129.77ZM154.027 186.105V187.375H146.957V190.93H145.434V187.375H138.129V186.105H154.027ZM151.957 178.078V184.113H140.199V178.078H151.957ZM141.703 179.289V182.883H150.434V179.289H141.703ZM152.25 192.922V194.211H140.16V189.211H141.703V192.922H152.25ZM170.316 177.219V194.582H168.832V177.219H170.316ZM166.82 177.59V193.703H165.355V185.266H163.129C162.963 188.645 161.527 190.754 159.379 190.754C157.113 190.754 155.648 188.41 155.648 184.719C155.648 181.027 157.113 178.684 159.379 178.684C161.488 178.684 162.914 180.725 163.109 183.996H165.355V177.59H166.82ZM159.379 180.129C157.973 180.129 157.074 181.887 157.094 184.719C157.074 187.531 157.973 189.309 159.379 189.289C160.785 189.309 161.684 187.531 161.684 184.719C161.684 181.887 160.785 180.129 159.379 180.129ZM186.508 179.68C186.488 182.004 189.594 183.977 192.621 184.426L192.055 185.637C189.34 185.178 186.703 183.732 185.648 181.633C184.594 183.732 181.947 185.178 179.281 185.637L178.676 184.426C181.684 183.977 184.789 182.004 184.789 179.68V179.562H179.223V178.312H192.055V179.562H186.508V179.68ZM193.559 187.121V188.391H186.371V194.582H184.867V188.391H177.738V187.121H193.559ZM201.176 179.738C201.156 182.277 202.992 184.523 205.57 185.422L204.789 186.633C202.777 185.9 201.186 184.396 200.414 182.473C199.643 184.533 198.031 186.154 196 186.945L195.199 185.734C197.797 184.777 199.613 182.355 199.613 179.738V178.078H201.176V179.738ZM209.359 188.547V194.582H207.836V189.816H197.68V188.547H209.359ZM209.359 177.219V187.688H207.836V177.219H209.359ZM223.578 180.441C223.578 182.785 225.434 184.914 228.031 185.754L227.25 186.945C225.229 186.262 223.617 184.826 222.836 182.98C222.074 184.963 220.443 186.525 218.383 187.277L217.582 186.086C220.18 185.168 222.035 182.902 222.035 180.441V179.699H217.973V178.449H227.582V179.699H223.578V180.441ZM231.664 177.219V187.727H230.141V177.219H231.664ZM231.664 188.645V194.582H230.141V189.914H219.984V188.645H231.664ZM248.988 177.219V186.652H247.465V182.727H243.949V181.438H247.465V177.219H248.988ZM239.359 187.492V189.66H247.465V187.492H248.988V194.348H237.816V187.492H239.359ZM239.359 193.098H247.465V190.891H239.359V193.098ZM240.648 180.051C240.648 182.277 242.387 184.465 244.926 185.344L244.125 186.535C242.162 185.822 240.648 184.367 239.906 182.57C239.154 184.582 237.553 186.193 235.492 186.945L234.691 185.734C237.25 184.816 239.105 182.512 239.105 180.051V179.543H235.18V178.273H244.535V179.543H240.648V180.051ZM267.777 187.746V189.016H260.551V194.582H259.047V189.016H251.879V187.746H267.777ZM265.98 184.699V185.949H254.008V178.039H265.785V179.289H255.531V181.32H265.375V182.551H255.531V184.699H265.98ZM275.062 182.551C275.043 185.344 277.055 188.41 279.574 189.602L278.695 190.812C276.742 189.865 275.092 187.795 274.32 185.441C273.52 188 271.771 190.246 269.828 191.242L268.891 190.031C271.391 188.82 273.539 185.52 273.559 182.551V180.285H269.516V179.016H278.969V180.285H275.062V182.551ZM282.621 177.219V184.25H285.531V185.559H282.621V194.582H281.098V177.219H282.621ZM291.703 178.352C294.379 178.371 296.312 180.012 296.332 182.434C296.312 184.611 294.75 186.164 292.484 186.438V189.406C294.105 189.328 295.736 189.211 297.25 189.016L297.348 190.168C293.676 190.793 289.555 190.832 286.508 190.812L286.254 189.523C287.65 189.514 289.271 189.504 290.941 189.445V186.438C288.637 186.174 287.055 184.621 287.074 182.434C287.055 180.012 288.988 178.371 291.703 178.352ZM291.703 179.68C289.887 179.68 288.559 180.812 288.578 182.434C288.559 184.055 289.887 185.188 291.703 185.188C293.5 185.188 294.809 184.055 294.828 182.434C294.809 180.812 293.5 179.68 291.703 179.68ZM299.887 177.219V184.387H302.719V185.715H299.887V194.582H298.363V177.219H299.887ZM309.438 178.488C312.172 178.488 314.105 180.148 314.105 182.57C314.105 184.992 312.172 186.652 309.438 186.652C306.703 186.652 304.73 184.992 304.75 182.57C304.73 180.148 306.703 178.488 309.438 178.488ZM309.438 179.836C307.582 179.836 306.234 180.949 306.254 182.57C306.234 184.191 307.582 185.305 309.438 185.305C311.273 185.305 312.602 184.191 312.602 182.57C312.602 180.949 311.273 179.836 309.438 179.836ZM317.992 177.219V194.621H316.469V177.219H317.992ZM303.852 189.484C307.055 189.484 311.469 189.465 315.316 188.898L315.434 190.031C311.469 190.773 307.191 190.793 304.066 190.793L303.852 189.484ZM335.902 179.172V180.422H326.078V179.172H330.297V177.082H331.82V179.172H335.902ZM331.039 181.32C333.363 181.32 335.004 182.59 335.004 184.523C335.004 186.477 333.363 187.746 331.039 187.746C328.695 187.746 327.094 186.477 327.113 184.523C327.094 182.59 328.695 181.32 331.039 181.32ZM331.039 182.473C329.535 182.492 328.539 183.312 328.539 184.523C328.539 185.754 329.535 186.555 331.039 186.555C332.543 186.555 333.559 185.754 333.578 184.523C333.559 183.312 332.543 182.492 331.039 182.473ZM340.453 177.219V188.449H338.91V186.047H335.883V184.777H338.91V182.668H335.902V181.398H338.91V177.219H340.453ZM334.73 188.625C338.344 188.625 340.551 189.699 340.551 191.594C340.551 193.449 338.344 194.543 334.73 194.543C331.078 194.543 328.891 193.449 328.891 191.594C328.891 189.699 331.078 188.625 334.73 188.625ZM334.73 189.816C332.094 189.816 330.473 190.461 330.473 191.594C330.473 192.688 332.094 193.352 334.73 193.352C337.328 193.352 338.93 192.688 338.93 191.594C338.93 190.461 337.328 189.816 334.73 189.816ZM353.09 178.547V179.816H351.312V185.363C352.123 185.314 352.904 185.246 353.656 185.148L353.734 186.32C350.355 186.848 346.391 186.887 343.578 186.887L343.383 185.598L345.629 185.578V179.816H343.871V178.547H353.09ZM357.738 177.219V187.941H356.195V184.719H353.266V183.449H356.195V181.613H353.266V180.344H356.195V177.219H357.738ZM351.977 188.312C355.609 188.312 357.797 189.445 357.797 191.418C357.797 193.41 355.609 194.543 351.977 194.543C348.344 194.543 346.156 193.41 346.156 191.418C346.156 189.445 348.344 188.312 351.977 188.312ZM351.977 189.504C349.301 189.504 347.66 190.227 347.68 191.418C347.66 192.629 349.301 193.332 351.977 193.332C354.652 193.332 356.273 192.629 356.273 191.418C356.273 190.227 354.652 189.504 351.977 189.504ZM347.113 185.559C348.002 185.539 348.92 185.51 349.828 185.461V179.816H347.113V185.559ZM366.605 179.953C366.586 182.434 368.344 184.621 370.902 185.48L370.043 186.672C368.129 185.949 366.625 184.543 365.883 182.707C365.131 184.787 363.539 186.408 361.449 187.199L360.609 185.949C363.285 185.012 365.062 182.707 365.082 180.012V178.215H366.605V179.953ZM375.023 177.219V187.512H373.48V182.219H369.613V180.949H373.48V177.219H375.023ZM369.262 188.02C372.875 188.02 375.082 189.211 375.082 191.301C375.082 193.371 372.875 194.543 369.262 194.543C365.648 194.543 363.441 193.371 363.441 191.301C363.441 189.211 365.648 188.02 369.262 188.02ZM369.262 189.23C366.605 189.23 364.945 190.012 364.965 191.301C364.945 192.551 366.605 193.312 369.262 193.312C371.918 193.312 373.559 192.551 373.559 191.301C373.559 190.012 371.918 189.23 369.262 189.23ZM54.6133 203.531C58.4805 203.531 60.7461 204.586 60.7461 206.52C60.7461 208.492 58.4805 209.547 54.6133 209.566C50.7461 209.547 48.4609 208.492 48.4609 206.52C48.4609 204.586 50.7461 203.531 54.6133 203.531ZM54.6133 204.684C51.7227 204.684 50.043 205.387 50.0625 206.52C50.043 207.73 51.7227 208.395 54.6133 208.395C57.4844 208.395 59.1836 207.73 59.1836 206.52C59.1836 205.387 57.4844 204.684 54.6133 204.684ZM62.5234 210.738V211.988H46.7031V210.738H62.5234ZM60.4922 213.492V217.379H50.1797V219.176H61.0195V220.387H48.6562V216.246H58.9883V214.664H48.6172V213.492H60.4922ZM82.9336 204.977V206.715C82.9141 208.844 82.9141 211.227 82.2891 214.723L80.7266 214.547C81.3906 211.227 81.3906 208.785 81.3906 206.715V206.246H70.6875V204.977H82.9336ZM84.8281 216.852V218.121H69.0078V216.852H75.2188V210.641H76.7227V216.852H84.8281ZM100.668 203.219V220.621H99.1445V213.219H95.5312V211.93H99.1445V208.473H95.668V207.184H99.1445V203.219H100.668ZM94.5352 204.801V210.973H88.4805V215.25C91.0879 215.24 93.2461 215.143 95.8828 214.742L96.0195 216.031C93.2461 216.461 91.0195 216.559 88.2461 216.559H86.957V209.723H93.0312V206.07H86.8984V204.801H94.5352ZM112.25 206.227V207.477H103.539V206.227H107.152V203.746H108.676V206.227H112.25ZM107.895 208.648C110.082 208.648 111.645 210.289 111.664 212.594C111.645 214.918 110.082 216.578 107.895 216.578C105.727 216.578 104.164 214.918 104.164 212.594C104.164 210.289 105.727 208.648 107.895 208.648ZM107.895 209.938C106.527 209.957 105.531 211.07 105.531 212.594C105.531 214.137 106.527 215.25 107.895 215.23C109.281 215.25 110.297 214.137 110.297 212.594C110.297 211.07 109.281 209.957 107.895 209.938ZM118.363 203.219V220.582H116.898V211.812H114.594V219.723H113.148V203.648H114.594V210.543H116.898V203.219H118.363ZM126.977 207.887C126.977 211.031 128.988 214.195 131.508 215.348L130.59 216.598C128.617 215.582 126.986 213.502 126.215 211.031C125.443 213.629 123.812 215.855 121.84 216.91L120.844 215.68C123.383 214.43 125.414 211.09 125.414 207.887V204.723H126.977V207.887ZM135.258 203.219V220.621H133.734V210.406H129.613V209.156H133.734V203.219H135.258ZM151.898 204.977V216.168H143.891V204.977H151.898ZM145.375 206.207V214.918H150.375V206.207H145.375ZM156.605 203.219V210.152H159.516V211.48H156.605V220.582H155.082V203.219H156.605ZM166.371 207.34C166.371 209.566 168.129 211.598 170.688 212.398L169.906 213.648C167.924 212.984 166.4 211.627 165.648 209.879C164.887 211.783 163.305 213.238 161.273 213.961L160.473 212.711C163.07 211.891 164.867 209.762 164.867 207.34V206.852H160.941V205.602H164.867V203.336H166.41V205.602H170.297V206.852H166.371V207.34ZM174.027 203.219V208.629H176.645V209.918H174.027V216.07H172.504V203.219H174.027ZM174.828 218.922V220.211H163.168V214.957H164.672V218.922H174.828ZM191.176 203.219V210.289H193.988V211.578H191.176V220.582H189.652V203.219H191.176ZM186.684 205.094C186.684 210.016 184.379 214.488 178.715 217.281L177.855 216.07C182.348 213.834 184.789 210.494 185.141 206.383H178.656V205.094H186.684ZM201.234 208.551C201.234 211.5 203.383 214.488 205.941 215.602L205.082 216.812C203.051 215.885 201.293 213.883 200.492 211.48C199.672 214.029 197.924 216.246 195.941 217.242L195.023 216.031C197.504 214.84 199.672 211.559 199.691 208.551V206.285H195.59V205.016H205.375V206.285H201.234V208.551ZM209.34 203.219V220.582H207.797V203.219H209.34ZM228.207 217.145V218.434H212.309V217.145H219.457V213.863H214.301V208.512H224.691V205.777H214.262V204.508H226.195V209.762H215.824V212.594H226.605V213.863H220.961V217.145H228.207ZM249.496 203.219V220.582H248.012V211.383H245.59V219.703H244.125V203.59H245.59V210.113H248.012V203.219H249.496ZM241.898 205.25V215.914H235.258V205.25H241.898ZM236.703 206.48V214.684H240.453V206.48H236.703ZM266.781 203.219V220.582H265.297V211.383H262.875V219.703H261.41V203.59H262.875V210.113H265.297V203.219H266.781ZM259.184 205.25V215.914H252.543V205.25H259.184ZM253.988 206.48V214.684H257.738V206.48H253.988ZM274.965 208.883C274.965 211.656 276.781 214.508 279.301 215.719L278.402 216.91C276.488 215.973 274.975 214.078 274.262 211.832C273.5 214.244 271.889 216.266 269.906 217.223L269.027 216.031C271.566 214.84 273.461 211.871 273.48 208.883V207.496H269.496V206.246H273.461V203.551H275.004V206.246H278.91V207.496H274.965V208.883ZM282.621 203.219V210.348H285.531V211.656H282.621V220.582H281.098V203.219H282.621ZM300.805 214.488V220.582H299.281V215.777H289.125V214.488H300.805ZM300.805 203.219V213.551H299.281V203.219H300.805ZM291.43 204.273C294.066 204.254 295.98 205.953 295.98 208.355C295.98 210.797 294.066 212.477 291.43 212.477C288.793 212.477 286.879 210.797 286.879 208.355C286.879 205.953 288.793 204.254 291.43 204.273ZM291.43 205.582C289.652 205.582 288.363 206.715 288.383 208.355C288.363 210.016 289.652 211.168 291.43 211.148C293.188 211.168 294.477 210.016 294.477 208.355C294.477 206.715 293.188 205.582 291.43 205.582ZM318.637 203.219V220.582H317.152V203.219H318.637ZM315.141 203.59V219.703H313.676V211.266H311.449C311.283 214.645 309.848 216.754 307.699 216.754C305.434 216.754 303.969 214.41 303.969 210.719C303.969 207.027 305.434 204.684 307.699 204.684C309.809 204.684 311.234 206.725 311.43 209.996H313.676V203.59H315.141ZM307.699 206.129C306.293 206.129 305.395 207.887 305.414 210.719C305.395 213.531 306.293 215.309 307.699 215.289C309.105 215.309 310.004 213.531 310.004 210.719C310.004 207.887 309.105 206.129 307.699 206.129ZM340.902 203.219V220.582H339.438V211.48H336.879V219.684H335.473V203.609H336.879V210.211H339.438V203.219H340.902ZM333.207 205.348V206.617H328.227V214.977C330.619 214.967 332.279 214.879 334.203 214.488L334.34 215.777C332.25 216.207 330.473 216.285 327.816 216.285H326.703V205.348H333.207ZM352.016 206.227V207.477H343.305V206.227H346.918V203.746H348.441V206.227H352.016ZM347.66 208.648C349.848 208.648 351.41 210.289 351.43 212.594C351.41 214.918 349.848 216.578 347.66 216.578C345.492 216.578 343.93 214.918 343.93 212.594C343.93 210.289 345.492 208.648 347.66 208.648ZM347.66 209.938C346.293 209.957 345.297 211.07 345.297 212.594C345.297 214.137 346.293 215.25 347.66 215.23C349.047 215.25 350.062 214.137 350.062 212.594C350.062 211.07 349.047 209.957 347.66 209.938ZM358.129 203.219V220.582H356.664V211.812H354.359V219.723H352.914V203.648H354.359V210.543H356.664V203.219H358.129ZM61.0195 229.219V246.621H59.4766V229.219H61.0195ZM49.2422 230.703V235.293H54.418V230.703H55.9219V242.422H47.7188V230.703H49.2422ZM49.2422 241.133H54.418V236.523H49.2422V241.133ZM73.6172 231.152V232.051C73.5977 233.418 73.5977 235.723 73.1094 238.945L71.5664 238.809C72.0352 235.898 72.0742 233.789 72.0742 232.402H64.7891V231.152H73.6172ZM69.0664 236.113V241.387C70.9902 241.318 72.9629 241.191 74.7695 240.977L74.8477 242.129C71.1953 242.695 67.1133 242.773 64.0078 242.754L63.8125 241.484C64.9551 241.475 66.2246 241.465 67.5625 241.426V236.113H69.0664ZM77.3867 229.219V236.484H80.1992V237.812H77.3867V246.582H75.8633V229.219H77.3867ZM86.4297 234.16C86.4297 236.914 87.7773 239.902 90.082 241.27L89.2031 242.461C87.5332 241.445 86.332 239.59 85.7266 237.48C85.082 239.785 83.793 241.768 82.0547 242.832L81.0781 241.68C83.4805 240.273 84.9453 237.188 84.9453 234.219V230.859H86.4297V234.16ZM96.1562 229.219V246.582H94.6719V229.219H96.1562ZM92.5625 229.59V245.703H91.1172V236.758H88.168V235.449H91.1172V229.59H92.5625ZM108.91 236.719V237.988H105.102V241.406C106.801 241.338 108.51 241.221 110.121 241.035L110.238 242.188C106.391 242.754 102.191 242.812 98.8711 242.812L98.6562 241.523C100.17 241.523 101.85 241.514 103.578 241.465V237.988H99.9844V230.879H108.832V232.129H101.488V236.719H108.91ZM112.797 229.219V246.621H111.273V229.219H112.797ZM129.77 230.977V232.715C129.75 234.844 129.75 237.227 129.125 240.723L127.562 240.547C128.227 237.227 128.227 234.785 128.227 232.715V232.246H117.523V230.977H129.77ZM131.664 242.852V244.121H115.844V242.852H122.055V236.641H123.559V242.852H131.664ZM144.027 240.879C144.027 242.412 144.848 244.043 146.508 244.98C148.148 243.955 149.027 242.227 149.027 240.879V239.922H150.531V240.879C150.531 242.656 151.84 244.453 154.066 245.215L153.305 246.348C151.566 245.732 150.346 244.521 149.75 243.066C149.213 244.473 148.148 245.801 146.547 246.484C144.857 245.84 143.783 244.561 143.266 243.105C142.65 244.512 141.449 245.723 139.789 246.348L139.008 245.215C141.195 244.395 142.523 242.539 142.543 240.879V239.922H144.027V240.879ZM152.484 229.238V239.16H150.961V229.238H152.484ZM143.109 230.254C145.746 230.254 147.66 231.895 147.66 234.316C147.66 236.699 145.746 238.34 143.109 238.34C140.473 238.34 138.559 236.699 138.559 234.316C138.559 231.895 140.473 230.254 143.109 230.254ZM143.109 231.562C141.332 231.543 140.043 232.695 140.062 234.316C140.043 235.918 141.332 237.051 143.109 237.07C144.867 237.051 146.156 235.918 146.156 234.316C146.156 232.695 144.867 231.543 143.109 231.562ZM160.102 230.566C162.465 230.586 164.164 232.607 164.418 235.859H168.305V229.219H169.828V246.621H168.305V237.129H164.438C164.252 240.527 162.523 242.656 160.102 242.656C157.543 242.656 155.746 240.312 155.746 236.621C155.746 232.93 157.543 230.586 160.102 230.566ZM160.102 231.934C158.383 231.953 157.211 233.789 157.211 236.621C157.211 239.453 158.383 241.289 160.102 241.289C161.801 241.289 162.992 239.453 162.992 236.621C162.992 233.789 161.801 231.953 160.102 231.934ZM188.617 243.066V244.355H172.719V243.066H176.664V238.379C175.18 237.607 174.281 236.357 174.281 234.785C174.281 232.09 176.918 230.332 180.629 230.312C184.34 230.332 186.977 232.09 186.977 234.785C186.977 236.328 186.107 237.568 184.672 238.34V243.066H188.617ZM180.629 231.582C177.777 231.562 175.766 232.852 175.766 234.785C175.766 236.719 177.777 238.027 180.629 238.027C183.461 238.027 185.492 236.719 185.492 234.785C185.492 232.852 183.461 231.562 180.629 231.582ZM178.168 243.066H183.129V238.926C182.377 239.131 181.537 239.238 180.629 239.238C179.74 239.238 178.91 239.141 178.168 238.945V243.066ZM191.84 245.117C191.156 245.117 190.57 244.551 190.59 243.848C190.57 243.164 191.156 242.598 191.84 242.598C192.523 242.598 193.09 243.164 193.09 243.848C193.09 244.551 192.523 245.117 191.84 245.117Z" fill="black"/>
<g filter="url(#filter1_d_491_291)">
<path d="M4 47C4 24.9086 21.9086 7 44 7H387C409.091 7 427 24.9086 427 47V91H4V47Z" fill="#F5F5F5"/>
</g>
<path d="M162.322 37.2461V39.0488C162.322 40.75 162.322 42.7051 161.865 45.1934H164.836V47.7832H155.848V51.1094H162.348V59.3359H159.098V53.6484H145.818V51.1094H152.598V47.7832H143.686V45.1934H158.59C159.021 43.0352 159.085 41.334 159.098 39.8105H146.275V37.2461H162.322ZM186.088 36.2305V59.3359H182.965V47.7832H180.807V58.2188H177.76V36.6113H180.807V45.168H182.965V36.2305H186.088ZM170.346 38.7949V50.8555C172.199 50.8174 174.23 50.6523 176.465 50.2207L176.795 53.0137C173.697 53.5469 171.057 53.6992 168.67 53.6992H167.096V38.7949H170.346ZM203.049 39.8613C203.049 42.6543 204.674 45.3457 208.33 46.4883L206.604 49.002C204.153 48.1895 202.439 46.6152 201.449 44.584C200.446 46.9199 198.656 48.748 196.016 49.6367L194.264 47.0977C198.123 45.8027 199.773 42.7305 199.799 39.5566V37.4492H203.049V39.8613ZM212.951 36.2305V41.6387H216.074V44.3301H212.951V49.9414H209.701V36.2305H212.951ZM205.385 50.3984C210.158 50.3984 213.18 52.0488 213.18 54.8672C213.18 57.7109 210.158 59.3359 205.385 59.3359C200.51 59.3359 197.463 57.7109 197.463 54.8672C197.463 52.0488 200.51 50.3984 205.385 50.3984ZM205.385 52.9375C202.338 52.9375 200.688 53.5977 200.713 54.8672C200.688 56.1875 202.338 56.7969 205.385 56.7969C208.381 56.7969 209.98 56.1875 209.98 54.8672C209.98 53.5977 208.381 52.9375 205.385 52.9375ZM230.217 37.7793V40.3691H225.621C225.646 43.0605 227.259 45.6631 230.953 46.7422L229.404 49.2812C226.853 48.5068 225.088 46.958 224.072 44.9648C223.044 47.3008 221.165 49.1543 218.385 50.0684L216.734 47.5039C220.568 46.2979 222.295 43.3018 222.346 40.3691H217.623V37.7793H230.217ZM235.422 36.2305V41.5879H238.545V44.2285H235.422V49.9414H232.172V36.2305H235.422ZM227.855 50.3984C232.654 50.373 235.65 52.0234 235.65 54.8418C235.65 57.6602 232.654 59.3359 227.855 59.3359C222.955 59.3359 219.934 57.6602 219.934 54.8418C219.934 52.0234 222.955 50.373 227.855 50.3984ZM227.855 52.9121C224.809 52.9121 223.158 53.5469 223.184 54.8418C223.158 56.1621 224.809 56.8223 227.855 56.8223C230.852 56.8223 232.451 56.1621 232.451 54.8418C232.451 53.5469 230.852 52.9121 227.855 52.9121ZM246.416 57V38.6172H258.756V41.7656H250.225V46.2344H258.121V49.3828H250.225V53.8516H258.781V57H246.416ZM261.016 41.7656V38.6172H276.072V41.7656H270.436V57H266.652V41.7656H261.016ZM278.434 57V38.6172H290.545V41.7656H282.242V46.2344H289.758V49.3828H282.242V57H278.434Z" fill="#0249FF"/>
<g filter="url(#filter2_d_491_291)">
<rect x="479" y="6" width="423" height="270" rx="40" fill="#F5F5F5"/>
</g>
<g filter="url(#filter3_d_491_291)">
<path d="M479 47C479 24.9086 496.909 7 519 7H862C884.091 7 902 24.9086 902 47V91H479V47Z" fill="#F5F5F5"/>
</g>
<path d="M609.322 37.2461V39.0488C609.322 40.75 609.322 42.7051 608.865 45.1934H611.836V47.7832H602.848V51.1094H609.348V59.3359H606.098V53.6484H592.818V51.1094H599.598V47.7832H590.686V45.1934H605.59C606.021 43.0352 606.085 41.334 606.098 39.8105H593.275V37.2461H609.322ZM633.088 36.2305V59.3359H629.965V47.7832H627.807V58.2188H624.76V36.6113H627.807V45.168H629.965V36.2305H633.088ZM617.346 38.7949V50.8555C619.199 50.8174 621.23 50.6523 623.465 50.2207L623.795 53.0137C620.697 53.5469 618.057 53.6992 615.67 53.6992H614.096V38.7949H617.346ZM650.049 39.8613C650.049 42.6543 651.674 45.3457 655.33 46.4883L653.604 49.002C651.153 48.1895 649.439 46.6152 648.449 44.584C647.446 46.9199 645.656 48.748 643.016 49.6367L641.264 47.0977C645.123 45.8027 646.773 42.7305 646.799 39.5566V37.4492H650.049V39.8613ZM659.951 36.2305V41.6387H663.074V44.3301H659.951V49.9414H656.701V36.2305H659.951ZM652.385 50.3984C657.158 50.3984 660.18 52.0488 660.18 54.8672C660.18 57.7109 657.158 59.3359 652.385 59.3359C647.51 59.3359 644.463 57.7109 644.463 54.8672C644.463 52.0488 647.51 50.3984 652.385 50.3984ZM652.385 52.9375C649.338 52.9375 647.688 53.5977 647.713 54.8672C647.688 56.1875 649.338 56.7969 652.385 56.7969C655.381 56.7969 656.98 56.1875 656.98 54.8672C656.98 53.5977 655.381 52.9375 652.385 52.9375ZM677.217 37.7793V40.3691H672.621C672.646 43.0605 674.259 45.6631 677.953 46.7422L676.404 49.2812C673.853 48.5068 672.088 46.958 671.072 44.9648C670.044 47.3008 668.165 49.1543 665.385 50.0684L663.734 47.5039C667.568 46.2979 669.295 43.3018 669.346 40.3691H664.623V37.7793H677.217ZM682.422 36.2305V41.5879H685.545V44.2285H682.422V49.9414H679.172V36.2305H682.422ZM674.855 50.3984C679.654 50.373 682.65 52.0234 682.65 54.8418C682.65 57.6602 679.654 59.3359 674.855 59.3359C669.955 59.3359 666.934 57.6602 666.934 54.8418C666.934 52.0234 669.955 50.373 674.855 50.3984ZM674.855 52.9121C671.809 52.9121 670.158 53.5469 670.184 54.8418C670.158 56.1621 671.809 56.8223 674.855 56.8223C677.852 56.8223 679.451 56.1621 679.451 54.8418C679.451 53.5469 677.852 52.9121 674.855 52.9121ZM711.9 36.2305V59.3867H708.625V36.2305H711.9ZM699.357 37.8555C702.836 37.8555 705.426 41.0547 705.426 46.082C705.426 51.1602 702.836 54.334 699.357 54.334C695.803 54.334 693.213 51.1602 693.238 46.082C693.213 41.0547 695.803 37.8555 699.357 37.8555ZM699.357 40.7754C697.555 40.7754 696.361 42.6543 696.361 46.082C696.361 49.5352 697.555 51.3887 699.357 51.3887C701.109 51.3887 702.303 49.5352 702.303 46.082C702.303 42.6543 701.109 40.7754 699.357 40.7754ZM722.514 37.6016C726.17 37.6016 728.912 39.9375 728.912 43.2637C728.912 46.082 726.944 48.1895 724.113 48.7734V51.8711C726.068 51.7695 728.036 51.5918 729.902 51.3379L730.156 53.6738C725.027 54.6387 719.543 54.6895 715.506 54.6895L715.125 52.0742C716.826 52.0742 718.807 52.0615 720.889 51.998V48.748C718.07 48.1768 716.09 46.0693 716.09 43.2637C716.09 39.9375 718.857 37.6016 722.514 37.6016ZM722.514 40.3691C720.686 40.3691 719.289 41.4102 719.314 43.2637C719.289 45.0664 720.686 46.1582 722.514 46.1582C724.367 46.1582 725.738 45.0664 725.764 43.2637C725.738 41.4102 724.342 40.3691 722.514 40.3691ZM734.447 36.2305V59.3867H731.223V36.2305H734.447ZM744.35 57V38.6172H756.689V41.7656H748.158V46.2344H756.055V49.3828H748.158V53.8516H756.715V57H744.35ZM758.949 41.7656V38.6172H774.006V41.7656H768.369V57H764.586V41.7656H758.949ZM776.367 57V38.6172H788.479V41.7656H780.176V46.2344H787.691V49.3828H780.176V57H776.367Z" fill="#0249FF"/>
<path d="M537.512 126.078V127.328C537.512 128.627 537.512 130.18 537.082 132.27H539.602V133.52H532.375V136.723H537.629V142.582H536.086V137.992H525.344V136.723H530.852V133.52H523.703V132.27H535.539C535.988 130.141 535.988 128.627 535.988 127.328H525.715V126.078H537.512ZM555.812 125.219V142.582H554.309V133.598H551.809V141.684H550.363V125.609H551.809V132.289H554.309V125.219H555.812ZM543.391 127.348V136.723C545.119 136.703 546.955 136.586 549.074 136.156L549.27 137.523C546.848 137.953 544.855 138.09 542.941 138.09H541.867V127.348H543.391ZM572.062 127.68C572.043 130.004 575.148 131.977 578.176 132.426L577.609 133.637C574.895 133.178 572.258 131.732 571.203 129.633C570.148 131.732 567.502 133.178 564.836 133.637L564.23 132.426C567.238 131.977 570.344 130.004 570.344 127.68V127.562H564.777V126.312H577.609V127.562H572.062V127.68ZM579.113 135.121V136.391H571.926V142.582H570.422V136.391H563.293V135.121H579.113ZM586.73 127.738C586.711 130.277 588.547 132.523 591.125 133.422L590.344 134.633C588.332 133.9 586.74 132.396 585.969 130.473C585.197 132.533 583.586 134.154 581.555 134.945L580.754 133.734C583.352 132.777 585.168 130.355 585.168 127.738V126.078H586.73V127.738ZM594.914 136.547V142.582H593.391V137.816H583.234V136.547H594.914ZM594.914 125.219V135.688H593.391V125.219H594.914ZM607.707 127.172V128.422H597.883V127.172H602.102V125.082H603.625V127.172H607.707ZM602.844 129.32C605.168 129.32 606.809 130.59 606.809 132.523C606.809 134.477 605.168 135.746 602.844 135.746C600.5 135.746 598.898 134.477 598.918 132.523C598.898 130.59 600.5 129.32 602.844 129.32ZM602.844 130.473C601.34 130.492 600.344 131.312 600.344 132.523C600.344 133.754 601.34 134.555 602.844 134.555C604.348 134.555 605.363 133.754 605.383 132.523C605.363 131.312 604.348 130.492 602.844 130.473ZM612.258 125.219V136.449H610.715V134.047H607.688V132.777H610.715V130.668H607.707V129.398H610.715V125.219H612.258ZM606.535 136.625C610.148 136.625 612.355 137.699 612.355 139.594C612.355 141.449 610.148 142.543 606.535 142.543C602.883 142.543 600.695 141.449 600.695 139.594C600.695 137.699 602.883 136.625 606.535 136.625ZM606.535 137.816C603.898 137.816 602.277 138.461 602.277 139.594C602.277 140.688 603.898 141.352 606.535 141.352C609.133 141.352 610.734 140.688 610.734 139.594C610.734 138.461 609.133 137.816 606.535 137.816ZM621.027 141V126.859H629.602V128.422H622.785V133.148H629.152V134.691H622.785V139.438H629.699V141H621.027ZM631.594 128.422V126.859H642.258V128.422H637.824V141H636.047V128.422H631.594ZM644.602 141V126.859H653.117V128.422H646.359V133.148H652.473V134.691H646.359V141H644.602ZM670.754 133.285V134.496H654.855V133.285H670.754ZM668.762 135.883V139.574H658.332V141.234H669.328V142.348H656.789V138.52H667.238V137.035H656.77V135.883H668.762ZM668.703 125.746V129.34H658.449V130.863H669.016V131.977H656.926V128.285H667.16V126.859H656.867V125.746H668.703ZM692.023 125.219V142.582H690.559V125.219H692.023ZM688.508 125.648V141.684H687.062V132.738H684.133V131.488H687.062V125.648H688.508ZM682.277 130.18C682.277 133.188 683.625 136.176 686.027 137.562L685.09 138.695C683.381 137.67 682.17 135.795 681.574 133.578C680.939 135.971 679.68 138.012 677.941 139.105L676.965 137.953C679.387 136.508 680.793 133.344 680.793 130.18V128.539H677.453V127.27H685.461V128.539H682.277V130.18ZM700.148 126.352C702.883 126.371 704.816 128.012 704.816 130.434C704.816 132.621 703.234 134.174 700.91 134.438V137.406C702.629 137.318 704.377 137.172 706.027 136.918L706.145 138.051C702.18 138.793 697.902 138.812 694.777 138.812L694.562 137.523C695.979 137.523 697.629 137.523 699.367 137.465V134.438C697.043 134.164 695.441 132.621 695.461 130.434C695.441 128.012 697.414 126.371 700.148 126.352ZM700.148 127.699C698.293 127.699 696.945 128.812 696.965 130.434C696.945 132.055 698.293 133.188 700.148 133.168C701.984 133.188 703.312 132.055 703.312 130.434C703.312 128.812 701.984 127.699 700.148 127.699ZM708.703 125.219V142.621H707.18V125.219H708.703ZM725.324 125.238V130.961H727.941V132.25H725.324V138.246H723.801V125.238H725.324ZM722.141 127.367V128.617H711.789V127.367H716.203V125.238H717.727V127.367H722.141ZM716.965 129.574C719.445 129.574 721.125 130.844 721.145 132.816C721.125 134.77 719.445 136.02 716.965 136.02C714.465 136.02 712.766 134.77 712.785 132.816C712.766 130.844 714.465 129.574 716.965 129.574ZM716.965 130.785C715.324 130.785 714.23 131.586 714.25 132.816C714.23 134.047 715.324 134.828 716.965 134.809C718.586 134.828 719.68 134.047 719.699 132.816C719.68 131.586 718.586 130.785 716.965 130.785ZM726.125 140.922V142.211H714.465V137.211H715.969V140.922H726.125ZM750.305 132.152V133.441H747.492V142.582H745.969V125.219H747.492V132.152H750.305ZM736.301 126.938V136.879C738.84 136.869 741.428 136.674 744.289 136.078L744.484 137.387C741.496 137.992 738.801 138.168 736.164 138.168H734.777V126.938H736.301ZM759.953 126.957V131.586H764.211V125.219H765.734V142.621H764.211V132.855H759.953V138.188H752.043V126.957H759.953ZM753.566 128.168V136.957H758.469V128.168H753.566ZM774.836 130.551C774.836 133.5 776.984 136.488 779.543 137.602L778.684 138.812C776.652 137.885 774.895 135.883 774.094 133.48C773.273 136.029 771.525 138.246 769.543 139.242L768.625 138.031C771.105 136.84 773.273 133.559 773.293 130.551V128.285H769.191V127.016H778.977V128.285H774.836V130.551ZM782.941 125.219V142.582H781.398V125.219H782.941ZM806.828 139.066V140.355H790.93V139.066H798.078V134.828H792.805V126.684H804.855V134.828H799.582V139.066H806.828ZM794.309 127.914V133.598H803.371V127.914H794.309ZM824.055 133.988V135.238H808.215V133.988H824.055ZM822.238 130.805V132.074H810.227V125.98H822.082V127.23H811.75V130.805H822.238ZM822.375 140.902V142.191H810.266V137.113H811.789V140.902H822.375ZM524.562 167V152.859H533.137V154.422H526.32V159.148H532.688V160.691H526.32V165.438H533.234V167H524.562ZM535.129 154.422V152.859H545.793V154.422H541.359V167H539.582V154.422H535.129ZM548.137 167V152.859H556.652V154.422H549.895V159.148H556.008V160.691H549.895V167H548.137ZM559.484 161.609C559.504 157.918 560.5 154.852 562.297 152.254H563.781C562.453 154.188 561.223 158.133 561.223 161.609C561.223 165.086 562.453 169.051 563.781 170.984H562.297C560.5 168.367 559.504 165.301 559.484 161.609ZM579.543 151.219V168.621H578V151.219H579.543ZM570.305 152.566C572.883 152.586 574.738 154.93 574.738 158.621C574.738 162.312 572.883 164.656 570.305 164.656C567.707 164.656 565.871 162.312 565.871 158.621C565.871 154.93 567.707 152.586 570.305 152.566ZM570.305 153.934C568.566 153.953 567.355 155.789 567.355 158.621C567.355 161.453 568.566 163.289 570.305 163.289C572.043 163.289 573.254 161.453 573.254 158.621C573.254 155.789 572.043 153.953 570.305 153.934ZM595.949 151.219V158.387H598.859V159.656H595.949V168.582H594.426V151.219H595.949ZM592.746 154.012V155.281H582.414V154.012H586.887V151.434H588.41V154.012H592.746ZM587.668 156.727C590.129 156.727 591.906 158.367 591.926 160.711C591.906 163.055 590.129 164.695 587.668 164.695C585.188 164.695 583.391 163.055 583.41 160.711C583.391 158.367 585.188 156.727 587.668 156.727ZM587.668 158.016C586.047 158.016 584.855 159.148 584.875 160.711C584.855 162.293 586.047 163.406 587.668 163.387C589.27 163.406 590.441 162.293 590.461 160.711C590.441 159.148 589.27 158.016 587.668 158.016ZM619.172 151.219V168.582H617.629V151.219H619.172ZM614.035 153.113C614.016 158.113 611.691 162.527 605.871 165.32L605.031 164.07C609.729 161.844 612.121 158.514 612.473 154.363H605.832V153.113H614.035ZM631.008 152.801V154.09H624.406V157.684H630.617V158.934H624.406V163.133C627.531 163.133 629.729 163.006 632.336 162.566L632.512 163.836C629.797 164.285 627.512 164.383 624.23 164.402H622.863V152.801H631.008ZM635.539 151.219V158.211H638.449V159.52H635.539V168.582H634.016V151.219H635.539ZM640.246 167V152.859H648.82V154.422H642.004V159.148H648.371V160.691H642.004V165.438H648.918V167H640.246ZM650.812 154.422V152.859H661.477V154.422H657.043V167H655.266V154.422H650.812ZM663.82 167V152.859H672.336V154.422H665.578V159.148H671.691V160.691H665.578V167H663.82ZM678.43 161.609C678.41 165.301 677.414 168.367 675.617 170.984H674.133C675.461 169.051 676.691 165.086 676.691 161.609C676.691 158.133 675.461 154.188 674.133 152.254H675.617C677.414 154.852 678.41 157.918 678.43 161.609ZM695.793 151.219V168.582H694.309V151.219H695.793ZM692.297 151.59V167.703H690.832V159.266H688.605C688.439 162.645 687.004 164.754 684.855 164.754C682.59 164.754 681.125 162.41 681.125 158.719C681.125 155.027 682.59 152.684 684.855 152.684C686.965 152.684 688.391 154.725 688.586 157.996H690.832V151.59H692.297ZM684.855 154.129C683.449 154.129 682.551 155.887 682.57 158.719C682.551 161.531 683.449 163.309 684.855 163.289C686.262 163.309 687.16 161.531 687.16 158.719C687.16 155.887 686.262 154.129 684.855 154.129ZM718.059 151.219V168.582H716.594V159.48H714.035V167.684H712.629V151.609H714.035V158.211H716.594V151.219H718.059ZM710.363 153.348V154.617H705.383V162.977C707.775 162.967 709.436 162.879 711.359 162.488L711.496 163.777C709.406 164.207 707.629 164.285 704.973 164.285H703.859V153.348H710.363ZM729.172 154.227V155.477H720.461V154.227H724.074V151.746H725.598V154.227H729.172ZM724.816 156.648C727.004 156.648 728.566 158.289 728.586 160.594C728.566 162.918 727.004 164.578 724.816 164.578C722.648 164.578 721.086 162.918 721.086 160.594C721.086 158.289 722.648 156.648 724.816 156.648ZM724.816 157.938C723.449 157.957 722.453 159.07 722.453 160.594C722.453 162.137 723.449 163.25 724.816 163.23C726.203 163.25 727.219 162.137 727.219 160.594C727.219 159.07 726.203 157.957 724.816 157.938ZM735.285 151.219V168.582H733.82V159.812H731.516V167.723H730.07V151.648H731.516V158.543H733.82V151.219H735.285ZM743.898 155.887C743.898 159.031 745.91 162.195 748.43 163.348L747.512 164.598C745.539 163.582 743.908 161.502 743.137 159.031C742.365 161.629 740.734 163.855 738.762 164.91L737.766 163.68C740.305 162.43 742.336 159.09 742.336 155.887V152.723H743.898V155.887ZM752.18 151.219V168.621H750.656V158.406H746.535V157.156H750.656V151.219H752.18ZM769.113 156.492V157.723H757.219V151.863H758.742V156.492H769.113ZM770.949 160.086V161.336H755.051V160.086H770.949ZM769.211 166.883V168.152H757.121V163.113H758.645V166.883H769.211ZM793.273 165.086V166.355H777.375V165.086H784.523V161.336H779.25V152.449H780.793V155.594H789.816V152.449H791.32V161.336H786.027V165.086H793.273ZM780.793 160.086H789.816V156.844H780.793V160.086ZM810.539 161.121V162.391H806.34V168.582H804.797V162.391H800.344V168.582H798.762V162.391H794.641V161.121H810.539ZM802.551 151.922C806.203 151.922 808.664 153.387 808.664 155.711C808.664 158.016 806.203 159.48 802.551 159.461C798.898 159.48 796.438 158.016 796.438 155.711C796.438 153.387 798.898 151.922 802.551 151.922ZM802.551 153.172C799.836 153.172 798 154.168 798.02 155.711C798 157.254 799.836 158.23 802.551 158.23C805.246 158.23 807.102 157.254 807.102 155.711C807.102 154.168 805.246 153.172 802.551 153.172ZM826.301 151.219V168.582H824.758V151.219H826.301ZM821.164 153.113C821.145 158.113 818.82 162.527 813 165.32L812.16 164.07C816.857 161.844 819.25 158.514 819.602 154.363H812.961V153.113H821.164ZM842.805 151.219V156.512H845.422V157.801H842.805V163.934H841.262V151.219H842.805ZM838.117 152.566C838.117 157.039 834.914 160.359 829.914 161.922L829.25 160.691C833.41 159.393 836.125 156.912 836.457 153.855H829.973V152.566H838.117ZM843.605 166.922V168.211H831.926V162.645H833.449V166.922H843.605ZM539.543 185.812V187.043H523.703V185.812H530.871V183.781H525.715V178.039H537.57V179.27H527.219V182.531H537.688V183.781H532.355V185.812H539.543ZM531.613 188.312C535.344 188.312 537.57 189.445 537.59 191.438C537.57 193.449 535.344 194.562 531.613 194.582C527.863 194.562 525.617 193.449 525.617 191.438C525.617 189.445 527.863 188.312 531.613 188.312ZM531.613 189.523C528.82 189.523 527.16 190.246 527.18 191.438C527.16 192.648 528.82 193.352 531.613 193.352C534.367 193.352 536.047 192.648 536.047 191.438C536.047 190.246 534.367 189.523 531.613 189.523ZM554.562 177.219V182.512H557.18V183.801H554.562V190.031H553.039V177.219H554.562ZM555.363 192.922V194.211H543.703V188.703H545.207V192.922H555.363ZM545.871 178.449C548.469 178.449 550.422 180.207 550.441 182.727C550.422 185.246 548.469 187.004 545.871 187.004C543.273 187.004 541.301 185.246 541.32 182.727C541.301 180.207 543.273 178.449 545.871 178.449ZM545.871 179.797C544.152 179.797 542.805 181.008 542.824 182.727C542.805 184.445 544.152 185.656 545.871 185.656C547.629 185.656 548.938 184.445 548.938 182.727C548.938 181.008 547.629 179.797 545.871 179.797ZM565.539 177.961V180.461H570.598V177.961H572.121V185.52H564.035V177.961H565.539ZM565.539 184.27H570.598V181.652H565.539V184.27ZM576.867 177.219V180.988H579.484V182.277H576.867V186.203H575.344V177.219H576.867ZM576.867 187.023V191.223H567.336V193.137H577.512V194.387H565.832V190.051H575.344V188.254H565.793V187.023H576.867ZM585.754 180.676C585.754 182.59 587.102 184.543 589.328 185.383L588.527 186.555C586.857 185.91 585.656 184.67 585.031 183.176C584.387 184.836 583.146 186.311 581.438 187.043L580.598 185.852C582.883 184.855 584.289 182.609 584.289 180.676V178.312H585.754V180.676ZM595.324 177.238V187.961H593.859V183.176H591.555V187.414H590.109V177.57H591.555V181.906H593.859V177.238H595.324ZM589.582 188.352C593.176 188.352 595.422 189.484 595.422 191.457C595.422 193.41 593.176 194.543 589.582 194.543C585.969 194.543 583.742 193.41 583.762 191.457C583.742 189.484 585.969 188.352 589.582 188.352ZM589.582 189.523C586.926 189.523 585.266 190.246 585.285 191.457C585.266 192.648 586.926 193.352 589.582 193.352C592.219 193.352 593.879 192.648 593.898 191.457C593.879 190.246 592.219 189.523 589.582 189.523ZM611.438 177.238V182.961H614.055V184.25H611.438V190.246H609.914V177.238H611.438ZM608.254 179.367V180.617H597.902V179.367H602.316V177.238H603.84V179.367H608.254ZM603.078 181.574C605.559 181.574 607.238 182.844 607.258 184.816C607.238 186.77 605.559 188.02 603.078 188.02C600.578 188.02 598.879 186.77 598.898 184.816C598.879 182.844 600.578 181.574 603.078 181.574ZM603.078 182.785C601.438 182.785 600.344 183.586 600.363 184.816C600.344 186.047 601.438 186.828 603.078 186.809C604.699 186.828 605.793 186.047 605.812 184.816C605.793 183.586 604.699 182.785 603.078 182.785ZM612.238 192.922V194.211H600.578V189.211H602.082V192.922H612.238ZM634.484 177.219V194.621H632.941V177.219H634.484ZM625.246 178.566C627.824 178.586 629.68 180.93 629.68 184.621C629.68 188.312 627.824 190.656 625.246 190.656C622.648 190.656 620.812 188.312 620.812 184.621C620.812 180.93 622.648 178.586 625.246 178.566ZM625.246 179.934C623.508 179.953 622.297 181.789 622.297 184.621C622.297 187.453 623.508 189.289 625.246 189.289C626.984 189.289 628.195 187.453 628.195 184.621C628.195 181.789 626.984 179.953 625.246 179.934ZM651.789 188.488V194.582H650.266V189.777H640.109V188.488H651.789ZM651.789 177.219V187.551H650.266V177.219H651.789ZM642.414 178.273C645.051 178.254 646.965 179.953 646.965 182.355C646.965 184.797 645.051 186.477 642.414 186.477C639.777 186.477 637.863 184.797 637.863 182.355C637.863 179.953 639.777 178.254 642.414 178.273ZM642.414 179.582C640.637 179.582 639.348 180.715 639.367 182.355C639.348 184.016 640.637 185.168 642.414 185.148C644.172 185.168 645.461 184.016 645.461 182.355C645.461 180.715 644.172 179.582 642.414 179.582ZM669.621 177.219V194.582H668.137V177.219H669.621ZM666.125 177.59V193.703H664.66V185.266H662.434C662.268 188.645 660.832 190.754 658.684 190.754C656.418 190.754 654.953 188.41 654.953 184.719C654.953 181.027 656.418 178.684 658.684 178.684C660.793 178.684 662.219 180.725 662.414 183.996H664.66V177.59H666.125ZM658.684 180.129C657.277 180.129 656.379 181.887 656.398 184.719C656.379 187.531 657.277 189.309 658.684 189.289C660.09 189.309 660.988 187.531 660.988 184.719C660.988 181.887 660.09 180.129 658.684 180.129ZM691.887 177.219V194.582H690.422V185.48H687.863V193.684H686.457V177.609H687.863V184.211H690.422V177.219H691.887ZM684.191 179.348V180.617H679.211V188.977C681.604 188.967 683.264 188.879 685.188 188.488L685.324 189.777C683.234 190.207 681.457 190.285 678.801 190.285H677.688V179.348H684.191ZM703 180.227V181.477H694.289V180.227H697.902V177.746H699.426V180.227H703ZM698.645 182.648C700.832 182.648 702.395 184.289 702.414 186.594C702.395 188.918 700.832 190.578 698.645 190.578C696.477 190.578 694.914 188.918 694.914 186.594C694.914 184.289 696.477 182.648 698.645 182.648ZM698.645 183.938C697.277 183.957 696.281 185.07 696.281 186.594C696.281 188.137 697.277 189.25 698.645 189.23C700.031 189.25 701.047 188.137 701.047 186.594C701.047 185.07 700.031 183.957 698.645 183.938ZM709.113 177.219V194.582H707.648V185.812H705.344V193.723H703.898V177.648H705.344V184.543H707.648V177.219H709.113ZM726.262 179.152V180.051C726.242 181.418 726.242 183.723 725.754 186.945L724.211 186.809C724.68 183.898 724.719 181.789 724.719 180.402H717.434V179.152H726.262ZM721.711 184.113V189.387C723.635 189.318 725.607 189.191 727.414 188.977L727.492 190.129C723.84 190.695 719.758 190.773 716.652 190.754L716.457 189.484C717.6 189.475 718.869 189.465 720.207 189.426V184.113H721.711ZM730.031 177.219V184.484H732.844V185.812H730.031V194.582H728.508V177.219H730.031ZM739.074 182.16C739.074 184.914 740.422 187.902 742.727 189.27L741.848 190.461C740.178 189.445 738.977 187.59 738.371 185.48C737.727 187.785 736.438 189.768 734.699 190.832L733.723 189.68C736.125 188.273 737.59 185.188 737.59 182.219V178.859H739.074V182.16ZM748.801 177.219V194.582H747.316V177.219H748.801ZM745.207 177.59V193.703H743.762V184.758H740.812V183.449H743.762V177.59H745.207ZM761.555 184.719V185.988H757.746V189.406C759.445 189.338 761.154 189.221 762.766 189.035L762.883 190.188C759.035 190.754 754.836 190.812 751.516 190.812L751.301 189.523C752.814 189.523 754.494 189.514 756.223 189.465V185.988H752.629V178.879H761.477V180.129H754.133V184.719H761.555ZM765.441 177.219V194.621H763.918V177.219H765.441ZM777.102 178.957V181.398H781.359V177.219H782.883V194.621H781.359V187.453H777.102V190.188H769.191V178.957H777.102ZM770.715 180.168V188.957H775.617V180.168H770.715ZM777.102 186.184H781.359V182.668H777.102V186.184ZM788.625 191.691L787.102 197.004H785.656L786.73 191.691H788.625ZM811.809 191.047V192.316H795.91V191.047H803.02V186.789H804.523V191.047H811.809ZM804.562 179.738C804.562 182.648 808 185.188 811.027 185.715L810.344 186.984C807.697 186.447 804.904 184.65 803.781 182.141C802.639 184.641 799.865 186.447 797.219 186.984L796.535 185.715C799.562 185.188 802.961 182.648 802.961 179.738V178.41H804.562V179.738ZM829.035 185.676V186.945H813.195V185.676H829.035ZM827.082 189.035V194.68H825.559V190.285H814.953V189.035H827.082ZM827.219 182.492V183.742H815.207V177.902H827.062V179.152H816.73V182.492H827.219ZM835.637 182.16C835.637 184.914 836.984 187.902 839.289 189.27L838.41 190.461C836.74 189.445 835.539 187.59 834.934 185.48C834.289 187.785 833 189.768 831.262 190.832L830.285 189.68C832.688 188.273 834.152 185.188 834.152 182.219V178.859H835.637V182.16ZM845.363 177.219V194.582H843.879V177.219H845.363ZM841.77 177.59V193.703H840.324V184.758H837.375V183.449H840.324V177.59H841.77ZM526.105 204.117V206.812H530.949V204.117H532.453V207.496H536.555V203.219H538.098V212.711H536.555V208.785H532.453V212.066H524.582V204.117H526.105ZM526.105 210.816H530.949V208.023H526.105V210.816ZM528.449 213.551V215.68H536.555V213.551H538.078V220.348H526.906V213.551H528.449ZM528.449 219.078H536.555V216.91H528.449V219.078ZM546.789 206.031C546.789 208.395 548.586 210.562 551.105 211.422L550.266 212.633C548.342 211.93 546.828 210.494 546.066 208.688C545.324 210.729 543.781 212.34 541.75 213.121L540.93 211.891C543.527 210.914 545.266 208.59 545.285 205.914V204.117H546.789V206.031ZM554.562 203.219V207.75H557.18V209.039H554.562V213.785H553.039V203.219H554.562ZM548.996 214.234C552.57 214.234 554.719 215.387 554.719 217.379C554.719 219.41 552.57 220.543 548.996 220.543C545.422 220.543 543.234 219.41 543.234 217.379C543.234 215.387 545.422 214.234 548.996 214.234ZM548.996 215.465C546.379 215.465 544.758 216.188 544.777 217.379C544.758 218.609 546.379 219.312 548.996 219.332C551.633 219.312 553.234 218.609 553.234 217.379C553.234 216.188 551.633 215.465 548.996 215.465ZM565.402 204.879V209.117H569.172V204.879H570.598V216.246H563.938V204.879H565.402ZM565.402 214.977H569.172V210.367H565.402V214.977ZM578.176 203.219V220.582H576.691V211.383H574.27V219.703H572.805V203.59H574.27V210.113H576.691V203.219H578.176ZM594.172 203.219V207.75H596.77V209.039H594.172V213.59H592.629V203.219H594.172ZM588.586 213.922C592.121 213.922 594.309 215.152 594.309 217.223C594.309 219.332 592.121 220.543 588.586 220.543C585.031 220.543 582.824 219.332 582.824 217.223C582.824 215.152 585.031 213.922 588.586 213.922ZM588.586 215.191C585.969 215.172 584.328 215.953 584.328 217.223C584.328 218.512 585.969 219.312 588.586 219.312C591.184 219.312 592.824 218.512 592.824 217.223C592.824 215.953 591.184 215.172 588.586 215.191ZM589.094 204.547V205.816H582.883V210.914C586.398 210.895 588.43 210.787 590.754 210.309L590.91 211.578C588.488 212.066 586.398 212.164 582.727 212.164H581.379V204.547H589.094ZM613.762 217.047V218.316H597.863V217.047H604.973V212.789H606.477V217.047H613.762ZM606.516 205.738C606.516 208.648 609.953 211.188 612.98 211.715L612.297 212.984C609.65 212.447 606.857 210.65 605.734 208.141C604.592 210.641 601.818 212.447 599.172 212.984L598.488 211.715C601.516 211.188 604.914 208.648 604.914 205.738V204.41H606.516V205.738ZM630.988 211.676V212.945H615.148V211.676H630.988ZM629.035 215.035V220.68H627.512V216.285H616.906V215.035H629.035ZM629.172 208.492V209.742H617.16V203.902H629.016V205.152H618.684V208.492H629.172ZM637.59 208.16C637.59 210.914 638.938 213.902 641.242 215.27L640.363 216.461C638.693 215.445 637.492 213.59 636.887 211.48C636.242 213.785 634.953 215.768 633.215 216.832L632.238 215.68C634.641 214.273 636.105 211.188 636.105 208.219V204.859H637.59V208.16ZM647.316 203.219V220.582H645.832V203.219H647.316ZM643.723 203.59V219.703H642.277V210.758H639.328V209.449H642.277V203.59H643.723ZM665.617 217.145V218.434H649.719V217.145H656.867V213.863H651.711V208.512H662.102V205.777H651.672V204.508H663.605V209.762H653.234V212.594H664.016V213.863H658.371V217.145H665.617ZM687.902 212.418V213.668H680.832V217.066H679.309V213.668H672.004V212.418H687.902ZM686.125 218.922V220.211H674.035V215.465H675.559V218.922H686.125ZM675.656 203.785V206.012H684.25V203.785H685.773V210.719H674.133V203.785H675.656ZM675.656 209.469H684.25V207.184H675.656V209.469ZM705.188 213.59V214.82H701.008V220.582H699.484V214.82H694.992V220.582H693.449V214.82H689.289V213.59H705.188ZM703.254 203.902V208.355H692.785V210.523H703.625V211.793H691.242V207.164H701.691V205.172H691.203V203.902H703.254ZM716.945 210.719V211.988H713.137V215.406C714.836 215.338 716.545 215.221 718.156 215.035L718.273 216.188C714.426 216.754 710.227 216.812 706.906 216.812L706.691 215.523C708.205 215.523 709.885 215.514 711.613 215.465V211.988H708.02V204.879H716.867V206.129H709.523V210.719H716.945ZM720.832 203.219V220.621H719.309V203.219H720.832ZM737.805 204.977V206.715C737.785 208.844 737.785 211.227 737.16 214.723L735.598 214.547C736.262 211.227 736.262 208.785 736.262 206.715V206.246H725.559V204.977H737.805ZM739.699 216.852V218.121H723.879V216.852H730.09V210.641H731.594V216.852H739.699ZM752.062 214.879C752.062 216.412 752.883 218.043 754.543 218.98C756.184 217.955 757.062 216.227 757.062 214.879V213.922H758.566V214.879C758.566 216.656 759.875 218.453 762.102 219.215L761.34 220.348C759.602 219.732 758.381 218.521 757.785 217.066C757.248 218.473 756.184 219.801 754.582 220.484C752.893 219.84 751.818 218.561 751.301 217.105C750.686 218.512 749.484 219.723 747.824 220.348L747.043 219.215C749.23 218.395 750.559 216.539 750.578 214.879V213.922H752.062V214.879ZM760.52 203.238V213.16H758.996V203.238H760.52ZM751.145 204.254C753.781 204.254 755.695 205.895 755.695 208.316C755.695 210.699 753.781 212.34 751.145 212.34C748.508 212.34 746.594 210.699 746.594 208.316C746.594 205.895 748.508 204.254 751.145 204.254ZM751.145 205.562C749.367 205.543 748.078 206.695 748.098 208.316C748.078 209.918 749.367 211.051 751.145 211.07C752.902 211.051 754.191 209.918 754.191 208.316C754.191 206.695 752.902 205.543 751.145 205.562ZM768.137 204.566C770.5 204.586 772.199 206.607 772.453 209.859H776.34V203.219H777.863V220.621H776.34V211.129H772.473C772.287 214.527 770.559 216.656 768.137 216.656C765.578 216.656 763.781 214.312 763.781 210.621C763.781 206.93 765.578 204.586 768.137 204.566ZM768.137 205.934C766.418 205.953 765.246 207.789 765.246 210.621C765.246 213.453 766.418 215.289 768.137 215.289C769.836 215.289 771.027 213.453 771.027 210.621C771.027 207.789 769.836 205.953 768.137 205.934ZM796.652 217.066V218.355H780.754V217.066H784.699V212.379C783.215 211.607 782.316 210.357 782.316 208.785C782.316 206.09 784.953 204.332 788.664 204.312C792.375 204.332 795.012 206.09 795.012 208.785C795.012 210.328 794.143 211.568 792.707 212.34V217.066H796.652ZM788.664 205.582C785.812 205.562 783.801 206.852 783.801 208.785C783.801 210.719 785.812 212.027 788.664 212.027C791.496 212.027 793.527 210.719 793.527 208.785C793.527 206.852 791.496 205.562 788.664 205.582ZM786.203 217.066H791.164V212.926C790.412 213.131 789.572 213.238 788.664 213.238C787.775 213.238 786.945 213.141 786.203 212.945V217.066ZM799.875 219.117C799.191 219.117 798.605 218.551 798.625 217.848C798.605 217.164 799.191 216.598 799.875 216.598C800.559 216.598 801.125 217.164 801.125 217.848C801.125 218.551 800.559 219.117 799.875 219.117Z" fill="black"/>
<defs>
<filter id="filter0_d_491_291" x="0" y="6" width="431" height="278" filterUnits="userSpaceOnUse" color-interpolation-filters="sRGB">
<feFlood flood-opacity="0" result="BackgroundImageFix"/>
<feColorMatrix in="SourceAlpha" type="matrix" values="0 0 0 0 0 0 0 0 0 0 0 0 0 0 0 0 0 0 127 0" result="hardAlpha"/>
<feOffset dy="4"/>
<feGaussianBlur stdDeviation="2"/>
<feComposite in2="hardAlpha" operator="out"/>
<feColorMatrix type="matrix" values="0 0 0 0 0 0 0 0 0 0 0 0 0 0 0 0 0 0 0.25 0"/>
<feBlend mode="normal" in2="BackgroundImageFix" result="effect1_dropShadow_491_291"/>
<feBlend mode="normal" in="SourceGraphic" in2="effect1_dropShadow_491_291" result="shape"/>
</filter>
<filter id="filter1_d_491_291" x="0" y="4" width="431" height="92" filterUnits="userSpaceOnUse" color-interpolation-filters="sRGB">
<feFlood flood-opacity="0" result="BackgroundImageFix"/>
<feColorMatrix in="SourceAlpha" type="matrix" values="0 0 0 0 0 0 0 0 0 0 0 0 0 0 0 0 0 0 127 0" result="hardAlpha"/>
<feOffset dy="1"/>
<feGaussianBlur stdDeviation="2"/>
<feComposite in2="hardAlpha" operator="out"/>
<feColorMatrix type="matrix" values="0 0 0 0 0 0 0 0 0 0 0 0 0 0 0 0 0 0 0.25 0"/>
<feBlend mode="normal" in2="BackgroundImageFix" result="effect1_dropShadow_491_291"/>
<feBlend mode="normal" in="SourceGraphic" in2="effect1_dropShadow_491_291" result="shape"/>
</filter>
<filter id="filter2_d_491_291" x="475" y="6" width="431" height="278" filterUnits="userSpaceOnUse" color-interpolation-filters="sRGB">
<feFlood flood-opacity="0" result="BackgroundImageFix"/>
<feColorMatrix in="SourceAlpha" type="matrix" values="0 0 0 0 0 0 0 0 0 0 0 0 0 0 0 0 0 0 127 0" result="hardAlpha"/>
<feOffset dy="4"/>
<feGaussianBlur stdDeviation="2"/>
<feComposite in2="hardAlpha" operator="out"/>
<feColorMatrix type="matrix" values="0 0 0 0 0 0 0 0 0 0 0 0 0 0 0 0 0 0 0.25 0"/>
<feBlend mode="normal" in2="BackgroundImageFix" result="effect1_dropShadow_491_291"/>
<feBlend mode="normal" in="SourceGraphic" in2="effect1_dropShadow_491_291" result="shape"/>
</filter>
<filter id="filter3_d_491_291" x="475" y="4" width="431" height="92" filterUnits="userSpaceOnUse" color-interpolation-filters="sRGB">
<feFlood flood-opacity="0" result="BackgroundImageFix"/>
<feColorMatrix in="SourceAlpha" type="matrix" values="0 0 0 0 0 0 0 0 0 0 0 0 0 0 0 0 0 0 127 0" result="hardAlpha"/>
<feOffset dy="1"/>
<feGaussianBlur stdDeviation="2"/>
<feComposite in2="hardAlpha" operator="out"/>
<feColorMatrix type="matrix" values="0 0 0 0 0 0 0 0 0 0 0 0 0 0 0 0 0 0 0.25 0"/>
<feBlend mode="normal" in2="BackgroundImageFix" result="effect1_dropShadow_491_291"/>
<feBlend mode="normal" in="SourceGraphic" in2="effect1_dropShadow_491_291" result="shape"/>
</filter>
</defs>
</svg>
