<svg width="902" height="206" viewBox="0 0 902 206" fill="none" xmlns="http://www.w3.org/2000/svg">
<g filter="url(#filter0_d_602_292)">
<rect x="4" y="22" width="427" height="166" rx="40" fill="#F5F5F5"/>
</g>
<path d="M65.0078 56.2305V67.9355H61.7832V56.2305H65.0078ZM65.0332 68.9258V75.1973H52.7441V76.6191H65.668V79.1836H49.5703V72.7852H61.8086V71.4395H49.5195V68.9258H65.0332ZM54.5469 58.5156C54.5215 61.3086 56.1973 64 59.9805 65.0918L58.4062 67.5801C55.7529 66.8057 53.9248 65.2061 52.8965 63.1621C51.8301 65.3965 49.9385 67.1738 47.1836 67.9863L45.584 65.4473C49.4434 64.3047 51.1699 61.3848 51.1699 58.5156V56.7383H54.5469V58.5156ZM89.2305 65.3965V67.9609H80.293V69.4336H86.666V75.3496H73.793V76.7461H87.2754V79.1836H70.6191V73.0645H83.4668V71.8711H70.5938V69.4336H77.043V67.9609H68.1562V65.3965H89.2305ZM86.5645 56.8906V64.1777H70.7715V56.8906H86.5645ZM73.9453 59.4043V61.6895H83.3398V59.4043H73.9453ZM111.701 67.6816V70.2969H90.627V67.6816H99.5137V65.7266H93.3184V56.7891H96.5176V58.8965H105.785V56.7891H109.01V65.7266H102.764V67.6816H111.701ZM109.137 71.8711V79.3359H105.912V74.4355H92.9629V71.8711H109.137ZM96.5176 63.1875H105.785V61.2832H96.5176V63.1875ZM133.08 56.2305V79.3359H130.008V56.2305H133.08ZM128.357 56.6113V78.2695H125.311V66.7676H122.264V64.1523H125.311V56.6113H128.357ZM120.41 62.4258C120.41 66.2598 121.604 70.1445 124.98 72.0742L123.076 74.4609C121.02 73.2422 119.661 71.1729 118.887 68.6973C118.087 71.3887 116.69 73.6738 114.57 74.9688L112.615 72.582C116.018 70.5 117.287 66.3359 117.287 62.4258V61.1816H113.504V58.5918H123.914V61.1816H120.41V62.4258Z" fill="#0249FF"/>
<path d="M60.0586 102.219V119.582H58.5156V102.219H60.0586ZM54.9219 104.113C54.9023 109.113 52.5781 113.527 46.7578 116.32L45.918 115.07C50.6152 112.844 53.0078 109.514 53.3594 105.363H46.7188V104.113H54.9219ZM78.8867 116.105V117.395H62.9883V116.105H70.1562V112.121H71.6602V116.105H78.8867ZM77.3633 104.992V106.262H71.6992C71.709 108.986 74.5996 110.988 77.9297 111.535L77.3438 112.746C74.5605 112.248 72.0117 110.852 70.918 108.684C69.8145 110.852 67.2656 112.248 64.4727 112.746L63.8672 111.535C67.2168 110.988 70.127 108.986 70.1367 106.262H64.4727V104.992H70.1562V102.59H71.6602V104.992H77.3633ZM86.4844 107.551C86.4844 110.5 88.6328 113.488 91.1914 114.602L90.332 115.812C88.3008 114.885 86.543 112.883 85.7422 110.48C84.9219 113.029 83.1738 115.246 81.1914 116.242L80.2734 115.031C82.7539 113.84 84.9219 110.559 84.9414 107.551V105.285H80.8398V104.016H90.625V105.285H86.4844V107.551ZM94.5898 102.219V119.582H93.0469V102.219H94.5898ZM106.27 103.84C106.27 106.281 109.473 108.41 112.598 108.84L111.973 110.09C109.277 109.641 106.611 108.146 105.488 106.008C104.375 108.156 101.699 109.641 99.0039 110.09L98.3789 108.84C101.504 108.41 104.688 106.32 104.688 103.84V102.844H106.27V103.84ZM113.379 112.004V113.293H106.191V119.582H104.688V113.293H97.5586V112.004H113.379ZM130.723 110.285V111.496H114.824V110.285H130.723ZM128.73 112.883V116.574H118.301V118.234H129.297V119.348H116.758V115.52H127.207V114.035H116.738V112.883H128.73ZM128.672 102.746V106.34H118.418V107.863H128.984V108.977H116.895V105.285H127.129V103.859H116.836V102.746H128.672ZM150.84 104.074V105.812C150.84 108 150.84 110.48 150.195 114.25L148.633 114.094C149.336 110.539 149.336 107.941 149.336 105.812V105.344H138.867V104.074H150.84ZM152.969 115.754V117.023H137.148V115.754H152.969ZM169.277 102.219V119.582H167.812V110.48H165.254V118.684H163.848V102.609H165.254V109.211H167.812V102.219H169.277ZM161.582 104.348V105.617H156.602V113.977C158.994 113.967 160.654 113.879 162.578 113.488L162.715 114.777C160.625 115.207 158.848 115.285 156.191 115.285H155.078V104.348H161.582ZM187.617 116.145V117.434H171.719V116.145H178.867V112.863H173.711V107.512H184.102V104.777H173.672V103.508H185.605V108.762H175.234V111.594H186.016V112.863H180.371V116.145H187.617ZM207.754 102.199V109.055H210.293V110.363H207.754V119.582H206.23V102.199H207.754ZM198.965 104.055V105.324H196.074V113.723C196.934 113.703 197.988 113.625 199.141 113.371L199.297 114.66C197.656 115.012 196.348 115.031 195.312 115.031H194.551V104.055H198.965ZM204.59 104.055V105.324H201.484V113.742C202.842 113.723 203.926 113.635 205.156 113.332L205.312 114.621C203.789 114.992 202.559 115.031 200.801 115.031H199.961V104.055H204.59ZM224.746 102.219V109.133H227.656V110.422H224.746V119.621H223.223V102.219H224.746ZM219.883 103.84V110.051H213.555V114.113C216.777 114.113 219.023 114.006 221.66 113.508L221.816 114.777C219.082 115.285 216.758 115.402 213.418 115.422H212.031V108.781H218.359V105.109H211.992V103.84H219.883ZM242.031 102.219V109.289H244.844V110.578H242.031V119.582H240.508V102.219H242.031ZM237.539 104.094C237.539 109.016 235.234 113.488 229.57 116.281L228.711 115.07C233.203 112.834 235.645 109.494 235.996 105.383H229.512V104.094H237.539ZM260.234 102.219V119.582H258.691V102.219H260.234ZM255.098 104.113C255.078 109.113 252.754 113.527 246.934 116.32L246.094 115.07C250.791 112.844 253.184 109.514 253.535 105.363H246.895V104.113H255.098ZM273.906 103.078C276.504 103.059 278.359 104.484 278.359 106.613C278.359 108.723 276.504 110.188 273.906 110.168C271.309 110.188 269.453 108.723 269.453 106.613C269.453 104.484 271.309 103.059 273.906 103.078ZM273.906 104.328C272.168 104.309 270.938 105.266 270.957 106.613C270.938 107.98 272.168 108.918 273.906 108.898C275.664 108.918 276.895 107.98 276.895 106.613C276.895 105.266 275.664 104.309 273.906 104.328ZM282.5 102.238V119.602H280.996V102.238H282.5ZM268.145 111.652C271.406 111.652 275.859 111.594 279.727 111.027L279.824 112.18C278.164 112.482 276.436 112.668 274.766 112.766V119.055H273.242V112.863C271.475 112.941 269.805 112.951 268.359 112.961L268.145 111.652ZM294.141 105.227V106.477H285.43V105.227H289.043V102.746H290.566V105.227H294.141ZM289.785 107.648C291.973 107.648 293.535 109.289 293.555 111.594C293.535 113.918 291.973 115.578 289.785 115.578C287.617 115.578 286.055 113.918 286.055 111.594C286.055 109.289 287.617 107.648 289.785 107.648ZM289.785 108.938C288.418 108.957 287.422 110.07 287.422 111.594C287.422 113.137 288.418 114.25 289.785 114.23C291.172 114.25 292.188 113.137 292.188 111.594C292.188 110.07 291.172 108.957 289.785 108.938ZM300.254 102.219V119.582H298.789V110.812H296.484V118.723H295.039V102.648H296.484V109.543H298.789V102.219H300.254ZM322.09 102.219V111.223H320.586V102.219H322.09ZM322.109 112.102V116.262H312.363V118.137H322.734V119.387H310.859V115.07H320.586V113.332H310.82V112.102H322.109ZM313.926 104.055C313.906 106.516 315.781 108.684 318.359 109.523L317.598 110.715C315.566 110.021 313.945 108.566 313.164 106.691C312.383 108.713 310.752 110.305 308.691 111.047L307.891 109.836C310.508 108.918 312.363 106.613 312.363 104.055V102.727H313.926V104.055ZM339.902 102.219V119.582H338.438V102.219H339.902ZM336.387 102.648V118.684H334.941V109.738H332.012V108.488H334.941V102.648H336.387ZM330.156 107.18C330.156 110.188 331.504 113.176 333.906 114.562L332.969 115.695C331.26 114.67 330.049 112.795 329.453 110.578C328.818 112.971 327.559 115.012 325.82 116.105L324.844 114.953C327.266 113.508 328.672 110.344 328.672 107.18V105.539H325.332V104.27H333.34V105.539H330.156V107.18ZM356.035 105.227V106.477H347.324V105.227H350.938V102.746H352.461V105.227H356.035ZM351.68 107.648C353.867 107.648 355.43 109.289 355.449 111.594C355.43 113.918 353.867 115.578 351.68 115.578C349.512 115.578 347.949 113.918 347.949 111.594C347.949 109.289 349.512 107.648 351.68 107.648ZM351.68 108.938C350.312 108.957 349.316 110.07 349.316 111.594C349.316 113.137 350.312 114.25 351.68 114.23C353.066 114.25 354.082 113.137 354.082 111.594C354.082 110.07 353.066 108.957 351.68 108.938ZM362.148 102.219V119.582H360.684V110.812H358.379V118.723H356.934V102.648H358.379V109.543H360.684V102.219H362.148ZM378.242 102.219V106.75H380.84V108.039H378.242V112.59H376.699V102.219H378.242ZM372.656 112.922C376.191 112.922 378.379 114.152 378.379 116.223C378.379 118.332 376.191 119.543 372.656 119.543C369.102 119.543 366.895 118.332 366.895 116.223C366.895 114.152 369.102 112.922 372.656 112.922ZM372.656 114.191C370.039 114.172 368.398 114.953 368.398 116.223C368.398 117.512 370.039 118.312 372.656 118.312C375.254 118.312 376.895 117.512 376.895 116.223C376.895 114.953 375.254 114.172 372.656 114.191ZM373.164 103.547V104.816H366.953V109.914C370.469 109.895 372.5 109.787 374.824 109.309L374.98 110.578C372.559 111.066 370.469 111.164 366.797 111.164H365.449V103.547H373.164ZM51.9141 133.551C51.9141 136.5 54.0625 139.488 56.6211 140.602L55.7617 141.812C53.7305 140.885 51.9727 138.883 51.1719 136.48C50.3516 139.029 48.6035 141.246 46.6211 142.242L45.7031 141.031C48.1836 139.84 50.3516 136.559 50.3711 133.551V131.285H46.2695V130.016H56.0547V131.285H51.9141V133.551ZM60.0195 128.219V145.582H58.4766V128.219H60.0195ZM71.6992 129.84C71.6992 132.281 74.9023 134.41 78.0273 134.84L77.4023 136.09C74.707 135.641 72.041 134.146 70.918 132.008C69.8047 134.156 67.1289 135.641 64.4336 136.09L63.8086 134.84C66.9336 134.41 70.1172 132.32 70.1172 129.84V128.844H71.6992V129.84ZM78.8086 138.004V139.293H71.6211V145.582H70.1172V139.293H62.9883V138.004H78.8086ZM85.957 129.488C88.6914 129.488 90.625 131.148 90.625 133.57C90.625 135.992 88.6914 137.652 85.957 137.652C83.2227 137.652 81.25 135.992 81.2695 133.57C81.25 131.148 83.2227 129.488 85.957 129.488ZM85.957 130.836C84.1016 130.836 82.7539 131.949 82.7734 133.57C82.7539 135.191 84.1016 136.305 85.957 136.305C87.793 136.305 89.1211 135.191 89.1211 133.57C89.1211 131.949 87.793 130.836 85.957 130.836ZM94.5117 128.219V145.621H92.9883V128.219H94.5117ZM80.3711 140.484C83.5742 140.484 87.9883 140.465 91.8359 139.898L91.9531 141.031C87.9883 141.773 83.7109 141.793 80.5859 141.793L80.3711 140.484ZM116.309 129.352V130.875C116.309 132.525 116.309 134.312 115.82 136.812H118.398V138.082H111.23V145.621H109.688V138.082H102.578V136.812H114.258C114.785 134.312 114.785 132.486 114.785 130.875V130.621H104.57V129.352H116.309ZM125.84 130.953C125.82 133.434 127.578 135.621 130.137 136.48L129.277 137.672C127.363 136.949 125.859 135.543 125.117 133.707C124.365 135.787 122.773 137.408 120.684 138.199L119.844 136.949C122.52 136.012 124.297 133.707 124.316 131.012V129.215H125.84V130.953ZM134.258 128.219V138.512H132.715V133.219H128.848V131.949H132.715V128.219H134.258ZM128.496 139.02C132.109 139.02 134.316 140.211 134.316 142.301C134.316 144.371 132.109 145.543 128.496 145.543C124.883 145.543 122.676 144.371 122.676 142.301C122.676 140.211 124.883 139.02 128.496 139.02ZM128.496 140.23C125.84 140.23 124.18 141.012 124.199 142.301C124.18 143.551 125.84 144.312 128.496 144.312C131.152 144.312 132.793 143.551 132.793 142.301C132.793 141.012 131.152 140.23 128.496 140.23ZM150.82 134.391V136.871H157.988V138.141H142.168V136.871H149.316V134.391H150.82ZM150.078 139.566C153.809 139.566 156.035 140.621 156.055 142.555C156.035 144.488 153.809 145.543 150.078 145.543C146.309 145.543 144.082 144.488 144.082 142.555C144.082 140.621 146.309 139.566 150.078 139.566ZM150.078 140.777C147.266 140.777 145.625 141.422 145.645 142.555C145.625 143.688 147.266 144.352 150.078 144.352C152.852 144.352 154.512 143.688 154.512 142.555C154.512 141.422 152.852 140.777 150.078 140.777ZM156.582 129.039V130.289H151.074C151.172 132.223 154.082 133.717 157.109 134.039L156.543 135.25C153.701 134.908 151.035 133.668 150.078 131.734C149.131 133.668 146.475 134.908 143.613 135.25L143.047 134.039C146.074 133.717 148.965 132.242 149.082 130.289H143.613V129.039H156.582ZM173.262 128.961V134.82H168.125V137.047H175.273V138.297H159.453V137.047H166.602V134.82H161.504V128.961H173.262ZM163.008 130.191V133.59H171.738V130.191H163.008ZM173.32 140.113V145.582H171.777V141.344H161.211V140.113H173.32ZM192.578 135.523V136.754H176.738V135.523H192.578ZM190.684 132.848V134.098H178.848V128.824H190.508V130.055H180.391V132.848H190.684ZM190.527 138.316V142.34H180.215V144.137H191.055V145.387H178.691V141.188H189.023V139.508H178.652V138.316H190.527ZM201.934 128.531C205.801 128.531 208.066 129.586 208.066 131.52C208.066 133.492 205.801 134.547 201.934 134.566C198.066 134.547 195.781 133.492 195.781 131.52C195.781 129.586 198.066 128.531 201.934 128.531ZM201.934 129.684C199.043 129.684 197.363 130.387 197.383 131.52C197.363 132.73 199.043 133.395 201.934 133.395C204.805 133.395 206.504 132.73 206.504 131.52C206.504 130.387 204.805 129.684 201.934 129.684ZM209.844 135.738V136.988H194.023V135.738H209.844ZM207.812 138.492V142.379H197.5V144.176H208.34V145.387H195.977V141.246H206.309V139.664H195.938V138.492H207.812ZM231.211 128.219V145.582H229.727V136.383H227.305V144.703H225.84V128.59H227.305V135.113H229.727V128.219H231.211ZM223.613 130.25V140.914H216.973V130.25H223.613ZM218.418 131.48V139.684H222.168V131.48H218.418ZM247.949 128.219V137.535H246.426V128.219H247.949ZM238.223 138.414V140.523H246.426V138.414H247.949V145.348H236.699V138.414H238.223ZM238.223 144.098H246.426V141.754H238.223V144.098ZM238.574 129.078C241.211 129.059 243.125 130.68 243.125 133.062C243.125 135.426 241.211 137.047 238.574 137.047C235.938 137.047 234.023 135.426 234.023 133.062C234.023 130.68 235.938 129.059 238.574 129.078ZM238.574 130.367C236.797 130.348 235.508 131.48 235.527 133.062C235.508 134.645 236.797 135.777 238.574 135.777C240.332 135.777 241.621 134.645 241.621 133.062C241.621 131.48 240.332 130.348 238.574 130.367ZM264.473 128.219V132.672H267.09V133.98H264.473V138.316H262.949V128.219H264.473ZM255.02 139.078V140.934H262.949V139.078H264.473V145.348H253.496V139.078H255.02ZM255.02 144.117H262.949V142.145H255.02V144.117ZM261.289 130.016V131.285H250.938V130.016H255.352V128.062H256.875V130.016H261.289ZM256.113 132.086C258.613 132.086 260.273 133.277 260.293 135.133C260.273 136.988 258.613 138.18 256.113 138.18C253.594 138.18 251.914 136.988 251.934 135.133C251.914 133.277 253.594 132.086 256.113 132.086ZM256.113 133.277C254.473 133.258 253.379 134.02 253.398 135.133C253.379 136.266 254.473 137.008 256.113 137.008C257.734 137.008 258.828 136.266 258.848 135.133C258.828 134.02 257.734 133.258 256.113 133.277ZM282.5 128.219V145.582H280.977V128.219H282.5ZM270.82 129.938V139.781C273.467 139.771 276.211 139.557 279.121 138.941L279.336 140.25C276.25 140.895 273.496 141.109 270.723 141.109H269.316V129.938H270.82ZM298.906 128.219V135.094H301.816V136.383H298.906V145.621H297.383V128.219H298.906ZM294.336 129.918V131.188H287.754V139.977C290.898 139.977 293.125 139.83 295.703 139.352L295.898 140.68C293.184 141.168 290.898 141.266 287.598 141.266H286.23V129.918H294.336ZM304.59 144.117C303.906 144.117 303.32 143.551 303.34 142.848C303.32 142.164 303.906 141.598 304.59 141.598C305.273 141.598 305.84 142.164 305.84 142.848C305.84 143.551 305.273 144.117 304.59 144.117Z" fill="black"/>
<g filter="url(#filter1_d_602_292)">
<rect x="468" y="22" width="427" height="166" rx="40" fill="#F5F5F5"/>
</g>
<path d="M524.018 56.2305V61.791H527.141V64.4824H524.018V69.7637H520.768V56.2305H524.018ZM512.109 70.6523V72.4043H520.768V70.6523H524.018V79.082H508.885V70.6523H512.109ZM512.109 76.543H520.768V74.8926H512.109V76.543ZM519.396 58.2617V60.8008H505.686V58.2617H510.941V56.0781H514.166V58.2617H519.396ZM512.541 61.4609C515.893 61.4609 518.229 63.0859 518.229 65.5488C518.229 68.0117 515.893 69.6367 512.541 69.6367C509.139 69.6367 506.803 68.0117 506.803 65.5488C506.803 63.0859 509.139 61.4609 512.541 61.4609ZM512.541 63.8477C510.992 63.8223 509.951 64.457 509.977 65.5488C509.951 66.666 510.992 67.2754 512.541 67.2754C514.09 67.2754 515.156 66.666 515.156 65.5488C515.156 64.457 514.09 63.8223 512.541 63.8477ZM536.891 59.3789C536.865 62.4766 538.465 65.3203 542.172 66.4629L540.471 69.002C537.982 68.1387 536.294 66.5391 535.342 64.457C534.301 66.8691 532.435 68.7734 529.654 69.7129L527.953 67.123C531.914 65.8535 533.59 62.7559 533.615 59.5312V57.4238H536.891V59.3789ZM547.631 56.2305V69.7637H544.406V63.1113H540.064V60.4707H544.406V56.2305H547.631ZM539.734 70.373C544.66 70.373 547.682 72.0234 547.707 74.8672C547.682 77.7109 544.66 79.3359 539.734 79.3359C534.809 79.3359 531.787 77.7109 531.787 74.8672C531.787 72.0234 534.809 70.373 539.734 70.373ZM539.734 72.8867C536.662 72.8867 535.012 73.5469 535.012 74.8672C535.012 76.1367 536.662 76.8223 539.734 76.8223C542.807 76.8223 544.482 76.1367 544.482 74.8672C544.482 73.5469 542.807 72.8867 539.734 72.8867ZM571.701 67.6816V70.2969H550.627V67.6816H559.514V65.7266H553.318V56.7891H556.518V58.8965H565.785V56.7891H569.01V65.7266H562.764V67.6816H571.701ZM569.137 71.8711V79.3359H565.912V74.4355H552.963V71.8711H569.137ZM556.518 63.1875H565.785V61.2832H556.518V63.1875ZM593.08 56.2305V79.3359H590.008V56.2305H593.08ZM588.357 56.6113V78.2695H585.311V66.7676H582.264V64.1523H585.311V56.6113H588.357ZM580.41 62.4258C580.41 66.2598 581.604 70.1445 584.98 72.0742L583.076 74.4609C581.02 73.2422 579.661 71.1729 578.887 68.6973C578.087 71.3887 576.69 73.6738 574.57 74.9688L572.615 72.582C576.018 70.5 577.287 66.3359 577.287 62.4258V61.1816H573.504V58.5918H583.914V61.1816H580.41V62.4258Z" fill="#0249FF"/>
<path d="M514.375 105.227V106.477H505.664V105.227H509.277V102.746H510.801V105.227H514.375ZM510.02 107.648C512.207 107.648 513.77 109.289 513.789 111.594C513.77 113.918 512.207 115.578 510.02 115.578C507.852 115.578 506.289 113.918 506.289 111.594C506.289 109.289 507.852 107.648 510.02 107.648ZM510.02 108.938C508.652 108.957 507.656 110.07 507.656 111.594C507.656 113.137 508.652 114.25 510.02 114.23C511.406 114.25 512.422 113.137 512.422 111.594C512.422 110.07 511.406 108.957 510.02 108.938ZM520.488 102.219V119.582H519.023V110.812H516.719V118.723H515.273V102.648H516.719V109.543H519.023V102.219H520.488ZM536.582 102.219V106.75H539.18V108.039H536.582V112.59H535.039V102.219H536.582ZM530.996 112.922C534.531 112.922 536.719 114.152 536.719 116.223C536.719 118.332 534.531 119.543 530.996 119.543C527.441 119.543 525.234 118.332 525.234 116.223C525.234 114.152 527.441 112.922 530.996 112.922ZM530.996 114.191C528.379 114.172 526.738 114.953 526.738 116.223C526.738 117.512 528.379 118.312 530.996 118.312C533.594 118.312 535.234 117.512 535.234 116.223C535.234 114.953 533.594 114.172 530.996 114.191ZM531.504 103.547V104.816H525.293V109.914C528.809 109.895 530.84 109.787 533.164 109.309L533.32 110.578C530.898 111.066 528.809 111.164 525.137 111.164H523.789V103.547H531.504ZM551.504 107.551C551.504 110.5 553.652 113.488 556.211 114.602L555.352 115.812C553.32 114.885 551.562 112.883 550.762 110.48C549.941 113.029 548.193 115.246 546.211 116.242L545.293 115.031C547.773 113.84 549.941 110.559 549.961 107.551V105.285H545.859V104.016H555.645V105.285H551.504V107.551ZM559.609 102.219V119.582H558.066V102.219H559.609ZM571.289 103.84C571.289 106.281 574.492 108.41 577.617 108.84L576.992 110.09C574.297 109.641 571.631 108.146 570.508 106.008C569.395 108.156 566.719 109.641 564.023 110.09L563.398 108.84C566.523 108.41 569.707 106.32 569.707 103.84V102.844H571.289V103.84ZM578.398 112.004V113.293H571.211V119.582H569.707V113.293H562.578V112.004H578.398ZM585.547 103.488C588.281 103.488 590.215 105.148 590.215 107.57C590.215 109.992 588.281 111.652 585.547 111.652C582.812 111.652 580.84 109.992 580.859 107.57C580.84 105.148 582.812 103.488 585.547 103.488ZM585.547 104.836C583.691 104.836 582.344 105.949 582.363 107.57C582.344 109.191 583.691 110.305 585.547 110.305C587.383 110.305 588.711 109.191 588.711 107.57C588.711 105.949 587.383 104.836 585.547 104.836ZM594.102 102.219V119.621H592.578V102.219H594.102ZM579.961 114.484C583.164 114.484 587.578 114.465 591.426 113.898L591.543 115.031C587.578 115.773 583.301 115.793 580.176 115.793L579.961 114.484ZM610.879 103.84C610.879 106.281 614.082 108.41 617.207 108.84L616.582 110.09C613.887 109.641 611.221 108.146 610.098 106.008C608.984 108.156 606.309 109.641 603.613 110.09L602.988 108.84C606.113 108.41 609.297 106.32 609.297 103.84V102.844H610.879V103.84ZM617.988 112.004V113.293H610.801V119.582H609.297V113.293H602.168V112.004H617.988ZM633.789 113.488V119.582H632.266V114.777H622.109V113.488H633.789ZM633.789 102.219V112.551H632.266V102.219H633.789ZM624.414 103.273C627.051 103.254 628.965 104.953 628.965 107.355C628.965 109.797 627.051 111.477 624.414 111.477C621.777 111.477 619.863 109.797 619.863 107.355C619.863 104.953 621.777 103.254 624.414 103.273ZM624.414 104.582C622.637 104.582 621.348 105.715 621.367 107.355C621.348 109.016 622.637 110.168 624.414 110.148C626.172 110.168 627.461 109.016 627.461 107.355C627.461 105.715 626.172 104.582 624.414 104.582ZM652.617 110.148V111.34H648.32V112.922H650.625V116.613H640.195V118.273H651.191V119.387H638.652V115.539H649.102V114.055H638.633V112.922H641.035V111.34H636.719V110.148H652.617ZM650.566 102.746V106.32H640.312V107.805H650.879V108.918H638.789V105.285H649.023V103.84H638.73V102.746H650.566ZM642.539 112.922H646.797V111.34H642.539V112.922ZM661.934 102.531C665.801 102.531 668.066 103.586 668.066 105.52C668.066 107.492 665.801 108.547 661.934 108.566C658.066 108.547 655.781 107.492 655.781 105.52C655.781 103.586 658.066 102.531 661.934 102.531ZM661.934 103.684C659.043 103.684 657.363 104.387 657.383 105.52C657.363 106.73 659.043 107.395 661.934 107.395C664.805 107.395 666.504 106.73 666.504 105.52C666.504 104.387 664.805 103.684 661.934 103.684ZM669.844 109.738V110.988H654.023V109.738H669.844ZM667.812 112.492V116.379H657.5V118.176H668.34V119.387H655.977V115.246H666.309V113.664H655.938V112.492H667.812ZM690.82 113.176V114.445H680.977V118.098H691.074V119.348H679.434V113.176H690.82ZM690.723 102.219V112.199H689.18V107.902H685.566C685.254 109.982 683.447 111.398 681.113 111.418C678.516 111.398 676.602 109.699 676.602 107.297C676.602 104.875 678.516 103.156 681.113 103.176C683.428 103.156 685.205 104.562 685.547 106.613H689.18V102.219H690.723ZM681.113 104.484C679.336 104.465 678.066 105.637 678.066 107.297C678.066 108.918 679.336 110.09 681.113 110.09C682.812 110.09 684.121 108.918 684.121 107.297C684.121 105.637 682.812 104.465 681.113 104.484ZM707.969 102.219V119.582H706.426V102.219H707.969ZM702.832 104.113C702.812 109.113 700.488 113.527 694.668 116.32L693.828 115.07C698.525 112.844 700.918 109.514 701.27 105.363H694.629V104.113H702.832ZM721.641 103.078C724.238 103.059 726.094 104.484 726.094 106.613C726.094 108.723 724.238 110.188 721.641 110.168C719.043 110.188 717.188 108.723 717.188 106.613C717.188 104.484 719.043 103.059 721.641 103.078ZM721.641 104.328C719.902 104.309 718.672 105.266 718.691 106.613C718.672 107.98 719.902 108.918 721.641 108.898C723.398 108.918 724.629 107.98 724.629 106.613C724.629 105.266 723.398 104.309 721.641 104.328ZM730.234 102.238V119.602H728.73V102.238H730.234ZM715.879 111.652C719.141 111.652 723.594 111.594 727.461 111.027L727.559 112.18C725.898 112.482 724.17 112.668 722.5 112.766V119.055H720.977V112.863C719.209 112.941 717.539 112.951 716.094 112.961L715.879 111.652ZM741.875 105.227V106.477H733.164V105.227H736.777V102.746H738.301V105.227H741.875ZM737.52 107.648C739.707 107.648 741.27 109.289 741.289 111.594C741.27 113.918 739.707 115.578 737.52 115.578C735.352 115.578 733.789 113.918 733.789 111.594C733.789 109.289 735.352 107.648 737.52 107.648ZM737.52 108.938C736.152 108.957 735.156 110.07 735.156 111.594C735.156 113.137 736.152 114.25 737.52 114.23C738.906 114.25 739.922 113.137 739.922 111.594C739.922 110.07 738.906 108.957 737.52 108.938ZM747.988 102.219V119.582H746.523V110.812H744.219V118.723H742.773V102.648H744.219V109.543H746.523V102.219H747.988ZM764.277 104.68C764.258 107.004 767.363 108.977 770.391 109.426L769.824 110.637C767.109 110.178 764.473 108.732 763.418 106.633C762.363 108.732 759.717 110.178 757.051 110.637L756.445 109.426C759.453 108.977 762.559 107.004 762.559 104.68V104.562H756.992V103.312H769.824V104.562H764.277V104.68ZM771.328 112.121V113.391H764.141V119.582H762.637V113.391H755.508V112.121H771.328ZM778.945 104.738C778.926 107.277 780.762 109.523 783.34 110.422L782.559 111.633C780.547 110.9 778.955 109.396 778.184 107.473C777.412 109.533 775.801 111.154 773.77 111.945L772.969 110.734C775.566 109.777 777.383 107.355 777.383 104.738V103.078H778.945V104.738ZM787.129 113.547V119.582H785.605V114.816H775.449V113.547H787.129ZM787.129 102.219V112.688H785.605V102.219H787.129ZM809.941 102.219V119.582H808.477V110.48H805.918V118.684H804.512V102.609H805.918V109.211H808.477V102.219H809.941ZM802.246 104.348V105.617H797.266V113.977C799.658 113.967 801.318 113.879 803.242 113.488L803.379 114.777C801.289 115.207 799.512 115.285 796.855 115.285H795.742V104.348H802.246ZM826.719 102.238V114.973H825.195V102.238H826.719ZM827.266 117.922V119.211H815.508V113.801H817.031V117.922H827.266ZM818.535 104.953C818.516 107.59 820.332 109.973 822.91 110.91L822.109 112.141C820.098 111.369 818.535 109.807 817.773 107.805C817.002 109.934 815.42 111.643 813.398 112.453L812.559 111.262C815.195 110.246 816.973 107.688 816.973 104.953V103.215H818.535V104.953ZM844.668 104.113V105.383H842.734V113.742C843.672 113.674 844.6 113.596 845.488 113.488L845.566 114.621C841.895 115.207 837.734 115.266 834.668 115.285L834.473 113.977L836.816 113.957V105.383H834.902V104.113H844.668ZM848.125 102.219V109.191H851.035V110.48H848.125V119.582H846.602V102.219H848.125ZM838.301 113.938C839.268 113.918 840.273 113.879 841.27 113.82V105.383H838.301V113.938ZM510.879 131.676C510.879 133.59 512.227 135.543 514.453 136.383L513.652 137.555C511.982 136.91 510.781 135.67 510.156 134.176C509.512 135.836 508.271 137.311 506.562 138.043L505.723 136.852C508.008 135.855 509.414 133.609 509.414 131.676V129.312H510.879V131.676ZM520.449 128.238V138.961H518.984V134.176H516.68V138.414H515.234V128.57H516.68V132.906H518.984V128.238H520.449ZM514.707 139.352C518.301 139.352 520.547 140.484 520.547 142.457C520.547 144.41 518.301 145.543 514.707 145.543C511.094 145.543 508.867 144.41 508.887 142.457C508.867 140.484 511.094 139.352 514.707 139.352ZM514.707 140.523C512.051 140.523 510.391 141.246 510.41 142.457C510.391 143.648 512.051 144.352 514.707 144.352C517.344 144.352 519.004 143.648 519.023 142.457C519.004 141.246 517.344 140.523 514.707 140.523ZM528.789 131.031C528.789 133.395 530.586 135.562 533.105 136.422L532.266 137.633C530.342 136.93 528.828 135.494 528.066 133.688C527.324 135.729 525.781 137.34 523.75 138.121L522.93 136.891C525.527 135.914 527.266 133.59 527.285 130.914V129.117H528.789V131.031ZM536.562 128.219V132.75H539.18V134.039H536.562V138.785H535.039V128.219H536.562ZM530.996 139.234C534.57 139.234 536.719 140.387 536.719 142.379C536.719 144.41 534.57 145.543 530.996 145.543C527.422 145.543 525.234 144.41 525.234 142.379C525.234 140.387 527.422 139.234 530.996 139.234ZM530.996 140.465C528.379 140.465 526.758 141.188 526.777 142.379C526.758 143.609 528.379 144.312 530.996 144.332C533.633 144.312 535.234 143.609 535.234 142.379C535.234 141.188 533.633 140.465 530.996 140.465ZM556.094 136.617V137.887H548.926V139.938H554.16V145.348H542.207V139.938H547.422V137.887H540.273V136.617H556.094ZM554.59 128.785V130.055H551.914V133.707H554.531V134.977H541.816V133.707H544.434V130.055H541.758V128.785H554.59ZM543.73 141.148V144.098H552.656V141.148H543.73ZM545.957 133.707H550.391V130.055H545.957V133.707ZM571.895 128.238V140.934H570.371V128.238H571.895ZM572.441 143.922V145.211H560.684V139.645H562.207V143.922H572.441ZM562.52 129.449C565.117 129.449 567.07 131.207 567.07 133.707C567.07 136.246 565.117 137.984 562.52 137.984C559.922 137.984 557.969 136.246 557.969 133.707C557.969 131.207 559.922 129.449 562.52 129.449ZM562.52 130.797C560.762 130.797 559.453 132.008 559.473 133.707C559.453 135.445 560.762 136.637 562.52 136.637C564.238 136.637 565.566 135.445 565.566 133.707C565.566 132.008 564.238 130.797 562.52 130.797ZM588.516 130.777C588.516 133.746 591.914 136.402 594.941 136.969L594.238 138.258C591.621 137.652 588.857 135.787 587.734 133.219C586.611 135.777 583.857 137.643 581.23 138.258L580.527 136.969C583.535 136.383 586.914 133.766 586.914 130.777V129.449H588.516V130.777ZM595.762 141.949V143.219H579.863V141.949H595.762ZM610.703 128.238V132.652H613.301V133.961H610.703V138.297H609.16V128.238H610.703ZM601.094 139.02V140.875H609.16V139.02H610.703V145.348H599.59V139.02H601.094ZM601.094 144.078H609.16V142.086H601.094V144.078ZM597.129 136.578C598.486 136.578 600.068 136.568 601.719 136.5V134.957C599.541 134.752 598.125 133.58 598.145 131.852C598.125 129.977 599.863 128.707 602.441 128.707C605 128.707 606.758 129.977 606.758 131.852C606.758 133.551 605.371 134.713 603.262 134.938V136.441C604.893 136.363 606.533 136.227 608.047 136.012L608.164 137.086C604.492 137.77 600.332 137.828 597.324 137.828L597.129 136.578ZM602.441 129.859C600.723 129.84 599.57 130.68 599.59 131.852C599.57 133.062 600.723 133.863 602.441 133.883C604.141 133.863 605.293 133.062 605.312 131.852C605.293 130.68 604.141 129.84 602.441 129.859ZM615.508 138.609C615.527 134.918 616.523 131.852 618.32 129.254H619.805C618.477 131.188 617.246 135.133 617.246 138.609C617.246 142.086 618.477 146.051 619.805 147.984H618.32C616.523 145.367 615.527 142.301 615.508 138.609ZM629.824 133.414C629.668 132.027 628.398 131.227 626.699 131.227C624.824 131.227 623.594 132.203 623.594 133.551C623.594 135.035 625.254 135.582 626.328 135.855L627.734 136.246C629.258 136.637 631.738 137.516 631.738 140.152C631.738 142.457 629.883 144.254 626.602 144.254C623.555 144.254 621.66 142.672 621.504 140.328H623.301C623.457 141.91 624.922 142.652 626.602 142.652C628.555 142.652 630.02 141.656 630.02 140.113C630.02 138.746 628.711 138.219 627.227 137.789L625.488 137.32C623.262 136.676 621.895 135.543 621.895 133.629C621.895 131.246 624.023 129.664 626.758 129.664C629.492 129.664 631.465 131.266 631.543 133.414H629.824ZM636.426 144L633.203 133.395H634.98L637.246 141.48H637.344L639.59 133.395H641.387L643.594 141.441H643.711L645.977 133.395H647.734L644.512 144H642.852L640.547 135.914H640.391L638.105 144H636.426ZM649.082 140.992C649.082 138.551 651.23 138.004 653.066 137.867C653.74 137.818 655.459 137.73 655.938 137.711V136.852C655.938 135.504 655.137 134.723 653.535 134.723C652.188 134.723 651.387 135.348 651.152 136.148H649.395C649.609 134.449 651.27 133.258 653.613 133.258C655 133.258 657.598 133.668 657.598 137.008V144H655.938V142.555H655.859C655.508 143.277 654.531 144.254 652.695 144.254C650.684 144.254 649.082 143.062 649.082 140.992ZM650.762 141.07C650.762 142.184 651.699 142.75 652.988 142.75C654.883 142.75 655.938 141.48 655.938 140.152V139.078L653.262 139.273C651.738 139.371 650.762 139.918 650.762 141.07ZM660.293 147.984V133.395H661.914V135.074H662.109C662.461 134.508 663.125 133.258 665.176 133.258C667.832 133.258 669.688 135.367 669.688 138.727C669.688 142.086 667.832 144.215 665.195 144.215C663.164 144.215 662.461 142.965 662.109 142.379H661.973V147.984H660.293ZM661.934 138.688C661.934 141.07 663.008 142.711 664.961 142.711C666.973 142.711 668.008 140.953 668.008 138.688C668.008 136.48 666.992 134.762 664.961 134.762C662.969 134.762 661.934 136.344 661.934 138.688ZM675.332 138.609C675.312 142.301 674.316 145.367 672.52 147.984H671.035C672.363 146.051 673.594 142.086 673.594 138.609C673.594 135.133 672.363 131.188 671.035 129.254H672.52C674.316 131.852 675.312 134.918 675.332 138.609ZM697.695 128.219V145.582H696.23V128.219H697.695ZM694.18 128.688V144.703H692.715V138.688H689.492V137.418H692.715V134.332H689.785C688.936 137.271 687.031 139.869 683.75 141.832L682.812 140.719C686.592 138.482 688.486 135.348 688.789 131.715H683.594V130.445H690.312C690.312 131.334 690.234 132.213 690.078 133.062H692.715V128.688H694.18ZM716.27 130.914V132.164H713.691V134.605H716.27V135.914H713.691V138.551H712.168V128.219H713.691V130.914H716.27ZM713.691 139.352V145.582H712.168V140.621H702.324V139.352H713.691ZM705 129.273C707.637 129.254 709.551 130.953 709.57 133.355C709.551 135.797 707.637 137.477 705 137.477C702.363 137.477 700.43 135.797 700.449 133.355C700.43 130.953 702.363 129.254 705 129.273ZM705 130.582C703.242 130.582 701.934 131.715 701.953 133.355C701.934 135.016 703.242 136.168 705 136.148C706.777 136.168 708.066 135.016 708.066 133.355C708.066 131.715 706.777 130.582 705 130.582ZM725.312 128.531C729.18 128.531 731.445 129.586 731.445 131.52C731.445 133.492 729.18 134.547 725.312 134.566C721.445 134.547 719.16 133.492 719.16 131.52C719.16 129.586 721.445 128.531 725.312 128.531ZM725.312 129.684C722.422 129.684 720.742 130.387 720.762 131.52C720.742 132.73 722.422 133.395 725.312 133.395C728.184 133.395 729.883 132.73 729.883 131.52C729.883 130.387 728.184 129.684 725.312 129.684ZM733.223 135.738V136.988H717.402V135.738H733.223ZM731.191 138.492V142.379H720.879V144.176H731.719V145.387H719.355V141.246H729.688V139.664H719.316V138.492H731.191ZM753.262 128.219V132.672H755.859V133.98H753.262V138.473H751.719V128.219H753.262ZM753.262 139.254V142.75H743.516V144.293H753.926V145.387H741.992V141.715H751.738V140.348H741.953V139.254H753.262ZM739.629 136.91C741.016 136.91 742.637 136.91 744.336 136.852V135.777C742.305 135.631 741.016 134.82 741.016 133.492C741.016 132.066 742.617 131.246 745.078 131.246C747.559 131.246 749.141 132.066 749.16 133.492C749.141 134.811 747.891 135.621 745.859 135.777V136.812C747.48 136.734 749.121 136.607 750.645 136.383L750.781 137.418C747.031 138.023 742.852 138.062 739.805 138.062L739.629 136.91ZM750.117 129.547V130.66H740.059V129.547H744.336V128.062H745.859V129.547H750.117ZM745.078 132.262C743.477 132.281 742.48 132.73 742.48 133.492C742.48 134.273 743.477 134.781 745.078 134.781C746.68 134.781 747.695 134.273 747.695 133.492C747.695 132.73 746.68 132.281 745.078 132.262ZM772.812 136.812V138.082H756.992V136.812H760.918V134.371C759.531 133.834 758.75 132.945 758.75 131.773C758.75 129.723 761.094 128.551 764.902 128.551C768.672 128.551 771.035 129.723 771.035 131.773C771.035 132.936 770.264 133.824 768.887 134.352V136.812H772.812ZM764.902 139.41C768.633 139.41 770.859 140.484 770.879 142.477C770.859 144.449 768.633 145.543 764.902 145.543C761.133 145.543 758.906 144.449 758.906 142.477C758.906 140.484 761.133 139.41 764.902 139.41ZM764.902 140.582C762.109 140.602 760.449 141.285 760.469 142.477C760.449 143.648 762.109 144.352 764.902 144.352C767.656 144.352 769.336 143.648 769.336 142.477C769.336 141.285 767.656 140.602 764.902 140.582ZM764.902 129.762C762.07 129.762 760.312 130.523 760.332 131.773C760.312 133.043 762.07 133.785 764.902 133.785C767.715 133.785 769.473 133.043 769.473 131.773C769.473 130.523 767.715 129.762 764.902 129.762ZM762.441 136.812H767.363V134.781C766.631 134.908 765.811 134.977 764.902 134.977C763.994 134.977 763.174 134.908 762.441 134.781V136.812ZM787.852 128.219V132.672H790.469V133.98H787.852V138.316H786.328V128.219H787.852ZM778.398 139.078V140.934H786.328V139.078H787.852V145.348H776.875V139.078H778.398ZM778.398 144.117H786.328V142.145H778.398V144.117ZM784.668 130.016V131.285H774.316V130.016H778.73V128.062H780.254V130.016H784.668ZM779.492 132.086C781.992 132.086 783.652 133.277 783.672 135.133C783.652 136.988 781.992 138.18 779.492 138.18C776.973 138.18 775.293 136.988 775.312 135.133C775.293 133.277 776.973 132.086 779.492 132.086ZM779.492 133.277C777.852 133.258 776.758 134.02 776.777 135.133C776.758 136.266 777.852 137.008 779.492 137.008C781.113 137.008 782.207 136.266 782.227 135.133C782.207 134.02 781.113 133.258 779.492 133.277ZM805.879 128.219V145.582H804.355V128.219H805.879ZM794.199 129.938V139.781C796.846 139.771 799.59 139.557 802.5 138.941L802.715 140.25C799.629 140.895 796.875 141.109 794.102 141.109H792.695V129.938H794.199ZM822.285 128.219V135.094H825.195V136.383H822.285V145.621H820.762V128.219H822.285ZM817.715 129.918V131.188H811.133V139.977C814.277 139.977 816.504 139.83 819.082 139.352L819.277 140.68C816.562 141.168 814.277 141.266 810.977 141.266H809.609V129.918H817.715ZM827.969 144.117C827.285 144.117 826.699 143.551 826.719 142.848C826.699 142.164 827.285 141.598 827.969 141.598C828.652 141.598 829.219 142.164 829.219 142.848C829.219 143.551 828.652 144.117 827.969 144.117Z" fill="black"/>
<defs>
<filter id="filter0_d_602_292" x="0" y="22" width="435" height="174" filterUnits="userSpaceOnUse" color-interpolation-filters="sRGB">
<feFlood flood-opacity="0" result="BackgroundImageFix"/>
<feColorMatrix in="SourceAlpha" type="matrix" values="0 0 0 0 0 0 0 0 0 0 0 0 0 0 0 0 0 0 127 0" result="hardAlpha"/>
<feOffset dy="4"/>
<feGaussianBlur stdDeviation="2"/>
<feComposite in2="hardAlpha" operator="out"/>
<feColorMatrix type="matrix" values="0 0 0 0 0 0 0 0 0 0 0 0 0 0 0 0 0 0 0.25 0"/>
<feBlend mode="normal" in2="BackgroundImageFix" result="effect1_dropShadow_602_292"/>
<feBlend mode="normal" in="SourceGraphic" in2="effect1_dropShadow_602_292" result="shape"/>
</filter>
<filter id="filter1_d_602_292" x="464" y="22" width="435" height="174" filterUnits="userSpaceOnUse" color-interpolation-filters="sRGB">
<feFlood flood-opacity="0" result="BackgroundImageFix"/>
<feColorMatrix in="SourceAlpha" type="matrix" values="0 0 0 0 0 0 0 0 0 0 0 0 0 0 0 0 0 0 127 0" result="hardAlpha"/>
<feOffset dy="4"/>
<feGaussianBlur stdDeviation="2"/>
<feComposite in2="hardAlpha" operator="out"/>
<feColorMatrix type="matrix" values="0 0 0 0 0 0 0 0 0 0 0 0 0 0 0 0 0 0 0.25 0"/>
<feBlend mode="normal" in2="BackgroundImageFix" result="effect1_dropShadow_602_292"/>
<feBlend mode="normal" in="SourceGraphic" in2="effect1_dropShadow_602_292" result="shape"/>
</filter>
</defs>
</svg>
