<svg width="906" height="327" viewBox="0 0 906 327" fill="none" xmlns="http://www.w3.org/2000/svg">
<path d="M188.273 71V59.6875H195.133V60.9375H189.68V64.7188H194.773V65.9531H189.68V69.75H195.211V71H188.273ZM196.727 60.9375V59.6875H205.258V60.9375H201.711V71H200.289V60.9375H196.727ZM207.133 71V59.6875H213.945V60.9375H208.539V64.7188H213.43V65.9531H208.539V71H207.133ZM230.883 58.375V65.5625H229.648V61.9531H226.555V60.9375H229.648V58.375H230.883ZM230.883 66.2656V69.5781H223.117V71.0938H231.398V72.0781H221.914V68.6406H229.664V67.25H221.883V66.2656H230.883ZM224.102 60.1406C224.086 61.9688 225.523 63.625 227.555 64.2969L226.898 65.25C225.359 64.7031 224.133 63.6094 223.523 62.2031C222.93 63.7891 221.672 65 220.023 65.5938L219.352 64.6094C221.445 63.9219 222.883 62.1719 222.898 60.1406V58.8281H224.102V60.1406ZM244.711 58.375V66.6562H243.477V63.0156H240.68V62H243.477V58.375H244.711ZM240.102 67.0938C242.992 67.0938 244.758 68.0312 244.758 69.6719C244.758 71.3125 242.992 72.25 240.102 72.2656C237.211 72.25 235.445 71.3125 235.445 69.6719C235.445 68.0312 237.211 67.0938 240.102 67.0938ZM240.102 68.0469C237.977 68.0469 236.648 68.6562 236.664 69.6719C236.648 70.6719 237.977 71.2812 240.102 71.2812C242.227 71.2812 243.539 70.6719 243.539 69.6719C243.539 68.6562 242.227 68.0469 240.102 68.0469ZM238.023 60.9219C238.023 62.7344 239.414 64.4531 241.445 65.1562L240.805 66.1406C239.242 65.5781 238.031 64.4141 237.445 62.9688C236.836 64.6016 235.547 65.9062 233.898 66.5312L233.258 65.5469C235.32 64.7969 236.789 62.9219 236.789 60.9375V60.4219H233.648V59.3906H241.133V60.4219H238.023V60.9219ZM258.289 59.2812V64.9375H251.773V59.2812H258.289ZM252.977 60.2812V63.9688H257.086V60.2812H252.977ZM262.492 58.375V66.3594H261.289V58.375H262.492ZM258.727 68.2656C258.727 69.625 260.945 70.9688 263.336 71.2656L262.914 72.2188C260.82 71.9375 258.914 70.9531 258.102 69.6562C257.258 70.9766 255.305 71.9375 253.211 72.2188L252.773 71.2656C255.164 71 257.461 69.6562 257.461 68.2656H253.352V67.3125H257.477V65.9531H258.695V67.3125H262.852V68.2656H258.727ZM270.68 58.9688V60.9688H274.727V58.9688H275.945V65.0156H269.477V58.9688H270.68ZM270.68 64.0156H274.727V61.9219H270.68V64.0156ZM279.742 58.375V61.3906H281.836V62.4219H279.742V65.5625H278.523V58.375H279.742ZM279.742 66.2188V69.5781H272.117V71.1094H280.258V72.1094H270.914V68.6406H278.523V67.2031H270.883V66.2188H279.742ZM294.508 58.375V67.1719H293.336V63.1875H291.477V66.6719H290.32V58.6562H291.477V62.1719H293.336V58.375H294.508ZM289.758 60.0469V61.0312H282.633V60.0469H285.602V58.4844H286.82V60.0469H289.758ZM286.211 61.7812C287.977 61.7812 289.18 62.7031 289.195 64.1562C289.18 65.5781 287.977 66.5156 286.211 66.5156C284.461 66.5156 283.227 65.5781 283.242 64.1562C283.227 62.7031 284.461 61.7812 286.211 61.7812ZM286.211 62.6875C285.102 62.6875 284.336 63.2812 284.336 64.1562C284.336 65.0156 285.102 65.5938 286.211 65.5938C287.32 65.5938 288.086 65.0156 288.086 64.1562C288.086 63.2812 287.32 62.6875 286.211 62.6875ZM289.914 67.4062C292.836 67.4062 294.586 68.2812 294.586 69.8438C294.586 71.3594 292.836 72.2344 289.914 72.2344C286.992 72.2344 285.242 71.3594 285.258 69.8438C285.242 68.2812 286.992 67.4062 289.914 67.4062ZM289.914 68.375C287.758 68.3594 286.461 68.8906 286.477 69.8438C286.461 70.75 287.758 71.2812 289.914 71.2812C292.07 71.2812 293.352 70.75 293.367 69.8438C293.352 68.8906 292.07 68.3594 289.914 68.375Z" fill="black"/>
<path d="M639.891 58.375V72.2656H638.703V64.9062H636.766V71.5625H635.594V58.6719H636.766V63.8906H638.703V58.375H639.891ZM633.812 60V68.5312H628.5V60H633.812ZM629.656 60.9844V67.5469H632.656V60.9844H629.656ZM648.781 59.6719C648.781 61.625 651.344 63.3281 653.844 63.6719L653.344 64.6719C651.188 64.3125 649.055 63.1172 648.156 61.4062C647.266 63.125 645.125 64.3125 642.969 64.6719L642.469 63.6719C644.969 63.3281 647.516 61.6562 647.516 59.6719V58.875H648.781V59.6719ZM654.469 66.2031V67.2344H648.719V72.2656H647.516V67.2344H641.812V66.2031H654.469ZM659.828 59.2812C661.969 59.2969 663.516 60.6094 663.531 62.5469C663.516 64.2891 662.266 65.5312 660.453 65.75V68.125C661.75 68.0625 663.055 67.9688 664.266 67.8125L664.344 68.7344C661.406 69.2344 658.109 69.2656 655.672 69.25L655.469 68.2188C656.586 68.2109 657.883 68.2031 659.219 68.1562V65.75C657.375 65.5391 656.109 64.2969 656.125 62.5469C656.109 60.6094 657.656 59.2969 659.828 59.2812ZM659.828 60.3438C658.375 60.3438 657.312 61.25 657.328 62.5469C657.312 63.8438 658.375 64.75 659.828 64.75C661.266 64.75 662.312 63.8438 662.328 62.5469C662.312 61.25 661.266 60.3438 659.828 60.3438ZM666.375 58.375V64.1094H668.641V65.1719H666.375V72.2656H665.156V58.375H666.375ZM685.391 58.375V72.2656H684.203V64.9062H682.266V71.5625H681.094V58.6719H682.266V63.8906H684.203V58.375H685.391ZM679.312 60V68.5312H674V60H679.312ZM675.156 60.9844V67.5469H678.156V60.9844H675.156ZM698.531 64.8906V65.8906H694.234V69.4844H700.031V70.5156H687.312V69.4844H693.031V65.8906H688.938V59.5156H698.391V60.5156H690.172V64.8906H698.531Z" fill="black"/>
<g filter="url(#filter0_d_487_356)">
<rect x="4" y="141" width="175" height="101" rx="30" fill="#F5F5F5"/>
</g>
<path d="M48.375 172V173.992H44.8203C44.9375 175.867 46.2754 177.742 49.0586 178.504L47.8086 180.438C45.7773 179.861 44.3516 178.641 43.5508 177.078C42.7402 178.768 41.2852 180.105 39.1758 180.75L37.9258 178.797C40.7578 177.977 42.1348 176.004 42.2617 173.992H38.6094V172H48.375ZM52.75 171.023V180.672H50.25V171.023H52.75ZM43.3164 181.414V183.074H50.2695V181.414H52.75V188.602H40.8555V181.414H43.3164ZM43.3164 186.609H50.2695V185.008H43.3164V186.609ZM69.2539 171.023V175.301H71.6562V177.371H69.2539V181.434H66.7539V171.023H69.2539ZM60.0938 182.117V183.465H66.7539V182.117H69.2539V188.602H57.6133V182.117H60.0938ZM60.0938 186.648H66.7539V185.379H60.0938V186.648ZM65.6992 172.586V174.539H55.1523V172.586H59.1953V170.906H61.6758V172.586H65.6992ZM60.4258 175.047C63.0039 175.047 64.8008 176.297 64.8008 178.191C64.8008 180.086 63.0039 181.336 60.4258 181.336C57.8086 181.336 56.0117 180.086 56.0117 178.191C56.0117 176.297 57.8086 175.047 60.4258 175.047ZM60.4258 176.883C59.2344 176.863 58.4336 177.352 58.4531 178.191C58.4336 179.051 59.2344 179.52 60.4258 179.52C61.6172 179.52 62.4375 179.051 62.4375 178.191C62.4375 177.352 61.6172 176.863 60.4258 176.883ZM88.6875 181.551V183.582H81.7539V188.797H79.293V183.582H72.418V181.551H88.6875ZM86.9492 178.289V180.262H74.4688V171.746H86.7539V173.699H76.9102V175.027H86.3828V176.941H76.9102V178.289H86.9492ZM96.2852 175.867C96.2656 178.582 97.7109 181.707 100.641 183.055L99.2539 185.008C97.2715 184.1 95.8555 182.283 95.0742 180.145C94.2734 182.498 92.8184 184.49 90.7578 185.457L89.3125 183.484C92.2812 182.098 93.7656 178.797 93.7852 175.867V174.773H90.0156V172.742H99.8594V174.773H96.2852V175.867ZM103.746 171.023V177.801H106.363V179.891H103.746V188.797H101.246V171.023H103.746ZM116.578 171.785C118.854 171.766 120.66 173.064 121.148 174.969H124.117V171.023H126.598V180.574H124.117V176.961H121.168C120.699 178.914 118.873 180.242 116.578 180.242C113.844 180.242 111.832 178.465 111.852 175.984C111.832 173.543 113.844 171.766 116.578 171.785ZM116.578 173.855C115.191 173.836 114.195 174.656 114.215 175.984C114.195 177.312 115.191 178.152 116.578 178.152C117.926 178.152 118.902 177.312 118.902 175.984C118.902 174.656 117.926 173.836 116.578 173.855ZM117.203 181.355V183.074H124.117V181.355H126.598V188.602H114.742V181.355H117.203ZM117.203 186.59H124.117V184.988H117.203V186.59ZM134.449 176.434C134.449 179.129 135.426 181.824 137.945 183.191L136.578 185.008C134.977 184.188 133.912 182.742 133.297 181.004C132.672 182.898 131.607 184.5 129.996 185.438L128.57 183.562C131.129 182.078 132.086 179.188 132.105 176.434V176.023H129.234V174.031H132.105V171.629H134.43V174.031H137.242V176.023H134.449V176.434ZM144.273 171.023V188.797H141.91V171.023H144.273ZM140.641 171.316V187.977H138.297V179.793H136.207V177.762H138.297V171.316H140.641ZM53.0723 199.867C53.0527 202.582 54.498 205.707 57.4277 207.055L56.041 209.008C54.0586 208.1 52.6426 206.283 51.8613 204.145C51.0605 206.498 49.6055 208.49 47.5449 209.457L46.0996 207.484C49.0684 206.098 50.5527 202.797 50.5723 199.867V198.773H46.8027V196.742H56.6465V198.773H53.0723V199.867ZM60.5332 195.023V201.801H63.1504V203.891H60.5332V212.797H58.0332V195.023H60.5332ZM70.3574 198.07C70.3379 200.336 71.627 202.543 74.5176 203.48L73.209 205.434C71.2656 204.779 69.9277 203.5 69.166 201.879C68.3652 203.666 66.9492 205.062 64.8887 205.766L63.502 203.793C66.5293 202.855 67.8379 200.473 67.8574 198.051V196.117H70.3574V198.07ZM77.8965 195.023V200.16H80.2988V202.27H77.8965V208.051H75.3965V195.023H77.8965ZM78.5605 210.492V212.484H66.3535V206.762H68.8926V210.492H78.5605ZM101.939 203.676V205.668H95.2012V208.754H92.6816V205.668H85.6699V203.676H101.939ZM100.143 210.473V212.484H87.6035V207.172H90.123V210.473H100.143ZM93.7949 195.355C97.6426 195.375 100.201 196.801 100.221 199.047C100.201 201.312 97.6426 202.719 93.7949 202.719C89.9277 202.719 87.3496 201.312 87.3496 199.047C87.3496 196.801 89.9277 195.375 93.7949 195.355ZM93.7949 197.328C91.4902 197.328 90.0254 197.914 90.0449 199.047C90.0254 200.141 91.4902 200.727 93.7949 200.727C96.0801 200.727 97.5449 200.141 97.5449 199.047C97.5449 197.914 96.0801 197.328 93.7949 197.328ZM119.186 203.441V205.434H102.975V203.441H106.627V201.312C105.328 200.736 104.596 199.857 104.596 198.715C104.596 196.566 107.115 195.277 111.08 195.277C115.006 195.277 117.525 196.566 117.545 198.715C117.535 199.867 116.773 200.766 115.455 201.332V203.441H119.186ZM111.061 206.371C114.908 206.371 117.232 207.504 117.252 209.555C117.232 211.645 114.908 212.777 111.061 212.777C107.154 212.777 104.83 211.645 104.83 209.555C104.83 207.504 107.154 206.371 111.061 206.371ZM111.061 208.246C108.6 208.246 107.35 208.676 107.369 209.555C107.35 210.473 108.6 210.922 111.061 210.922C113.463 210.922 114.732 210.473 114.752 209.555C114.732 208.676 113.463 208.246 111.061 208.246ZM111.08 197.191C108.561 197.191 107.174 197.719 107.193 198.715C107.174 199.691 108.561 200.18 111.08 200.18C113.561 200.18 114.967 199.691 114.967 198.715C114.967 197.719 113.561 197.191 111.08 197.191ZM109.146 203.441H112.975V201.957C112.389 202.025 111.754 202.055 111.08 202.055C110.387 202.055 109.742 202.025 109.146 201.938V203.441ZM126.803 199.047C126.783 202.23 128.15 205.453 131.002 206.82L129.498 208.812C127.594 207.875 126.314 206.117 125.572 203.969C124.801 206.273 123.424 208.158 121.412 209.145L119.869 207.133C122.877 205.746 124.303 202.348 124.303 199.047V196.391H126.803V199.047ZM134.283 195.023V201.879H136.9V203.988H134.283V212.797H131.783V195.023H134.283Z" fill="#0249FF"/>
<g filter="url(#filter1_d_487_356)">
<rect x="727" y="141" width="175" height="101" rx="30" fill="#F5F5F5"/>
</g>
<path d="M777.662 199V184.859H787.154V187.281H780.592V190.719H786.666V193.141H780.592V196.578H787.174V199H777.662ZM788.893 187.281V184.859H800.475V187.281H796.139V199H793.229V187.281H788.893ZM802.291 199V184.859H811.607V187.281H805.221V190.719H811.002V193.141H805.221V199H802.291ZM824.4 187.047C824.4 190.309 825.885 193.59 828.893 194.859L827.428 196.852C825.396 195.934 823.99 194.166 823.189 191.969C822.379 194.361 820.924 196.295 818.756 197.281L817.252 195.211C820.357 193.902 821.861 190.504 821.881 187.047V184.391H824.4V187.047ZM832.369 183.023V200.836H829.85V183.023H832.369ZM844.869 184.215V186.207H841.334C841.354 188.277 842.594 190.279 845.436 191.109L844.244 193.062C842.281 192.467 840.924 191.275 840.143 189.742C839.352 191.539 837.906 192.965 835.768 193.668L834.498 191.695C837.447 190.768 838.775 188.463 838.814 186.207H835.182V184.215H844.869ZM848.873 183.023V187.145H851.275V189.176H848.873V193.57H846.373V183.023H848.873ZM843.053 193.922C846.744 193.902 849.049 195.172 849.049 197.34C849.049 199.508 846.744 200.797 843.053 200.797C839.283 200.797 836.959 199.508 836.959 197.34C836.959 195.172 839.283 193.902 843.053 193.922ZM843.053 195.855C840.709 195.855 839.439 196.344 839.459 197.34C839.439 198.355 840.709 198.863 843.053 198.863C845.357 198.863 846.588 198.355 846.588 197.34C846.588 196.344 845.357 195.855 843.053 195.855Z" fill="#0249FF"/>
<g filter="url(#filter2_d_487_356)">
<rect x="304" y="97" width="298" height="189" rx="30" fill="#3657FE"/>
</g>
<path d="M435.703 184V161.375H440.391V180.125H450.141V184H435.703ZM453.172 184V161.375H462.047C467.203 161.375 470.141 164.531 470.141 169C470.141 173.531 467.141 176.625 461.922 176.625H457.859V184H453.172ZM457.859 172.844H461.172C463.953 172.844 465.297 171.281 465.297 169C465.297 166.75 463.953 165.219 461.172 165.219H457.859V172.844ZM355.875 213.375C355.875 207.5 357.688 202.625 360.688 198.406H365.094C362.938 201.531 360.688 207.781 360.688 213.375C360.688 219 362.938 225.25 365.094 228.375H360.688C357.688 224.156 355.875 219.25 355.875 213.375ZM392.688 212.25V215.469H386.594V224.875H382.531V215.469H376.719V224.875H372.625V215.469H366.656V212.25H392.688ZM379.594 197.375C385.688 197.375 389.969 199.906 389.969 203.812C389.969 207.656 385.688 210.062 379.594 210.062C373.5 210.062 369.25 207.656 369.281 203.812C369.25 199.906 373.5 197.375 379.594 197.375ZM379.594 200.562C375.781 200.562 373.344 201.719 373.375 203.812C373.344 205.812 375.781 206.938 379.594 206.938C383.438 206.938 385.844 205.812 385.844 203.812C385.844 201.719 383.438 200.562 379.594 200.562ZM420.344 209.875V213H394.344V209.875H405.406V207.438H397.5V197.688H417.219V200.781H401.469V204.312H417.375V207.438H409.312V209.875H420.344ZM407.281 214.438C413.438 214.438 417.156 216.312 417.188 219.688C417.156 223 413.438 224.906 407.281 224.906C401.062 224.906 397.312 223 397.312 219.688C397.312 216.312 401.062 214.438 407.281 214.438ZM407.281 217.469C403.344 217.469 401.344 218.219 401.375 219.688C401.344 221.188 403.344 221.875 407.281 221.875C411.125 221.875 413.156 221.188 413.188 219.688C413.156 218.219 411.125 217.469 407.281 217.469ZM432.75 200.312C432.719 204.125 434.688 207.625 439.25 209.031L437.156 212.156C434.094 211.094 432.016 209.125 430.844 206.562C429.562 209.531 427.266 211.875 423.844 213.031L421.75 209.844C426.625 208.281 428.688 204.469 428.719 200.5V197.906H432.75V200.312ZM445.969 196.438V213.094H442V204.906H436.656V201.656H442V196.438H445.969ZM436.25 213.844C442.312 213.844 446.031 215.875 446.062 219.375C446.031 222.875 442.312 224.875 436.25 224.875C430.188 224.875 426.469 222.875 426.469 219.375C426.469 215.875 430.188 213.844 436.25 213.844ZM436.25 216.938C432.469 216.938 430.438 217.75 430.438 219.375C430.438 220.938 432.469 221.781 436.25 221.781C440.031 221.781 442.094 220.938 442.094 219.375C442.094 217.75 440.031 216.938 436.25 216.938ZM469.844 214.156C476.062 214.156 479.969 216.125 480 219.531C479.969 222.875 476.062 224.875 469.844 224.875C463.688 224.875 459.719 222.875 459.719 219.531C459.719 216.125 463.688 214.156 469.844 214.156ZM469.844 217.125C465.938 217.125 463.688 217.938 463.688 219.531C463.688 221.062 465.938 221.844 469.844 221.844C473.75 221.844 476.031 221.062 476.031 219.531C476.031 217.938 473.75 217.125 469.844 217.125ZM479.844 197.719V200.031C479.844 202.281 479.844 204.719 479.031 207.656L475.125 207.281C475.75 204.703 475.828 202.781 475.875 200.844H460V197.719H479.844ZM482.906 209.125V212.344H457.094V209.125H466.781V204.156H470.719V209.125H482.906ZM491.719 212.625V215.656H503.562V212.625H507.5V224.562H487.812V212.625H491.719ZM491.719 221.344H503.562V218.688H491.719V221.344ZM507.625 197.594V199.875C507.625 202.031 507.625 204.344 506.969 207.562H510.719V210.75H484.688V207.562H503C503.562 204.812 503.641 202.672 503.656 200.781H487.875V197.594H507.625ZM522.844 204.188C522.812 208.531 525.125 213.531 529.812 215.688L527.594 218.812C524.422 217.359 522.156 214.453 520.906 211.031C519.625 214.797 517.297 217.984 514 219.531L511.688 216.375C516.438 214.156 518.812 208.875 518.844 204.188V202.438H512.812V199.188H528.562V202.438H522.844V204.188ZM534.781 196.438V207.281H538.969V210.625H534.781V224.875H530.781V196.438H534.781ZM549.125 213.375C549.125 219.25 547.312 224.156 544.312 228.375H539.906C542.062 225.25 544.312 219 544.312 213.375C544.312 207.781 542.062 201.531 539.906 198.406H544.312C547.312 202.625 549.125 207.5 549.125 213.375Z" fill="white"/>
<path d="M241.5 192H209M209 192L218 183M209 192L218 201" stroke="black" stroke-width="1.5" stroke-linecap="round" stroke-linejoin="round"/>
<path d="M241 192H273.5M273.5 192L264.5 183M273.5 192L264.5 201" stroke="black" stroke-width="1.5" stroke-linecap="round" stroke-linejoin="round"/>
<path d="M664.5 192H632M632 192L641 183M632 192L641 201" stroke="black" stroke-width="1.5" stroke-linecap="round" stroke-linejoin="round"/>
<path d="M664 192H696.5M696.5 192L687.5 183M696.5 192L687.5 201" stroke="black" stroke-width="1.5" stroke-linecap="round" stroke-linejoin="round"/>
<defs>
<filter id="filter0_d_487_356" x="0" y="141" width="183" height="109" filterUnits="userSpaceOnUse" color-interpolation-filters="sRGB">
<feFlood flood-opacity="0" result="BackgroundImageFix"/>
<feColorMatrix in="SourceAlpha" type="matrix" values="0 0 0 0 0 0 0 0 0 0 0 0 0 0 0 0 0 0 127 0" result="hardAlpha"/>
<feOffset dy="4"/>
<feGaussianBlur stdDeviation="2"/>
<feComposite in2="hardAlpha" operator="out"/>
<feColorMatrix type="matrix" values="0 0 0 0 0 0 0 0 0 0 0 0 0 0 0 0 0 0 0.25 0"/>
<feBlend mode="normal" in2="BackgroundImageFix" result="effect1_dropShadow_487_356"/>
<feBlend mode="normal" in="SourceGraphic" in2="effect1_dropShadow_487_356" result="shape"/>
</filter>
<filter id="filter1_d_487_356" x="723" y="141" width="183" height="109" filterUnits="userSpaceOnUse" color-interpolation-filters="sRGB">
<feFlood flood-opacity="0" result="BackgroundImageFix"/>
<feColorMatrix in="SourceAlpha" type="matrix" values="0 0 0 0 0 0 0 0 0 0 0 0 0 0 0 0 0 0 127 0" result="hardAlpha"/>
<feOffset dy="4"/>
<feGaussianBlur stdDeviation="2"/>
<feComposite in2="hardAlpha" operator="out"/>
<feColorMatrix type="matrix" values="0 0 0 0 0 0 0 0 0 0 0 0 0 0 0 0 0 0 0.25 0"/>
<feBlend mode="normal" in2="BackgroundImageFix" result="effect1_dropShadow_487_356"/>
<feBlend mode="normal" in="SourceGraphic" in2="effect1_dropShadow_487_356" result="shape"/>
</filter>
<filter id="filter2_d_487_356" x="300" y="97" width="306" height="197" filterUnits="userSpaceOnUse" color-interpolation-filters="sRGB">
<feFlood flood-opacity="0" result="BackgroundImageFix"/>
<feColorMatrix in="SourceAlpha" type="matrix" values="0 0 0 0 0 0 0 0 0 0 0 0 0 0 0 0 0 0 127 0" result="hardAlpha"/>
<feOffset dy="4"/>
<feGaussianBlur stdDeviation="2"/>
<feComposite in2="hardAlpha" operator="out"/>
<feColorMatrix type="matrix" values="0 0 0 0 0 0 0 0 0 0 0 0 0 0 0 0 0 0 0.25 0"/>
<feBlend mode="normal" in2="BackgroundImageFix" result="effect1_dropShadow_487_356"/>
<feBlend mode="normal" in="SourceGraphic" in2="effect1_dropShadow_487_356" result="shape"/>
</filter>
</defs>
</svg>
