<svg width="898" height="567" viewBox="0 0 898 567" fill="none" xmlns="http://www.w3.org/2000/svg">
<g filter="url(#filter0_d_568_279)">
<rect x="16" y="28" width="866" height="213" rx="40" fill="#F5F5F5"/>
</g>
<path d="M121.792 129V108.496H126.04V116.992H134.932V108.496H139.208V129H134.932V120.504H126.04V129H121.792ZM76.6914 156.184C76.6914 150.859 78.334 146.441 81.0527 142.618H85.0459C83.0918 145.45 81.0527 151.114 81.0527 156.184C81.0527 161.281 83.0918 166.945 85.0459 169.777H81.0527C78.334 165.954 76.6914 161.508 76.6914 156.184ZM87.4531 164V143.496H91.7012V151.992H100.594V143.496H104.87V164H100.594V155.504H91.7012V164H87.4531ZM115.207 164.312C110.506 164.312 107.617 161.253 107.617 156.382C107.617 151.624 110.534 148.424 115.037 148.424C119.087 148.424 122.259 150.973 122.259 156.212V157.401H111.752C111.752 159.724 113.14 161.168 115.292 161.168C116.708 161.168 117.728 160.545 118.152 159.61H122.146C121.551 162.442 119.002 164.312 115.207 164.312ZM111.752 154.768H118.294C118.294 152.898 116.991 151.567 115.122 151.567C113.196 151.567 111.823 152.998 111.752 154.768ZM130.557 164.255C127.045 164.255 124.298 161.451 124.298 156.325C124.298 151.058 127.158 148.424 130.557 148.424C133.134 148.424 134.352 149.953 134.918 151.199H135.06V143.496H139.251V164H135.116V161.536H134.918C134.323 162.811 133.049 164.255 130.557 164.255ZM131.859 160.913C133.955 160.913 135.145 159.072 135.145 156.297C135.145 153.521 133.955 151.766 131.859 151.766C129.735 151.766 128.603 153.606 128.603 156.297C128.603 159.016 129.735 160.913 131.859 160.913ZM149.531 170.089C145.283 170.089 142.678 168.191 142.423 165.274H146.558C146.784 166.492 147.945 167.059 149.616 167.059C151.57 167.059 152.873 166.237 152.873 164.085V161.281H152.675C152.108 162.527 150.749 163.773 148.285 163.773C144.802 163.773 142.026 161.338 142.026 156.212C142.026 151.001 144.887 148.424 148.285 148.424C150.862 148.424 152.108 149.953 152.675 151.199H152.845V148.622H157.008V164.17C157.008 168.078 153.893 170.089 149.531 170.089ZM149.588 160.63C151.684 160.63 152.873 158.987 152.873 156.269C152.873 153.521 151.684 151.766 149.588 151.766C147.464 151.766 146.331 153.606 146.331 156.269C146.331 158.931 147.464 160.63 149.588 160.63ZM167.231 164.312C162.53 164.312 159.642 161.253 159.642 156.382C159.642 151.624 162.559 148.424 167.062 148.424C171.111 148.424 174.283 150.973 174.283 156.212V157.401H163.776C163.776 159.724 165.164 161.168 167.316 161.168C168.732 161.168 169.752 160.545 170.177 159.61H174.17C173.575 162.442 171.026 164.312 167.231 164.312ZM163.776 154.768H170.318C170.318 152.898 169.016 151.567 167.146 151.567C165.221 151.567 163.847 152.998 163.776 154.768ZM184.309 156.184C184.309 161.508 182.666 165.954 179.947 169.777H175.954C177.908 166.945 179.947 161.281 179.947 156.184C179.947 151.114 177.908 145.45 175.954 142.618H179.947C182.666 146.441 184.309 150.859 184.309 156.184Z" fill="#0249FF"/>
<path d="M279.922 97.3672C278.828 97.3672 277.93 96.4688 277.93 95.3555C277.93 94.2617 278.828 93.3633 279.922 93.3633C281.035 93.3633 281.934 94.2617 281.934 95.3555C281.934 96.4688 281.035 97.3672 279.922 97.3672ZM309.258 85.2188V91.3125H311.855V92.6016H309.258V98.8125H307.715V85.2188H309.258ZM309.883 100.922V102.211H298.223V97.8945H299.766V100.922H309.883ZM295.625 95.5508C297.002 95.5508 298.633 95.541 300.332 95.4727V94.1445C298.311 93.959 297.012 92.9922 297.012 91.5273C297.012 89.8477 298.633 88.8516 301.074 88.8516C303.535 88.8516 305.137 89.8477 305.156 91.5273C305.137 92.9824 303.867 93.9492 301.855 94.1445V95.3945C303.486 95.3164 305.127 95.1602 306.641 94.9258L306.777 96.0195C303.047 96.7227 298.848 96.7812 295.801 96.8008L295.625 95.5508ZM306.113 86.9375V88.0898H296.055V86.9375H300.332V85.1797H301.855V86.9375H306.113ZM301.074 89.9453C299.473 89.9453 298.477 90.5508 298.477 91.5273C298.477 92.4844 299.473 93.0898 301.074 93.0898C302.676 93.0898 303.691 92.4844 303.691 91.5273C303.691 90.5508 302.676 89.9453 301.074 89.9453ZM320.898 85.4336C324.766 85.4336 327.031 86.5078 327.031 88.4414C327.031 90.3945 324.766 91.4492 320.898 91.4688C317.031 91.4492 314.746 90.3945 314.746 88.4414C314.746 86.5078 317.031 85.4336 320.898 85.4336ZM320.898 86.6055C318.008 86.625 316.328 87.2891 316.348 88.4414C316.328 89.6328 318.008 90.2773 320.898 90.2969C323.77 90.2773 325.469 89.6328 325.469 88.4414C325.469 87.2891 323.77 86.625 320.898 86.6055ZM328.809 92.5234V93.7734H324.395V95.4922H326.777V99.3789H316.465V101.176H327.305V102.387H314.941V98.2461H325.273V96.6641H314.902V95.4922H317.305V93.7734H312.988V92.5234H328.809ZM318.809 95.4922H322.871V93.7734H318.809V95.4922ZM348.73 85.2188V92.3867H351.641V93.6562H348.73V102.582H347.207V85.2188H348.73ZM345.527 88.0117V89.2812H335.195V88.0117H339.668V85.4336H341.191V88.0117H345.527ZM340.449 90.7266C342.91 90.7266 344.688 92.3672 344.707 94.7109C344.688 97.0547 342.91 98.6953 340.449 98.6953C337.969 98.6953 336.172 97.0547 336.191 94.7109C336.172 92.3672 337.969 90.7266 340.449 90.7266ZM340.449 92.0156C338.828 92.0156 337.637 93.1484 337.656 94.7109C337.637 96.293 338.828 97.4062 340.449 97.3867C342.051 97.4062 343.223 96.293 343.242 94.7109C343.223 93.1484 342.051 92.0156 340.449 92.0156ZM361.191 86.2734V91.0586H354.863V93.5781C357.949 93.5781 360.186 93.4707 362.891 93.0117L363.047 94.2812C360.254 94.75 357.93 94.8477 354.707 94.8477H353.359V89.8477H359.688V87.5234H353.32V86.2734H361.191ZM366.152 85.2383V89.6914H368.789V90.9805H366.152V95.7852H364.629V85.2383H366.152ZM366.152 96.7031V102.582H364.629V97.9531H354.785V96.7031H366.152ZM384.18 85.2188V102.621H382.637V85.2188H384.18ZM374.941 86.5664C377.52 86.5859 379.375 88.9297 379.375 92.6211C379.375 96.3125 377.52 98.6562 374.941 98.6562C372.344 98.6562 370.508 96.3125 370.508 92.6211C370.508 88.9297 372.344 86.5859 374.941 86.5664ZM374.941 87.9336C373.203 87.9531 371.992 89.7891 371.992 92.6211C371.992 95.4531 373.203 97.2891 374.941 97.2891C376.68 97.2891 377.891 95.4531 377.891 92.6211C377.891 89.7891 376.68 87.9531 374.941 87.9336ZM407.051 85.2188V102.582H405.566V85.2188H407.051ZM403.594 85.5898V101.703H402.129V96H399.355C398.75 97.7383 397.598 98.7539 396.113 98.7539C393.848 98.7539 392.383 96.4102 392.383 92.7188C392.383 89.0273 393.848 86.6836 396.113 86.6836C397.598 86.6836 398.75 87.6992 399.355 89.4375H402.129V85.5898H403.594ZM396.113 88.1289C394.688 88.1289 393.809 89.8867 393.809 92.7188C393.809 95.5312 394.688 97.3086 396.113 97.2891C397.52 97.3086 398.438 95.5312 398.438 92.7188C398.438 89.8867 397.52 88.1289 396.113 88.1289ZM399.688 90.707C399.805 91.3223 399.863 91.9961 399.863 92.7188C399.863 93.4316 399.805 94.1055 399.707 94.7109H402.129V90.707H399.688ZM415.254 88.0312C415.254 90.3945 417.051 92.5625 419.57 93.4219L418.73 94.6328C416.807 93.9297 415.293 92.4941 414.531 90.6875C413.789 92.7285 412.246 94.3398 410.215 95.1211L409.395 93.8906C411.992 92.9141 413.73 90.5898 413.75 87.9141V86.1172H415.254V88.0312ZM423.027 85.2188V89.75H425.645V91.0391H423.027V95.7852H421.504V85.2188H423.027ZM417.461 96.2344C421.035 96.2344 423.184 97.3867 423.184 99.3789C423.184 101.41 421.035 102.543 417.461 102.543C413.887 102.543 411.699 101.41 411.699 99.3789C411.699 97.3867 413.887 96.2344 417.461 96.2344ZM417.461 97.4648C414.844 97.4648 413.223 98.1875 413.242 99.3789C413.223 100.609 414.844 101.312 417.461 101.332C420.098 101.312 421.699 100.609 421.699 99.3789C421.699 98.1875 420.098 97.4648 417.461 97.4648ZM437.09 92.7188V93.9883H433.281V97.4062C434.98 97.3379 436.689 97.2207 438.301 97.0352L438.418 98.1875C434.57 98.7539 430.371 98.8125 427.051 98.8125L426.836 97.5234C428.35 97.5234 430.029 97.5137 431.758 97.4648V93.9883H428.164V86.8789H437.012V88.1289H429.668V92.7188H437.09ZM440.977 85.2188V102.621H439.453V85.2188H440.977ZM457.949 86.9766V88.7148C457.93 90.8438 457.93 93.2266 457.305 96.7227L455.742 96.5469C456.406 93.2266 456.406 90.7852 456.406 88.7148V88.2461H445.703V86.9766H457.949ZM459.844 98.8516V100.121H444.023V98.8516H450.234V92.6406H451.738V98.8516H459.844ZM479.902 85.2188V90.5117H482.52V91.8008H479.902V98.0312H478.379V85.2188H479.902ZM480.703 100.922V102.211H469.043V96.7031H470.547V100.922H480.703ZM471.211 86.4492C473.809 86.4492 475.762 88.207 475.781 90.7266C475.762 93.2461 473.809 95.0039 471.211 95.0039C468.613 95.0039 466.641 93.2461 466.66 90.7266C466.641 88.207 468.613 86.4492 471.211 86.4492ZM471.211 87.7969C469.492 87.7969 468.145 89.0078 468.164 90.7266C468.145 92.4453 469.492 93.6562 471.211 93.6562C472.969 93.6562 474.277 92.4453 474.277 90.7266C474.277 89.0078 472.969 87.7969 471.211 87.7969ZM498.008 85.2188V95.5703H496.465V91.0195H492.969V89.75H496.465V85.2188H498.008ZM492.246 96.1172C495.859 96.1172 498.066 97.2891 498.066 99.3398C498.066 101.391 495.859 102.562 492.246 102.582C488.633 102.562 486.426 101.391 486.426 99.3398C486.426 97.2891 488.633 96.1172 492.246 96.1172ZM492.246 97.3086C489.59 97.3086 487.93 98.0703 487.949 99.3398C487.93 100.59 489.59 101.352 492.246 101.352C494.902 101.352 496.543 100.59 496.543 99.3398C496.543 98.0703 494.902 97.3086 492.246 97.3086ZM489.648 88.4023C489.648 90.668 491.387 92.8164 493.926 93.6953L493.125 94.9258C491.172 94.2227 489.658 92.7676 488.926 90.9609C488.164 93.002 486.553 94.6328 484.492 95.4141L483.691 94.1836C486.27 93.2461 488.105 90.9023 488.105 88.4219V87.7773H484.18V86.4883H493.535V87.7773H489.648V88.4023ZM506.934 88.4219C506.934 90.6875 508.672 92.8359 511.211 93.7148L510.41 94.9258C508.447 94.2227 506.934 92.7676 506.191 90.9805C505.439 92.9824 503.838 94.584 501.777 95.3359L500.977 94.125C503.535 93.207 505.391 90.8828 505.391 88.4414V87.6797H501.465V86.4297H510.82V87.6797H506.934V88.4219ZM515.293 96.5469V102.582H513.75V97.8164H503.613V96.5469H515.293ZM515.293 85.2188V95.6289H513.75V91.0586H510.273V89.7695H513.75V85.2188H515.293ZM532.52 85.2383V97.9336H530.996V85.2383H532.52ZM533.066 100.922V102.211H521.309V96.6445H522.832V100.922H533.066ZM523.145 86.4492C525.742 86.4492 527.695 88.207 527.695 90.707C527.695 93.2461 525.742 94.9844 523.145 94.9844C520.547 94.9844 518.594 93.2461 518.594 90.707C518.594 88.207 520.547 86.4492 523.145 86.4492ZM523.145 87.7969C521.387 87.7969 520.078 89.0078 520.098 90.707C520.078 92.4453 521.387 93.6367 523.145 93.6367C524.863 93.6367 526.191 92.4453 526.191 90.707C526.191 89.0078 524.863 87.7969 523.145 87.7969ZM556.367 95.7461V97.0156H549.141V102.582H547.637V97.0156H540.469V95.7461H556.367ZM554.57 92.6992V93.9492H542.598V86.0391H554.375V87.2891H544.121V89.3203H553.965V90.5508H544.121V92.6992H554.57ZM563.652 90.5508C563.633 93.3438 565.645 96.4102 568.164 97.6016L567.285 98.8125C565.332 97.8652 563.682 95.7949 562.91 93.4414C562.109 96 560.361 98.2461 558.418 99.2422L557.48 98.0312C559.98 96.8203 562.129 93.5195 562.148 90.5508V88.2852H558.105V87.0156H567.559V88.2852H563.652V90.5508ZM571.211 85.2188V92.25H574.121V93.5586H571.211V102.582H569.688V85.2188H571.211ZM590.938 93.2852V94.4961H575.039V93.2852H590.938ZM588.945 95.8828V99.5742H578.516V101.234H589.512V102.348H576.973V98.5195H587.422V97.0352H576.953V95.8828H588.945ZM588.887 85.7461V89.3398H578.633V90.8633H589.199V91.9766H577.109V88.2852H587.344V86.8594H577.051V85.7461H588.887ZM613.184 95.7266V97.0156H606.016V102.621H604.512V97.0156H597.363V95.7266H613.184ZM606.035 88.6562C606.035 90.8242 609.062 92.7188 612.168 93.1484L611.602 94.3789C608.916 93.9688 606.387 92.6211 605.293 90.7266C604.18 92.6406 601.611 93.9688 598.926 94.3789L598.359 93.1484C601.445 92.7188 604.512 90.8438 604.512 88.6562V88.6367H598.906V87.3867H604.512V85.2188H606.016V87.3867H611.66V88.6367H606.035V88.6562ZM628.379 86.3516V87.875C628.379 89.5254 628.379 91.3125 627.891 93.8125H630.469V95.082H623.301V102.621H621.758V95.082H614.648V93.8125H626.328C626.855 91.3125 626.855 89.4863 626.855 87.875V87.6211H616.641V86.3516H628.379ZM645.508 85.2383V90.9609H648.125V92.25H645.508V98.2461H643.984V85.2383H645.508ZM642.324 87.3672V88.6172H631.973V87.3672H636.387V85.2383H637.91V87.3672H642.324ZM637.148 89.5742C639.629 89.5742 641.309 90.8438 641.328 92.8164C641.309 94.7695 639.629 96.0195 637.148 96.0195C634.648 96.0195 632.949 94.7695 632.969 92.8164C632.949 90.8438 634.648 89.5742 637.148 89.5742ZM637.148 90.7852C635.508 90.7852 634.414 91.5859 634.434 92.8164C634.414 94.0469 635.508 94.8281 637.148 94.8086C638.77 94.8281 639.863 94.0469 639.883 92.8164C639.863 91.5859 638.77 90.7852 637.148 90.7852ZM646.309 100.922V102.211H634.648V97.2109H636.152V100.922H646.309ZM662.656 85.2188V92.0938H665.566V93.3828H662.656V102.621H661.133V85.2188H662.656ZM658.086 86.918V88.1875H651.504V96.9766C654.648 96.9766 656.875 96.8301 659.453 96.3516L659.648 97.6797C656.934 98.168 654.648 98.2656 651.348 98.2656H649.98V86.918H658.086ZM675.293 86.7422V88.2852H679.355V85.2383H680.898V97.9141H679.355V93.2852H675.293V94.8477H667.324V86.7422H675.293ZM668.848 88.0117V93.6172H673.789V88.0117H668.848ZM681.289 100.922V102.211H669.668V96.7812H671.211V100.922H681.289ZM675.293 92.0156H679.355V89.5742H675.293V92.0156ZM689.668 101V86.8594H691.426V93.1484H698.906V86.8594H700.684V101H698.906V94.6914H691.426V101H689.668ZM708.027 101.215C704.961 101.215 703.066 99.0469 703.066 95.7852C703.066 92.5234 704.98 90.2578 707.871 90.2578C710.098 90.2578 712.441 91.625 712.441 95.5508V96.2539H704.746C704.824 98.5 706.133 99.7305 708.027 99.7305C709.297 99.7305 710.098 99.1836 710.488 98.5195H712.285C711.777 100.121 710.215 101.215 708.027 101.215ZM704.766 94.8281H710.742C710.742 93.0508 709.609 91.7422 707.871 91.7422C706.035 91.7422 704.863 93.1875 704.766 94.8281ZM718.633 101.215C715.996 101.215 714.121 99.0859 714.121 95.7266C714.121 92.3672 715.996 90.2578 718.652 90.2578C720.703 90.2578 721.367 91.5078 721.719 92.0742H721.836V86.8594H723.535V101H721.895V99.3789H721.719C721.348 99.9648 720.664 101.215 718.633 101.215ZM718.867 99.7109C720.801 99.7109 721.895 98.0703 721.895 95.6875C721.895 93.3438 720.84 91.7617 718.867 91.7617C716.836 91.7617 715.82 93.4805 715.82 95.6875C715.82 97.9531 716.855 99.7109 718.867 99.7109ZM730.742 105.199C728.184 105.199 726.445 104.086 726.25 102.113H728.008C728.242 103.188 729.238 103.734 730.742 103.734C732.559 103.734 733.672 102.953 733.672 101.195V99.0469H733.535C733.184 99.6328 732.5 100.844 730.449 100.844C727.871 100.844 725.938 98.8906 725.938 95.5508C725.938 92.2891 727.812 90.2578 730.469 90.2578C732.52 90.2578 733.184 91.5078 733.574 92.0742H733.711V90.3945H735.352V101.293C735.352 104.027 733.32 105.199 730.742 105.199ZM730.684 99.3398C732.617 99.3398 733.711 97.9531 733.711 95.6094C733.711 93.3438 732.656 91.7617 730.684 91.7617C728.652 91.7617 727.637 93.4805 727.637 95.6094C727.637 97.8164 728.672 99.3398 730.684 99.3398ZM742.48 101.215C739.414 101.215 737.52 99.0469 737.52 95.7852C737.52 92.5234 739.434 90.2578 742.324 90.2578C744.551 90.2578 746.895 91.625 746.895 95.5508V96.2539H739.199C739.277 98.5 740.586 99.7305 742.48 99.7305C743.75 99.7305 744.551 99.1836 744.941 98.5195H746.738C746.23 100.121 744.668 101.215 742.48 101.215ZM739.219 94.8281H745.195C745.195 93.0508 744.062 91.7422 742.324 91.7422C740.488 91.7422 739.316 93.1875 739.219 94.8281ZM763.32 85.2188V102.582H761.836V85.2188H763.32ZM759.824 85.5898V101.703H758.359V93.2656H756.133C755.967 96.6445 754.531 98.7539 752.383 98.7539C750.117 98.7539 748.652 96.4102 748.652 92.7188C748.652 89.0273 750.117 86.6836 752.383 86.6836C754.492 86.6836 755.918 88.7246 756.113 91.9961H758.359V85.5898H759.824ZM752.383 88.1289C750.977 88.1289 750.078 89.8867 750.098 92.7188C750.078 95.5312 750.977 97.3086 752.383 97.2891C753.789 97.3086 754.688 95.5312 754.688 92.7188C754.688 89.8867 753.789 88.1289 752.383 88.1289ZM776.777 88.4219C776.777 90.6875 778.516 92.8359 781.055 93.7148L780.254 94.9258C778.291 94.2227 776.777 92.7676 776.035 90.9805C775.283 92.9824 773.682 94.584 771.621 95.3359L770.82 94.125C773.379 93.207 775.234 90.8828 775.234 88.4414V87.6797H771.309V86.4297H780.664V87.6797H776.777V88.4219ZM785.137 96.5469V102.582H783.594V97.8164H773.457V96.5469H785.137ZM785.137 85.2188V95.6289H783.594V91.0586H780.117V89.7695H783.594V85.2188H785.137ZM801.602 85.2188V89.6719H804.219V90.9805H801.602V95.3164H800.078V85.2188H801.602ZM792.148 96.0781V97.9336H800.078V96.0781H801.602V102.348H790.625V96.0781H792.148ZM792.148 101.117H800.078V99.1445H792.148V101.117ZM798.418 87.0156V88.2852H788.066V87.0156H792.48V85.0625H794.004V87.0156H798.418ZM793.242 89.0859C795.742 89.0859 797.402 90.2773 797.422 92.1328C797.402 93.9883 795.742 95.1797 793.242 95.1797C790.723 95.1797 789.043 93.9883 789.062 92.1328C789.043 90.2773 790.723 89.0859 793.242 89.0859ZM793.242 90.2773C791.602 90.2578 790.508 91.0195 790.527 92.1328C790.508 93.2656 791.602 94.0078 793.242 94.0078C794.863 94.0078 795.957 93.2656 795.977 92.1328C795.957 91.0195 794.863 90.2578 793.242 90.2773Z" fill="black"/>
<path d="M279.922 158.367C278.828 158.367 277.93 157.469 277.93 156.355C277.93 155.262 278.828 154.363 279.922 154.363C281.035 154.363 281.934 155.262 281.934 156.355C281.934 157.469 281.035 158.367 279.922 158.367ZM309.258 146.219V152.312H311.855V153.602H309.258V159.812H307.715V146.219H309.258ZM309.883 161.922V163.211H298.223V158.895H299.766V161.922H309.883ZM295.625 156.551C297.002 156.551 298.633 156.541 300.332 156.473V155.145C298.311 154.959 297.012 153.992 297.012 152.527C297.012 150.848 298.633 149.852 301.074 149.852C303.535 149.852 305.137 150.848 305.156 152.527C305.137 153.982 303.867 154.949 301.855 155.145V156.395C303.486 156.316 305.127 156.16 306.641 155.926L306.777 157.02C303.047 157.723 298.848 157.781 295.801 157.801L295.625 156.551ZM306.113 147.938V149.09H296.055V147.938H300.332V146.18H301.855V147.938H306.113ZM301.074 150.945C299.473 150.945 298.477 151.551 298.477 152.527C298.477 153.484 299.473 154.09 301.074 154.09C302.676 154.09 303.691 153.484 303.691 152.527C303.691 151.551 302.676 150.945 301.074 150.945ZM320.898 146.434C324.766 146.434 327.031 147.508 327.031 149.441C327.031 151.395 324.766 152.449 320.898 152.469C317.031 152.449 314.746 151.395 314.746 149.441C314.746 147.508 317.031 146.434 320.898 146.434ZM320.898 147.605C318.008 147.625 316.328 148.289 316.348 149.441C316.328 150.633 318.008 151.277 320.898 151.297C323.77 151.277 325.469 150.633 325.469 149.441C325.469 148.289 323.77 147.625 320.898 147.605ZM328.809 153.523V154.773H324.395V156.492H326.777V160.379H316.465V162.176H327.305V163.387H314.941V159.246H325.273V157.664H314.902V156.492H317.305V154.773H312.988V153.523H328.809ZM318.809 156.492H322.871V154.773H318.809V156.492ZM338.184 146.531C342.051 146.531 344.316 147.586 344.316 149.52C344.316 151.492 342.051 152.547 338.184 152.566C334.316 152.547 332.031 151.492 332.031 149.52C332.031 147.586 334.316 146.531 338.184 146.531ZM338.184 147.684C335.293 147.684 333.613 148.387 333.633 149.52C333.613 150.73 335.293 151.395 338.184 151.395C341.055 151.395 342.754 150.73 342.754 149.52C342.754 148.387 341.055 147.684 338.184 147.684ZM346.094 153.738V154.988H330.273V153.738H346.094ZM344.062 156.492V160.379H333.75V162.176H344.59V163.387H332.227V159.246H342.559V157.664H332.188V156.492H344.062ZM366.504 147.977V149.715C366.484 151.844 366.484 154.227 365.859 157.723L364.297 157.547C364.961 154.227 364.961 151.785 364.961 149.715V149.246H354.258V147.977H366.504ZM368.398 159.852V161.121H352.578V159.852H358.789V153.641H360.293V159.852H368.398ZM384.258 146.219V156.57H382.715V152.02H379.219V150.75H382.715V146.219H384.258ZM378.496 157.117C382.109 157.117 384.316 158.289 384.316 160.34C384.316 162.391 382.109 163.562 378.496 163.582C374.883 163.562 372.676 162.391 372.676 160.34C372.676 158.289 374.883 157.117 378.496 157.117ZM378.496 158.309C375.84 158.309 374.18 159.07 374.199 160.34C374.18 161.59 375.84 162.352 378.496 162.352C381.152 162.352 382.793 161.59 382.793 160.34C382.793 159.07 381.152 158.309 378.496 158.309ZM375.898 149.402C375.898 151.668 377.637 153.816 380.176 154.695L379.375 155.926C377.422 155.223 375.908 153.768 375.176 151.961C374.414 154.002 372.803 155.633 370.742 156.414L369.941 155.184C372.52 154.246 374.355 151.902 374.355 149.422V148.777H370.43V147.488H379.785V148.777H375.898V149.402ZM400.586 146.219V153.387H403.496V154.656H400.586V163.582H399.062V146.219H400.586ZM397.383 149.012V150.281H387.051V149.012H391.523V146.434H393.047V149.012H397.383ZM392.305 151.727C394.766 151.727 396.543 153.367 396.562 155.711C396.543 158.055 394.766 159.695 392.305 159.695C389.824 159.695 388.027 158.055 388.047 155.711C388.027 153.367 389.824 151.727 392.305 151.727ZM392.305 153.016C390.684 153.016 389.492 154.148 389.512 155.711C389.492 157.293 390.684 158.406 392.305 158.387C393.906 158.406 395.078 157.293 395.098 155.711C395.078 154.148 393.906 153.016 392.305 153.016ZM418.789 146.219V163.582H417.246V146.219H418.789ZM413.652 148.113C413.633 153.113 411.309 157.527 405.488 160.32L404.648 159.07C409.346 156.844 411.738 153.514 412.09 149.363H405.449V148.113H413.652ZM432.461 147.078C435.059 147.059 436.914 148.484 436.914 150.613C436.914 152.723 435.059 154.188 432.461 154.168C429.863 154.188 428.008 152.723 428.008 150.613C428.008 148.484 429.863 147.059 432.461 147.078ZM432.461 148.328C430.723 148.309 429.492 149.266 429.512 150.613C429.492 151.98 430.723 152.918 432.461 152.898C434.219 152.918 435.449 151.98 435.449 150.613C435.449 149.266 434.219 148.309 432.461 148.328ZM441.055 146.238V163.602H439.551V146.238H441.055ZM426.699 155.652C429.961 155.652 434.414 155.594 438.281 155.027L438.379 156.18C436.719 156.482 434.99 156.668 433.32 156.766V163.055H431.797V156.863C430.029 156.941 428.359 156.951 426.914 156.961L426.699 155.652ZM457.598 146.238V151.961H460.215V153.25H457.598V159.246H456.074V146.238H457.598ZM454.414 148.367V149.617H444.062V148.367H448.477V146.238H450V148.367H454.414ZM449.238 150.574C451.719 150.574 453.398 151.844 453.418 153.816C453.398 155.77 451.719 157.02 449.238 157.02C446.738 157.02 445.039 155.77 445.059 153.816C445.039 151.844 446.738 150.574 449.238 150.574ZM449.238 151.785C447.598 151.785 446.504 152.586 446.523 153.816C446.504 155.047 447.598 155.828 449.238 155.809C450.859 155.828 451.953 155.047 451.973 153.816C451.953 152.586 450.859 151.785 449.238 151.785ZM458.398 161.922V163.211H446.738V158.211H448.242V161.922H458.398ZM481.074 146.219V158.406H479.609V146.219H481.074ZM477.871 146.512V157.078H476.406V152.879H474.453V151.59H476.406V146.512H477.871ZM474.941 148.406V149.637H466.23V148.406H469.824V146.375H471.348V148.406H474.941ZM470.586 150.516C472.715 150.516 474.199 151.785 474.199 153.68C474.199 155.555 472.715 156.844 470.586 156.844C468.477 156.844 466.973 155.555 466.973 153.68C466.973 151.785 468.477 150.516 470.586 150.516ZM470.586 151.688C469.238 151.707 468.34 152.508 468.34 153.68C468.34 154.852 469.238 155.633 470.586 155.613C471.934 155.633 472.812 154.852 472.832 153.68C472.812 152.508 471.934 151.707 470.586 151.688ZM476.035 158.133C476.035 160.242 479.004 161.941 482.09 162.332L481.504 163.504C478.857 163.133 476.338 161.932 475.273 160.086C474.199 161.932 471.66 163.133 469.004 163.504L468.477 162.332C471.543 161.941 474.492 160.242 474.512 158.133V157.684H476.035V158.133ZM489.824 151.551C489.824 154.5 491.973 157.488 494.531 158.602L493.672 159.812C491.641 158.885 489.883 156.883 489.082 154.48C488.262 157.029 486.514 159.246 484.531 160.242L483.613 159.031C486.094 157.84 488.262 154.559 488.281 151.551V149.285H484.18V148.016H493.965V149.285H489.824V151.551ZM497.93 146.219V163.582H496.387V146.219H497.93ZM514.629 147.84C514.629 150.281 517.832 152.41 520.957 152.84L520.332 154.09C517.637 153.641 514.971 152.146 513.848 150.008C512.734 152.156 510.059 153.641 507.363 154.09L506.738 152.84C509.863 152.41 513.047 150.32 513.047 147.84V146.844H514.629V147.84ZM521.738 156.004V157.293H514.551V163.582H513.047V157.293H505.918V156.004H521.738ZM531.914 147.84C531.914 150.281 535.117 152.41 538.242 152.84L537.617 154.09C534.922 153.641 532.256 152.146 531.133 150.008C530.02 152.156 527.344 153.641 524.648 154.09L524.023 152.84C527.148 152.41 530.332 150.32 530.332 147.84V146.844H531.914V147.84ZM539.023 156.004V157.293H531.836V163.582H530.332V157.293H523.203V156.004H539.023ZM556.387 160.145V161.434H540.488V160.145H544.961V156.844H542.48V151.492H552.871V148.777H542.441V147.508H554.375V152.762H544.004V155.574H554.785V156.844H552.07V160.145H556.387ZM546.465 160.145H550.566V156.844H546.465V160.145ZM571.211 146.219V153.289H574.023V154.578H571.211V163.582H569.688V146.219H571.211ZM566.719 148.094C566.719 153.016 564.414 157.488 558.75 160.281L557.891 159.07C562.383 156.834 564.824 153.494 565.176 149.383H558.691V148.094H566.719ZM582.324 146.961V149.461H587.383V146.961H588.906V154.52H580.82V146.961H582.324ZM582.324 153.27H587.383V150.652H582.324V153.27ZM593.652 146.219V149.988H596.27V151.277H593.652V155.203H592.129V146.219H593.652ZM593.652 156.023V160.223H584.121V162.137H594.297V163.387H582.617V159.051H592.129V157.254H582.578V156.023H593.652ZM602.539 149.676C602.539 151.59 603.887 153.543 606.113 154.383L605.312 155.555C603.643 154.91 602.441 153.67 601.816 152.176C601.172 153.836 599.932 155.311 598.223 156.043L597.383 154.852C599.668 153.855 601.074 151.609 601.074 149.676V147.312H602.539V149.676ZM612.109 146.238V156.961H610.645V152.176H608.34V156.414H606.895V146.57H608.34V150.906H610.645V146.238H612.109ZM606.367 157.352C609.961 157.352 612.207 158.484 612.207 160.457C612.207 162.41 609.961 163.543 606.367 163.543C602.754 163.543 600.527 162.41 600.547 160.457C600.527 158.484 602.754 157.352 606.367 157.352ZM606.367 158.523C603.711 158.523 602.051 159.246 602.07 160.457C602.051 161.648 603.711 162.352 606.367 162.352C609.004 162.352 610.664 161.648 610.684 160.457C610.664 159.246 609.004 158.523 606.367 158.523ZM628.086 146.219V153.387H630.996V154.656H628.086V163.582H626.562V146.219H628.086ZM624.883 149.012V150.281H614.551V149.012H619.023V146.434H620.547V149.012H624.883ZM619.805 151.727C622.266 151.727 624.043 153.367 624.062 155.711C624.043 158.055 622.266 159.695 619.805 159.695C617.324 159.695 615.527 158.055 615.547 155.711C615.527 153.367 617.324 151.727 619.805 151.727ZM619.805 153.016C618.184 153.016 616.992 154.148 617.012 155.711C616.992 157.293 618.184 158.406 619.805 158.387C621.406 158.406 622.578 157.293 622.598 155.711C622.578 154.148 621.406 153.016 619.805 153.016ZM646.289 146.219V163.582H644.746V146.219H646.289ZM641.152 148.113C641.133 153.113 638.809 157.527 632.988 160.32L632.148 159.07C636.846 156.844 639.238 153.514 639.59 149.363H632.949V148.113H641.152ZM665.742 146.609V153.328H667.852V146.219H669.316V163.582H667.852V154.598H665.742V162.723H664.316V146.609H665.742ZM658.535 148.426V149.695H656.191V157.742C656.846 157.723 657.705 157.645 658.652 157.41L658.789 158.719C657.324 159.051 656.191 159.051 655.449 159.051H654.766V148.426H658.535ZM663.145 148.426V149.695H660.684V157.742C661.494 157.732 662.461 157.654 663.516 157.352L663.652 158.66C662.207 159.051 661.016 159.051 660 159.051H659.297V148.426H663.145ZM687.402 155.105V156.375H680.332V159.93H678.809V156.375H671.504V155.105H687.402ZM685.332 147.078V153.113H673.574V147.078H685.332ZM675.078 148.289V151.883H683.809V148.289H675.078ZM685.625 161.922V163.211H673.535V158.211H675.078V161.922H685.625ZM703.691 146.219V163.582H702.207V146.219H703.691ZM700.195 146.59V162.703H698.73V154.266H696.504C696.338 157.645 694.902 159.754 692.754 159.754C690.488 159.754 689.023 157.41 689.023 153.719C689.023 150.027 690.488 147.684 692.754 147.684C694.863 147.684 696.289 149.725 696.484 152.996H698.73V146.59H700.195ZM692.754 149.129C691.348 149.129 690.449 150.887 690.469 153.719C690.449 156.531 691.348 158.309 692.754 158.289C694.16 158.309 695.059 156.531 695.059 153.719C695.059 150.887 694.16 149.129 692.754 149.129ZM725.43 146.219V163.621H723.887V146.219H725.43ZM713.652 147.703V152.293H718.828V147.703H720.332V159.422H712.129V147.703H713.652ZM713.652 158.133H718.828V153.523H713.652V158.133ZM742.344 147.977V149.91C742.344 152.137 742.344 154.383 741.719 157.605L740.215 157.43C740.84 154.363 740.84 152.078 740.84 149.91V149.246H730.059V147.977H742.344ZM744.219 159.852V161.121H728.398V159.852H732.324V154.129H733.848V159.852H736.66V154.129H738.164V159.852H744.219ZM751.719 149.422C751.719 151.688 753.457 153.836 755.996 154.715L755.195 155.926C753.232 155.223 751.719 153.768 750.977 151.98C750.225 153.982 748.623 155.584 746.562 156.336L745.762 155.125C748.32 154.207 750.176 151.883 750.176 149.441V148.68H746.25V147.43H755.605V148.68H751.719V149.422ZM760.078 157.547V163.582H758.535V158.816H748.398V157.547H760.078ZM760.078 146.219V156.629H758.535V152.059H755.059V150.77H758.535V146.219H760.078ZM781.562 146.219V151.395H784.199V152.684H781.562V158.797H780.039V146.219H781.562ZM776.543 147.723V149.012H770.332V154.422C773.818 154.422 775.801 154.334 778.125 153.855L778.32 155.125C775.879 155.594 773.809 155.711 770.156 155.711H768.809V147.723H776.543ZM782.363 161.922V163.211H770.703V157.527H772.207V161.922H782.363ZM799.629 146.219V163.582H798.086V146.219H799.629ZM794.492 148.113C794.473 153.113 792.148 157.527 786.328 160.32L785.488 159.07C790.186 156.844 792.578 153.514 792.93 149.363H786.289V148.113H794.492ZM311.582 186.746V188.016H304.355V193.582H302.852V188.016H295.684V186.746H311.582ZM309.785 183.699V184.949H297.812V177.039H309.59V178.289H299.336V180.32H309.18V181.551H299.336V183.699H309.785ZM318.867 181.551C318.848 184.344 320.859 187.41 323.379 188.602L322.5 189.812C320.547 188.865 318.896 186.795 318.125 184.441C317.324 187 315.576 189.246 313.633 190.242L312.695 189.031C315.195 187.82 317.344 184.52 317.363 181.551V179.285H313.32V178.016H322.773V179.285H318.867V181.551ZM326.426 176.219V183.25H329.336V184.559H326.426V193.582H324.902V176.219H326.426ZM345.156 176.219V193.582H343.672V176.219H345.156ZM341.66 176.59V192.703H340.195V184.266H337.969C337.803 187.645 336.367 189.754 334.219 189.754C331.953 189.754 330.488 187.41 330.488 183.719C330.488 180.027 331.953 177.684 334.219 177.684C336.328 177.684 337.754 179.725 337.949 182.996H340.195V176.59H341.66ZM334.219 179.129C332.812 179.129 331.914 180.887 331.934 183.719C331.914 186.531 332.812 188.309 334.219 188.289C335.625 188.309 336.523 186.531 336.523 183.719C336.523 180.887 335.625 179.129 334.219 179.129ZM358.613 179.422C358.613 181.688 360.352 183.836 362.891 184.715L362.09 185.926C360.127 185.223 358.613 183.768 357.871 181.98C357.119 183.982 355.518 185.584 353.457 186.336L352.656 185.125C355.215 184.207 357.07 181.883 357.07 179.441V178.68H353.145V177.43H362.5V178.68H358.613V179.422ZM366.973 187.547V193.582H365.43V188.816H355.293V187.547H366.973ZM366.973 176.219V186.629H365.43V182.059H361.953V180.77H365.43V176.219H366.973ZM383.438 176.219V180.672H386.055V181.98H383.438V186.316H381.914V176.219H383.438ZM373.984 187.078V188.934H381.914V187.078H383.438V193.348H372.461V187.078H373.984ZM373.984 192.117H381.914V190.145H373.984V192.117ZM380.254 178.016V179.285H369.902V178.016H374.316V176.062H375.84V178.016H380.254ZM375.078 180.086C377.578 180.086 379.238 181.277 379.258 183.133C379.238 184.988 377.578 186.18 375.078 186.18C372.559 186.18 370.879 184.988 370.898 183.133C370.879 181.277 372.559 180.086 375.078 180.086ZM375.078 181.277C373.438 181.258 372.344 182.02 372.363 183.133C372.344 184.266 373.438 185.008 375.078 185.008C376.699 185.008 377.793 184.266 377.812 183.133C377.793 182.02 376.699 181.258 375.078 181.277Z" fill="black"/>
<line x1="231.5" y1="61" x2="231.5" y2="208" stroke="#E5E5E5" stroke-width="3"/>
<g filter="url(#filter1_d_568_279)">
<rect x="16" y="320" width="866" height="213" rx="40" fill="#F5F5F5"/>
</g>
<path d="M124.77 399.496H129.046V412.807C129.046 417.31 125.647 420.283 120.55 420.283C115.452 420.283 112.082 417.31 112.082 412.807V399.496H116.33V412.467C116.33 414.817 118.001 416.545 120.55 416.545C123.127 416.545 124.77 414.817 124.77 412.467V399.496ZM132.501 420V399.496H136.749V407.992H145.642V399.496H149.918V420H145.642V411.504H136.749V420H132.501ZM58.3159 447.184C58.3159 441.859 59.9585 437.441 62.6772 433.618H66.6704C64.7163 436.45 62.6772 442.114 62.6772 447.184C62.6772 452.281 64.7163 457.945 66.6704 460.777H62.6772C59.9585 456.954 58.3159 452.508 58.3159 447.184ZM81.7651 434.496H86.0415V447.807C86.0415 452.31 82.6431 455.283 77.5454 455.283C72.4478 455.283 69.0776 452.31 69.0776 447.807V434.496H73.3257V447.467C73.3257 449.817 74.9966 451.545 77.5454 451.545C80.1226 451.545 81.7651 449.817 81.7651 447.467V434.496ZM93.603 446.107V455H89.4116V439.622H93.4048V442.312H93.5747C94.2827 440.528 95.9253 439.424 98.1909 439.424C101.391 439.424 103.515 441.604 103.487 445.201V455H99.3237V445.938C99.3237 444.04 98.2759 442.907 96.5483 442.907C94.7925 442.907 93.603 444.068 93.603 446.107ZM106.829 455V434.496H111.077V442.992H119.969V434.496H124.246V455H119.969V446.504H111.077V455H106.829ZM134.583 455.312C129.881 455.312 126.993 452.253 126.993 447.382C126.993 442.624 129.91 439.424 134.413 439.424C138.462 439.424 141.634 441.973 141.634 447.212V448.401H131.127C131.127 450.724 132.515 452.168 134.667 452.168C136.083 452.168 137.103 451.545 137.528 450.61H141.521C140.926 453.442 138.377 455.312 134.583 455.312ZM131.127 445.768H137.669C137.669 443.898 136.367 442.567 134.498 442.567C132.572 442.567 131.198 443.998 131.127 445.768ZM149.932 455.255C146.42 455.255 143.673 452.451 143.673 447.325C143.673 442.058 146.534 439.424 149.932 439.424C152.509 439.424 153.727 440.953 154.293 442.199H154.435V434.496H158.626V455H154.492V452.536H154.293C153.699 453.811 152.424 455.255 149.932 455.255ZM151.235 451.913C153.331 451.913 154.52 450.072 154.52 447.297C154.52 444.521 153.331 442.766 151.235 442.766C149.111 442.766 147.978 444.606 147.978 447.297C147.978 450.016 149.111 451.913 151.235 451.913ZM168.907 461.089C164.659 461.089 162.053 459.191 161.798 456.274H165.933C166.16 457.492 167.321 458.059 168.992 458.059C170.946 458.059 172.249 457.237 172.249 455.085V452.281H172.05C171.484 453.527 170.125 454.773 167.661 454.773C164.177 454.773 161.402 452.338 161.402 447.212C161.402 442.001 164.262 439.424 167.661 439.424C170.238 439.424 171.484 440.953 172.05 442.199H172.22V439.622H176.383V455.17C176.383 459.078 173.268 461.089 168.907 461.089ZM168.963 451.63C171.059 451.63 172.249 449.987 172.249 447.269C172.249 444.521 171.059 442.766 168.963 442.766C166.839 442.766 165.707 444.606 165.707 447.269C165.707 449.931 166.839 451.63 168.963 451.63ZM186.607 455.312C181.906 455.312 179.017 452.253 179.017 447.382C179.017 442.624 181.934 439.424 186.437 439.424C190.487 439.424 193.659 441.973 193.659 447.212V448.401H183.152C183.152 450.724 184.54 452.168 186.692 452.168C188.108 452.168 189.127 451.545 189.552 450.61H193.545C192.951 453.442 190.402 455.312 186.607 455.312ZM183.152 445.768H189.694C189.694 443.898 188.391 442.567 186.522 442.567C184.596 442.567 183.223 443.998 183.152 445.768ZM203.684 447.184C203.684 452.508 202.042 456.954 199.323 460.777H195.33C197.284 457.945 199.323 452.281 199.323 447.184C199.323 442.114 197.284 436.45 195.33 433.618H199.323C202.042 437.441 203.684 441.859 203.684 447.184Z" fill="#0249FF"/>
<line x1="231.5" y1="353" x2="231.5" y2="500" stroke="#E5E5E5" stroke-width="3"/>
<path d="M279.922 388.367C278.828 388.367 277.93 387.469 277.93 386.355C277.93 385.262 278.828 384.363 279.922 384.363C281.035 384.363 281.934 385.262 281.934 386.355C281.934 387.469 281.035 388.367 279.922 388.367ZM309.258 376.219V382.312H311.855V383.602H309.258V389.812H307.715V376.219H309.258ZM309.883 391.922V393.211H298.223V388.895H299.766V391.922H309.883ZM295.625 386.551C297.002 386.551 298.633 386.541 300.332 386.473V385.145C298.311 384.959 297.012 383.992 297.012 382.527C297.012 380.848 298.633 379.852 301.074 379.852C303.535 379.852 305.137 380.848 305.156 382.527C305.137 383.982 303.867 384.949 301.855 385.145V386.395C303.486 386.316 305.127 386.16 306.641 385.926L306.777 387.02C303.047 387.723 298.848 387.781 295.801 387.801L295.625 386.551ZM306.113 377.938V379.09H296.055V377.938H300.332V376.18H301.855V377.938H306.113ZM301.074 380.945C299.473 380.945 298.477 381.551 298.477 382.527C298.477 383.484 299.473 384.09 301.074 384.09C302.676 384.09 303.691 383.484 303.691 382.527C303.691 381.551 302.676 380.945 301.074 380.945ZM320.898 376.434C324.766 376.434 327.031 377.508 327.031 379.441C327.031 381.395 324.766 382.449 320.898 382.469C317.031 382.449 314.746 381.395 314.746 379.441C314.746 377.508 317.031 376.434 320.898 376.434ZM320.898 377.605C318.008 377.625 316.328 378.289 316.348 379.441C316.328 380.633 318.008 381.277 320.898 381.297C323.77 381.277 325.469 380.633 325.469 379.441C325.469 378.289 323.77 377.625 320.898 377.605ZM328.809 383.523V384.773H324.395V386.492H326.777V390.379H316.465V392.176H327.305V393.387H314.941V389.246H325.273V387.664H314.902V386.492H317.305V384.773H312.988V383.523H328.809ZM318.809 386.492H322.871V384.773H318.809V386.492ZM341.094 379.031C341.094 381.395 342.891 383.562 345.41 384.422L344.57 385.633C342.646 384.93 341.133 383.494 340.371 381.688C339.629 383.729 338.086 385.34 336.055 386.121L335.234 384.891C337.832 383.914 339.57 381.59 339.59 378.914V377.117H341.094V379.031ZM348.867 376.219V380.75H351.484V382.039H348.867V386.785H347.344V376.219H348.867ZM343.301 387.234C346.875 387.234 349.023 388.387 349.023 390.379C349.023 392.41 346.875 393.543 343.301 393.543C339.727 393.543 337.539 392.41 337.539 390.379C337.539 388.387 339.727 387.234 343.301 387.234ZM343.301 388.465C340.684 388.465 339.062 389.188 339.082 390.379C339.062 391.609 340.684 392.312 343.301 392.332C345.938 392.312 347.539 391.609 347.539 390.379C347.539 389.188 345.938 388.465 343.301 388.465ZM361.289 377.312C361.289 379.52 364.453 381.512 367.461 381.902L366.895 383.113C364.238 382.713 361.611 381.307 360.508 379.324C359.404 381.326 356.768 382.713 354.102 383.113L353.496 381.902C356.562 381.512 359.707 379.578 359.707 377.312V376.512H361.289V377.312ZM368.398 384.52V385.77H352.578V384.52H368.398ZM360.488 387.41C364.219 387.41 366.445 388.484 366.465 390.477C366.445 392.449 364.219 393.562 360.488 393.582C356.719 393.562 354.492 392.449 354.492 390.477C354.492 388.484 356.719 387.41 360.488 387.41ZM360.488 388.582C357.695 388.602 356.035 389.285 356.055 390.477C356.035 391.688 357.695 392.352 360.488 392.352C363.242 392.352 364.922 391.688 364.922 390.477C364.922 389.285 363.242 388.602 360.488 388.582ZM384.18 376.219V393.621H382.637V376.219H384.18ZM374.941 377.566C377.52 377.586 379.375 379.93 379.375 383.621C379.375 387.312 377.52 389.656 374.941 389.656C372.344 389.656 370.508 387.312 370.508 383.621C370.508 379.93 372.344 377.586 374.941 377.566ZM374.941 378.934C373.203 378.953 371.992 380.789 371.992 383.621C371.992 386.453 373.203 388.289 374.941 388.289C376.68 388.289 377.891 386.453 377.891 383.621C377.891 380.789 376.68 378.953 374.941 378.934ZM407.051 376.219V393.582H405.566V376.219H407.051ZM403.594 376.59V392.703H402.129V387H399.355C398.75 388.738 397.598 389.754 396.113 389.754C393.848 389.754 392.383 387.41 392.383 383.719C392.383 380.027 393.848 377.684 396.113 377.684C397.598 377.684 398.75 378.699 399.355 380.438H402.129V376.59H403.594ZM396.113 379.129C394.688 379.129 393.809 380.887 393.809 383.719C393.809 386.531 394.688 388.309 396.113 388.289C397.52 388.309 398.438 386.531 398.438 383.719C398.438 380.887 397.52 379.129 396.113 379.129ZM399.688 381.707C399.805 382.322 399.863 382.996 399.863 383.719C399.863 384.432 399.805 385.105 399.707 385.711H402.129V381.707H399.688ZM415.254 379.031C415.254 381.395 417.051 383.562 419.57 384.422L418.73 385.633C416.807 384.93 415.293 383.494 414.531 381.688C413.789 383.729 412.246 385.34 410.215 386.121L409.395 384.891C411.992 383.914 413.73 381.59 413.75 378.914V377.117H415.254V379.031ZM423.027 376.219V380.75H425.645V382.039H423.027V386.785H421.504V376.219H423.027ZM417.461 387.234C421.035 387.234 423.184 388.387 423.184 390.379C423.184 392.41 421.035 393.543 417.461 393.543C413.887 393.543 411.699 392.41 411.699 390.379C411.699 388.387 413.887 387.234 417.461 387.234ZM417.461 388.465C414.844 388.465 413.223 389.188 413.242 390.379C413.223 391.609 414.844 392.312 417.461 392.332C420.098 392.312 421.699 391.609 421.699 390.379C421.699 389.188 420.098 388.465 417.461 388.465ZM437.09 383.719V384.988H433.281V388.406C434.98 388.338 436.689 388.221 438.301 388.035L438.418 389.188C434.57 389.754 430.371 389.812 427.051 389.812L426.836 388.523C428.35 388.523 430.029 388.514 431.758 388.465V384.988H428.164V377.879H437.012V379.129H429.668V383.719H437.09ZM440.977 376.219V393.621H439.453V376.219H440.977ZM457.949 377.977V379.715C457.93 381.844 457.93 384.227 457.305 387.723L455.742 387.547C456.406 384.227 456.406 381.785 456.406 379.715V379.246H445.703V377.977H457.949ZM459.844 389.852V391.121H444.023V389.852H450.234V383.641H451.738V389.852H459.844ZM475.098 378.68C475.078 381.004 478.184 382.977 481.211 383.426L480.645 384.637C477.93 384.178 475.293 382.732 474.238 380.633C473.184 382.732 470.537 384.178 467.871 384.637L467.266 383.426C470.273 382.977 473.379 381.004 473.379 378.68V378.562H467.812V377.312H480.645V378.562H475.098V378.68ZM482.148 386.121V387.391H474.961V393.582H473.457V387.391H466.328V386.121H482.148ZM497.051 376.219V383.289H499.863V384.578H497.051V393.582H495.527V376.219H497.051ZM492.559 378.094C492.559 383.016 490.254 387.488 484.59 390.281L483.73 389.07C488.223 386.834 490.664 383.494 491.016 379.383H484.531V378.094H492.559ZM520.312 376.238V389.09H518.77V384.422H514.668V386.121H506.797V377.391H508.32V380.477H513.164V377.391H514.668V379.422H518.77V376.238H520.312ZM520.703 391.922V393.211H509.082V387.82H510.625V391.922H520.703ZM508.32 384.852H513.164V381.688H508.32V384.852ZM514.668 383.152H518.77V380.711H514.668V383.152ZM539.043 384.812V386.043H523.203V384.812H530.371V382.781H525.215V377.039H537.07V378.27H526.719V381.531H537.188V382.781H531.855V384.812H539.043ZM531.113 387.312C534.844 387.312 537.07 388.445 537.09 390.438C537.07 392.449 534.844 393.562 531.113 393.582C527.363 393.562 525.117 392.449 525.117 390.438C525.117 388.445 527.363 387.312 531.113 387.312ZM531.113 388.523C528.32 388.523 526.66 389.246 526.68 390.438C526.66 391.648 528.32 392.352 531.113 392.352C533.867 392.352 535.547 391.648 535.547 390.438C535.547 389.246 533.867 388.523 531.113 388.523ZM551.191 377.352C553.926 377.371 555.859 379.012 555.859 381.434C555.859 383.621 554.277 385.174 551.953 385.438V388.406C553.672 388.318 555.42 388.172 557.07 387.918L557.188 389.051C553.223 389.793 548.945 389.812 545.82 389.812L545.605 388.523C547.021 388.523 548.672 388.523 550.41 388.465V385.438C548.086 385.164 546.484 383.621 546.504 381.434C546.484 379.012 548.457 377.371 551.191 377.352ZM551.191 378.699C549.336 378.699 547.988 379.812 548.008 381.434C547.988 383.055 549.336 384.188 551.191 384.168C553.027 384.188 554.355 383.055 554.355 381.434C554.355 379.812 553.027 378.699 551.191 378.699ZM559.746 376.219V393.621H558.223V376.219H559.746ZM577.676 376.219V393.582H576.191V376.219H577.676ZM574.18 376.59V392.703H572.715V384.266H570.488C570.322 387.645 568.887 389.754 566.738 389.754C564.473 389.754 563.008 387.41 563.008 383.719C563.008 380.027 564.473 377.684 566.738 377.684C568.848 377.684 570.273 379.725 570.469 382.996H572.715V376.59H574.18ZM566.738 379.129C565.332 379.129 564.434 380.887 564.453 383.719C564.434 386.531 565.332 388.309 566.738 388.289C568.145 388.309 569.043 386.531 569.043 383.719C569.043 380.887 568.145 379.129 566.738 379.129ZM594.102 384.363V385.613H588.73V390.105H595.977V391.395H580.078V390.105H587.227V385.613H582.109V377.645H593.926V378.895H583.652V384.363H594.102ZM615.938 376.219V382.312H618.535V383.602H615.938V389.812H614.395V376.219H615.938ZM616.562 391.922V393.211H604.902V388.895H606.445V391.922H616.562ZM602.305 386.551C603.682 386.551 605.312 386.541 607.012 386.473V385.145C604.99 384.959 603.691 383.992 603.691 382.527C603.691 380.848 605.312 379.852 607.754 379.852C610.215 379.852 611.816 380.848 611.836 382.527C611.816 383.982 610.547 384.949 608.535 385.145V386.395C610.166 386.316 611.807 386.16 613.32 385.926L613.457 387.02C609.727 387.723 605.527 387.781 602.48 387.801L602.305 386.551ZM612.793 377.938V379.09H602.734V377.938H607.012V376.18H608.535V377.938H612.793ZM607.754 380.945C606.152 380.945 605.156 381.551 605.156 382.527C605.156 383.484 606.152 384.09 607.754 384.09C609.355 384.09 610.371 383.484 610.371 382.527C610.371 381.551 609.355 380.945 607.754 380.945ZM625.449 381.883C625.449 384.656 627.266 387.508 629.785 388.719L628.887 389.91C626.973 388.973 625.459 387.078 624.746 384.832C623.984 387.244 622.373 389.266 620.391 390.223L619.512 389.031C622.051 387.84 623.945 384.871 623.965 381.883V380.496H619.98V379.246H623.945V376.551H625.488V379.246H629.395V380.496H625.449V381.883ZM633.105 376.219V383.348H636.016V384.656H633.105V393.582H631.582V376.219H633.105ZM651.289 387.488V393.582H649.766V388.777H639.609V387.488H651.289ZM651.289 376.219V386.551H649.766V376.219H651.289ZM641.914 377.273C644.551 377.254 646.465 378.953 646.465 381.355C646.465 383.797 644.551 385.477 641.914 385.477C639.277 385.477 637.363 383.797 637.363 381.355C637.363 378.953 639.277 377.254 641.914 377.273ZM641.914 378.582C640.137 378.582 638.848 379.715 638.867 381.355C638.848 383.016 640.137 384.168 641.914 384.148C643.672 384.168 644.961 383.016 644.961 381.355C644.961 379.715 643.672 378.582 641.914 378.582ZM667.988 376.219V383.387H670.625V384.676H667.988V393.582H666.445V376.219H667.988ZM659.512 378.113C659.492 382.254 658.555 386.316 655.41 389.656L654.18 388.777C656.807 386.092 657.861 382.859 658.066 379.402H654.727V378.113H659.512ZM664.277 378.113C664.258 382.234 663.652 387.02 660.41 390.809L659.16 389.949C661.875 386.883 662.695 383.025 662.832 379.402H660.059V378.113H664.277ZM677.734 381.551C677.734 384.5 679.883 387.488 682.441 388.602L681.582 389.812C679.551 388.885 677.793 386.883 676.992 384.48C676.172 387.029 674.424 389.246 672.441 390.242L671.523 389.031C674.004 387.84 676.172 384.559 676.191 381.551V379.285H672.09V378.016H681.875V379.285H677.734V381.551ZM685.84 376.219V393.582H684.297V376.219H685.84ZM707.891 384.129V385.418H702.5V390.047H709.727V391.316H693.828V390.047H700.977V385.418H695.781V377.703H697.344V384.129H707.891ZM725.488 376.219V393.621H723.965V386.219H720.352V384.93H723.965V381.473H720.488V380.184H723.965V376.219H725.488ZM719.355 377.801V383.973H713.301V388.25C715.908 388.24 718.066 388.143 720.703 387.742L720.84 389.031C718.066 389.461 715.84 389.559 713.066 389.559H711.777V382.723H717.852V379.07H711.719V377.801H719.355ZM741.27 387.195C745 387.195 747.363 388.367 747.363 390.379C747.363 392.371 745 393.543 741.27 393.543C737.559 393.543 735.195 392.371 735.195 390.379C735.195 388.367 737.559 387.195 741.27 387.195ZM741.27 388.367C738.496 388.387 736.699 389.148 736.719 390.379C736.699 391.59 738.496 392.332 741.27 392.332C744.043 392.332 745.82 391.59 745.84 390.379C745.82 389.148 744.043 388.387 741.27 388.367ZM747.227 377.117V378.582C747.227 379.988 747.227 381.395 746.738 383.191L745.234 383.016C745.703 381.219 745.703 379.949 745.703 378.582V378.367H735.312V377.117H747.227ZM749.238 384.324V385.574H733.438V384.324H739.98V380.965H741.484V384.324H749.238ZM759.863 377.41C759.863 378.084 759.785 378.729 759.648 379.344H763.555V376.238H765.098V386.59H763.555V384.285H758.945V383.016H763.555V380.613H759.238C758.057 383.348 755.342 385.32 751.582 386.355L750.977 385.125C755.215 383.953 757.9 381.619 758.223 378.66H751.855V377.41H759.863ZM765.098 387.352V393.562H763.555V388.582H753.418V387.352H765.098ZM774.023 379.422C774.023 381.688 775.762 383.836 778.301 384.715L777.5 385.926C775.537 385.223 774.023 383.768 773.281 381.98C772.529 383.982 770.928 385.584 768.867 386.336L768.066 385.125C770.625 384.207 772.48 381.883 772.48 379.441V378.68H768.555V377.43H777.91V378.68H774.023V379.422ZM782.383 387.547V393.582H780.84V388.816H770.703V387.547H782.383ZM782.383 376.219V386.629H780.84V382.059H777.363V380.77H780.84V376.219H782.383ZM793.184 377.352C796.816 377.352 799.531 379.246 799.531 382.117C799.531 385.008 796.816 386.902 793.184 386.883C789.551 386.902 786.836 385.008 786.836 382.117C786.836 379.246 789.551 377.352 793.184 377.352ZM793.184 378.602C790.391 378.582 788.281 380.047 788.301 382.117C788.281 384.227 790.391 385.633 793.184 385.633C795.957 385.633 798.047 384.227 798.047 382.117C798.047 380.047 795.957 378.582 793.184 378.602ZM801.172 389.988V391.277H785.273V389.988H801.172ZM818.457 390.145V391.434H802.559V390.145H809.707V386.863H804.551V381.512H814.941V378.777H804.512V377.508H816.445V382.762H806.074V385.594H816.855V386.863H811.211V390.145H818.457ZM833.574 377.84C833.574 380.281 836.777 382.41 839.902 382.84L839.277 384.09C836.582 383.641 833.916 382.146 832.793 380.008C831.68 382.156 829.004 383.641 826.309 384.09L825.684 382.84C828.809 382.41 831.992 380.32 831.992 377.84V376.844H833.574V377.84ZM840.684 386.004V387.293H833.496V393.582H831.992V387.293H824.863V386.004H840.684ZM310.039 417.488V423.582H308.516V418.777H298.359V417.488H310.039ZM310.039 406.219V416.551H308.516V406.219H310.039ZM300.664 407.273C303.301 407.254 305.215 408.953 305.215 411.355C305.215 413.797 303.301 415.477 300.664 415.477C298.027 415.477 296.113 413.797 296.113 411.355C296.113 408.953 298.027 407.254 300.664 407.273ZM300.664 408.582C298.887 408.582 297.598 409.715 297.617 411.355C297.598 413.016 298.887 414.168 300.664 414.148C302.422 414.168 303.711 413.016 303.711 411.355C303.711 409.715 302.422 408.582 300.664 408.582ZM318.965 408.953C318.945 411.434 320.703 413.621 323.262 414.48L322.402 415.672C320.488 414.949 318.984 413.543 318.242 411.707C317.49 413.787 315.898 415.408 313.809 416.199L312.969 414.949C315.645 414.012 317.422 411.707 317.441 409.012V407.215H318.965V408.953ZM327.383 406.219V416.512H325.84V411.219H321.973V409.949H325.84V406.219H327.383ZM321.621 417.02C325.234 417.02 327.441 418.211 327.441 420.301C327.441 422.371 325.234 423.543 321.621 423.543C318.008 423.543 315.801 422.371 315.801 420.301C315.801 418.211 318.008 417.02 321.621 417.02ZM321.621 418.23C318.965 418.23 317.305 419.012 317.324 420.301C317.305 421.551 318.965 422.312 321.621 422.312C324.277 422.312 325.918 421.551 325.918 420.301C325.918 419.012 324.277 418.23 321.621 418.23ZM338.184 406.531C342.051 406.531 344.316 407.586 344.316 409.52C344.316 411.492 342.051 412.547 338.184 412.566C334.316 412.547 332.031 411.492 332.031 409.52C332.031 407.586 334.316 406.531 338.184 406.531ZM338.184 407.684C335.293 407.684 333.613 408.387 333.633 409.52C333.613 410.73 335.293 411.395 338.184 411.395C341.055 411.395 342.754 410.73 342.754 409.52C342.754 408.387 341.055 407.684 338.184 407.684ZM346.094 413.738V414.988H330.273V413.738H346.094ZM344.062 416.492V420.379H333.75V422.176H344.59V423.387H332.227V419.246H342.559V417.664H332.188V416.492H344.062ZM368.398 416.727V418.016H361.23V423.621H359.727V418.016H352.578V416.727H368.398ZM361.25 409.656C361.25 411.824 364.277 413.719 367.383 414.148L366.816 415.379C364.131 414.969 361.602 413.621 360.508 411.727C359.395 413.641 356.826 414.969 354.141 415.379L353.574 414.148C356.66 413.719 359.727 411.844 359.727 409.656V409.637H354.121V408.387H359.727V406.219H361.23V408.387H366.875V409.637H361.25V409.656ZM383.594 407.352V408.875C383.594 410.525 383.594 412.312 383.105 414.812H385.684V416.082H378.516V423.621H376.973V416.082H369.863V414.812H381.543C382.07 412.312 382.07 410.486 382.07 408.875V408.621H371.855V407.352H383.594ZM400.723 406.238V411.961H403.34V413.25H400.723V419.246H399.199V406.238H400.723ZM397.539 408.367V409.617H387.188V408.367H391.602V406.238H393.125V408.367H397.539ZM392.363 410.574C394.844 410.574 396.523 411.844 396.543 413.816C396.523 415.77 394.844 417.02 392.363 417.02C389.863 417.02 388.164 415.77 388.184 413.816C388.164 411.844 389.863 410.574 392.363 410.574ZM392.363 411.785C390.723 411.785 389.629 412.586 389.648 413.816C389.629 415.047 390.723 415.828 392.363 415.809C393.984 415.828 395.078 415.047 395.098 413.816C395.078 412.586 393.984 411.785 392.363 411.785ZM401.523 421.922V423.211H389.863V418.211H391.367V421.922H401.523ZM417.871 406.219V413.094H420.781V414.383H417.871V423.621H416.348V406.219H417.871ZM413.301 407.918V409.188H406.719V417.977C409.863 417.977 412.09 417.83 414.668 417.352L414.863 418.68C412.148 419.168 409.863 419.266 406.562 419.266H405.195V407.918H413.301ZM430.508 407.742V409.285H434.57V406.238H436.113V418.914H434.57V414.285H430.508V415.848H422.539V407.742H430.508ZM424.062 409.012V414.617H429.004V409.012H424.062ZM436.504 421.922V423.211H424.883V417.781H426.426V421.922H436.504ZM430.508 413.016H434.57V410.574H430.508V413.016ZM454.141 407.859H455.898V417.215C455.898 420.125 453.73 422.254 450.391 422.254C447.051 422.254 444.883 420.125 444.883 417.215V407.859H446.641V417.078C446.641 419.129 448.066 420.613 450.391 420.613C452.734 420.613 454.141 419.129 454.141 417.078V407.859ZM460.488 415.633V422H458.809V411.395H460.43V413.055H460.566C461.074 411.98 462.051 411.258 463.672 411.258C465.82 411.258 467.246 412.566 467.246 415.262V422H465.566V415.379C465.566 413.738 464.668 412.762 463.164 412.762C461.621 412.762 460.488 413.797 460.488 415.633ZM470.156 422V407.859H471.914V414.148H479.395V407.859H481.172V422H479.395V415.691H471.914V422H470.156ZM488.516 422.215C485.449 422.215 483.555 420.047 483.555 416.785C483.555 413.523 485.469 411.258 488.359 411.258C490.586 411.258 492.93 412.625 492.93 416.551V417.254H485.234C485.312 419.5 486.621 420.73 488.516 420.73C489.785 420.73 490.586 420.184 490.977 419.52H492.773C492.266 421.121 490.703 422.215 488.516 422.215ZM485.254 415.828H491.23C491.23 414.051 490.098 412.742 488.359 412.742C486.523 412.742 485.352 414.188 485.254 415.828ZM499.121 422.215C496.484 422.215 494.609 420.086 494.609 416.727C494.609 413.367 496.484 411.258 499.141 411.258C501.191 411.258 501.855 412.508 502.207 413.074H502.324V407.859H504.023V422H502.383V420.379H502.207C501.836 420.965 501.152 422.215 499.121 422.215ZM499.355 420.711C501.289 420.711 502.383 419.07 502.383 416.688C502.383 414.344 501.328 412.762 499.355 412.762C497.324 412.762 496.309 414.48 496.309 416.688C496.309 418.953 497.344 420.711 499.355 420.711ZM511.23 426.199C508.672 426.199 506.934 425.086 506.738 423.113H508.496C508.73 424.188 509.727 424.734 511.23 424.734C513.047 424.734 514.16 423.953 514.16 422.195V420.047H514.023C513.672 420.633 512.988 421.844 510.938 421.844C508.359 421.844 506.426 419.891 506.426 416.551C506.426 413.289 508.301 411.258 510.957 411.258C513.008 411.258 513.672 412.508 514.062 413.074H514.199V411.395H515.84V422.293C515.84 425.027 513.809 426.199 511.23 426.199ZM511.172 420.34C513.105 420.34 514.199 418.953 514.199 416.609C514.199 414.344 513.145 412.762 511.172 412.762C509.141 412.762 508.125 414.48 508.125 416.609C508.125 418.816 509.16 420.34 511.172 420.34ZM522.969 422.215C519.902 422.215 518.008 420.047 518.008 416.785C518.008 413.523 519.922 411.258 522.812 411.258C525.039 411.258 527.383 412.625 527.383 416.551V417.254H519.688C519.766 419.5 521.074 420.73 522.969 420.73C524.238 420.73 525.039 420.184 525.43 419.52H527.227C526.719 421.121 525.156 422.215 522.969 422.215ZM519.707 415.828H525.684C525.684 414.051 524.551 412.742 522.812 412.742C520.977 412.742 519.805 414.188 519.707 415.828ZM543.809 406.219V423.582H542.324V406.219H543.809ZM540.312 406.59V422.703H538.848V414.266H536.621C536.455 417.645 535.02 419.754 532.871 419.754C530.605 419.754 529.141 417.41 529.141 413.719C529.141 410.027 530.605 407.684 532.871 407.684C534.98 407.684 536.406 409.725 536.602 412.996H538.848V406.59H540.312ZM532.871 409.129C531.465 409.129 530.566 410.887 530.586 413.719C530.566 416.531 531.465 418.309 532.871 418.289C534.277 418.309 535.176 416.531 535.176 413.719C535.176 410.887 534.277 409.129 532.871 409.129ZM557.266 409.422C557.266 411.688 559.004 413.836 561.543 414.715L560.742 415.926C558.779 415.223 557.266 413.768 556.523 411.98C555.771 413.982 554.17 415.584 552.109 416.336L551.309 415.125C553.867 414.207 555.723 411.883 555.723 409.441V408.68H551.797V407.43H561.152V408.68H557.266V409.422ZM565.625 417.547V423.582H564.082V418.816H553.945V417.547H565.625ZM565.625 406.219V416.629H564.082V412.059H560.605V410.77H564.082V406.219H565.625ZM582.09 406.219V410.672H584.707V411.98H582.09V416.316H580.566V406.219H582.09ZM572.637 417.078V418.934H580.566V417.078H582.09V423.348H571.113V417.078H572.637ZM572.637 422.117H580.566V420.145H572.637V422.117ZM578.906 408.016V409.285H568.555V408.016H572.969V406.062H574.492V408.016H578.906ZM573.73 410.086C576.23 410.086 577.891 411.277 577.91 413.133C577.891 414.988 576.23 416.18 573.73 416.18C571.211 416.18 569.531 414.988 569.551 413.133C569.531 411.277 571.211 410.086 573.73 410.086ZM573.73 411.277C572.09 411.258 570.996 412.02 571.016 413.133C570.996 414.266 572.09 415.008 573.73 415.008C575.352 415.008 576.445 414.266 576.465 413.133C576.445 412.02 575.352 411.258 573.73 411.277Z" fill="black"/>
<path d="M279.922 458.367C278.828 458.367 277.93 457.469 277.93 456.355C277.93 455.262 278.828 454.363 279.922 454.363C281.035 454.363 281.934 455.262 281.934 456.355C281.934 457.469 281.035 458.367 279.922 458.367ZM309.258 446.219V452.312H311.855V453.602H309.258V459.812H307.715V446.219H309.258ZM309.883 461.922V463.211H298.223V458.895H299.766V461.922H309.883ZM295.625 456.551C297.002 456.551 298.633 456.541 300.332 456.473V455.145C298.311 454.959 297.012 453.992 297.012 452.527C297.012 450.848 298.633 449.852 301.074 449.852C303.535 449.852 305.137 450.848 305.156 452.527C305.137 453.982 303.867 454.949 301.855 455.145V456.395C303.486 456.316 305.127 456.16 306.641 455.926L306.777 457.02C303.047 457.723 298.848 457.781 295.801 457.801L295.625 456.551ZM306.113 447.938V449.09H296.055V447.938H300.332V446.18H301.855V447.938H306.113ZM301.074 450.945C299.473 450.945 298.477 451.551 298.477 452.527C298.477 453.484 299.473 454.09 301.074 454.09C302.676 454.09 303.691 453.484 303.691 452.527C303.691 451.551 302.676 450.945 301.074 450.945ZM320.898 446.434C324.766 446.434 327.031 447.508 327.031 449.441C327.031 451.395 324.766 452.449 320.898 452.469C317.031 452.449 314.746 451.395 314.746 449.441C314.746 447.508 317.031 446.434 320.898 446.434ZM320.898 447.605C318.008 447.625 316.328 448.289 316.348 449.441C316.328 450.633 318.008 451.277 320.898 451.297C323.77 451.277 325.469 450.633 325.469 449.441C325.469 448.289 323.77 447.625 320.898 447.605ZM328.809 453.523V454.773H324.395V456.492H326.777V460.379H316.465V462.176H327.305V463.387H314.941V459.246H325.273V457.664H314.902V456.492H317.305V454.773H312.988V453.523H328.809ZM318.809 456.492H322.871V454.773H318.809V456.492ZM335.957 447.488C338.691 447.488 340.625 449.148 340.625 451.57C340.625 453.992 338.691 455.652 335.957 455.652C333.223 455.652 331.25 453.992 331.27 451.57C331.25 449.148 333.223 447.488 335.957 447.488ZM335.957 448.836C334.102 448.836 332.754 449.949 332.773 451.57C332.754 453.191 334.102 454.305 335.957 454.305C337.793 454.305 339.121 453.191 339.121 451.57C339.121 449.949 337.793 448.836 335.957 448.836ZM344.512 446.219V463.621H342.988V446.219H344.512ZM330.371 458.484C333.574 458.484 337.988 458.465 341.836 457.898L341.953 459.031C337.988 459.773 333.711 459.793 330.586 459.793L330.371 458.484ZM366.973 446.238V459.09H365.43V454.422H361.328V456.121H353.457V447.391H354.98V450.477H359.824V447.391H361.328V449.422H365.43V446.238H366.973ZM367.363 461.922V463.211H355.742V457.82H357.285V461.922H367.363ZM354.98 454.852H359.824V451.688H354.98V454.852ZM361.328 453.152H365.43V450.711H361.328V453.152ZM385.703 454.812V456.043H369.863V454.812H377.031V452.781H371.875V447.039H383.73V448.27H373.379V451.531H383.848V452.781H378.516V454.812H385.703ZM377.773 457.312C381.504 457.312 383.73 458.445 383.75 460.438C383.73 462.449 381.504 463.562 377.773 463.582C374.023 463.562 371.777 462.449 371.777 460.438C371.777 458.445 374.023 457.312 377.773 457.312ZM377.773 458.523C374.98 458.523 373.32 459.246 373.34 460.438C373.32 461.648 374.98 462.352 377.773 462.352C380.527 462.352 382.207 461.648 382.207 460.438C382.207 459.246 380.527 458.523 377.773 458.523ZM401.465 446.219V463.621H399.922V446.219H401.465ZM392.227 447.566C394.805 447.586 396.66 449.93 396.66 453.621C396.66 457.312 394.805 459.656 392.227 459.656C389.629 459.656 387.793 457.312 387.793 453.621C387.793 449.93 389.629 447.586 392.227 447.566ZM392.227 448.934C390.488 448.953 389.277 450.789 389.277 453.621C389.277 456.453 390.488 458.289 392.227 458.289C393.965 458.289 395.176 456.453 395.176 453.621C395.176 450.789 393.965 448.953 392.227 448.934ZM419.199 447.547V448.816H417.422V454.363C418.232 454.314 419.014 454.246 419.766 454.148L419.844 455.32C416.465 455.848 412.5 455.887 409.688 455.887L409.492 454.598L411.738 454.578V448.816H409.98V447.547H419.199ZM423.848 446.219V456.941H422.305V453.719H419.375V452.449H422.305V450.613H419.375V449.344H422.305V446.219H423.848ZM418.086 457.312C421.719 457.312 423.906 458.445 423.906 460.418C423.906 462.41 421.719 463.543 418.086 463.543C414.453 463.543 412.266 462.41 412.266 460.418C412.266 458.445 414.453 457.312 418.086 457.312ZM418.086 458.504C415.41 458.504 413.77 459.227 413.789 460.418C413.77 461.629 415.41 462.332 418.086 462.332C420.762 462.332 422.383 461.629 422.383 460.418C422.383 459.227 420.762 458.504 418.086 458.504ZM413.223 454.559C414.111 454.539 415.029 454.51 415.938 454.461V448.816H413.223V454.559ZM440.547 447.176V448.484C440.547 449.871 440.547 451.502 440.137 453.68H442.637V454.949H438.184V459.148H436.699V454.949H433.516V459.148H432.012V454.949H426.738V453.68H438.613C439.023 451.482 439.023 449.871 439.023 448.484V448.426H428.75V447.176H440.547ZM441.016 461.922V463.211H428.691V457.781H430.215V461.922H441.016ZM458.906 446.219V463.582H457.422V446.219H458.906ZM455.41 446.59V462.703H453.945V454.266H451.719C451.553 457.645 450.117 459.754 447.969 459.754C445.703 459.754 444.238 457.41 444.238 453.719C444.238 450.027 445.703 447.684 447.969 447.684C450.078 447.684 451.504 449.725 451.699 452.996H453.945V446.59H455.41ZM447.969 449.129C446.562 449.129 445.664 450.887 445.684 453.719C445.664 456.531 446.562 458.309 447.969 458.289C449.375 458.309 450.273 456.531 450.273 453.719C450.273 450.887 449.375 449.129 447.969 449.129ZM475.039 447.84C475.039 450.281 478.242 452.41 481.367 452.84L480.742 454.09C478.047 453.641 475.381 452.146 474.258 450.008C473.145 452.156 470.469 453.641 467.773 454.09L467.148 452.84C470.273 452.41 473.457 450.32 473.457 447.84V446.844H475.039V447.84ZM482.148 456.004V457.293H474.961V463.582H473.457V457.293H466.328V456.004H482.148ZM498.008 457.391V463.348H486.582V457.391H498.008ZM488.105 458.582V462.098H496.484V458.582H488.105ZM498.008 446.238V456.434H496.465V453.445H493.008V452.176H496.465V449.93H493.008V448.66H496.465V446.238H498.008ZM491.855 447.156V451.922H485.879V454.5C489.199 454.5 490.84 454.451 492.891 454.109L493.027 455.379C490.859 455.73 489.121 455.77 485.586 455.75H484.355V450.73H490.332V448.426H484.316V447.156H491.855ZM514.336 446.219V453.387H517.246V454.656H514.336V463.582H512.812V446.219H514.336ZM511.133 449.012V450.281H500.801V449.012H505.273V446.434H506.797V449.012H511.133ZM506.055 451.727C508.516 451.727 510.293 453.367 510.312 455.711C510.293 458.055 508.516 459.695 506.055 459.695C503.574 459.695 501.777 458.055 501.797 455.711C501.777 453.367 503.574 451.727 506.055 451.727ZM506.055 453.016C504.434 453.016 503.242 454.148 503.262 455.711C503.242 457.293 504.434 458.406 506.055 458.387C507.656 458.406 508.828 457.293 508.848 455.711C508.828 454.148 507.656 453.016 506.055 453.016ZM532.539 446.219V463.582H530.996V446.219H532.539ZM527.402 448.113C527.383 453.113 525.059 457.527 519.238 460.32L518.398 459.07C523.096 456.844 525.488 453.514 525.84 449.363H519.199V448.113H527.402ZM551.992 446.609V453.328H554.102V446.219H555.566V463.582H554.102V454.598H551.992V462.723H550.566V446.609H551.992ZM544.785 448.426V449.695H542.441V457.742C543.096 457.723 543.955 457.645 544.902 457.41L545.039 458.719C543.574 459.051 542.441 459.051 541.699 459.051H541.016V448.426H544.785ZM549.395 448.426V449.695H546.934V457.742C547.744 457.732 548.711 457.654 549.766 457.352L549.902 458.66C548.457 459.051 547.266 459.051 546.25 459.051H545.547V448.426H549.395ZM573.652 455.105V456.375H566.582V459.93H565.059V456.375H557.754V455.105H573.652ZM571.582 447.078V453.113H559.824V447.078H571.582ZM561.328 448.289V451.883H570.059V448.289H561.328ZM571.875 461.922V463.211H559.785V458.211H561.328V461.922H571.875ZM589.941 446.219V463.582H588.457V446.219H589.941ZM586.445 446.59V462.703H584.98V454.266H582.754C582.588 457.645 581.152 459.754 579.004 459.754C576.738 459.754 575.273 457.41 575.273 453.719C575.273 450.027 576.738 447.684 579.004 447.684C581.113 447.684 582.539 449.725 582.734 452.996H584.98V446.59H586.445ZM579.004 449.129C577.598 449.129 576.699 450.887 576.719 453.719C576.699 456.531 577.598 458.309 579.004 458.289C580.41 458.309 581.309 456.531 581.309 453.719C581.309 450.887 580.41 449.129 579.004 449.129ZM603.242 449.52C603.242 451.785 604.941 453.816 607.5 454.656L606.777 455.867C604.775 455.213 603.262 453.826 602.52 452.078C601.768 454.07 600.166 455.623 598.086 456.375L597.305 455.145C599.902 454.266 601.719 452.02 601.738 449.52V448.777H597.773V447.508H607.148V448.777H603.242V449.52ZM610.938 446.219V450.652H613.555V451.941H610.938V456.707H609.414V446.219H610.938ZM605.371 457.176C608.945 457.176 611.094 458.348 611.094 460.34C611.094 462.371 608.945 463.543 605.371 463.543C601.797 463.543 599.609 462.371 599.609 460.34C599.609 458.348 601.797 457.176 605.371 457.176ZM605.371 458.406C602.754 458.406 601.133 459.129 601.152 460.34C601.133 461.59 602.754 462.312 605.371 462.312C608.008 462.312 609.609 461.59 609.609 460.34C609.609 459.129 608.008 458.406 605.371 458.406ZM629.004 446.219V463.582H627.461V446.219H629.004ZM623.867 448.113C623.848 453.113 621.523 457.527 615.703 460.32L614.863 459.07C619.561 456.844 621.953 453.514 622.305 449.363H615.664V448.113H623.867ZM652.832 456.746V458.016H645.605V463.582H644.102V458.016H636.934V456.746H652.832ZM651.035 453.699V454.949H639.062V447.039H650.84V448.289H640.586V450.32H650.43V451.551H640.586V453.699H651.035ZM660.117 451.551C660.098 454.344 662.109 457.41 664.629 458.602L663.75 459.812C661.797 458.865 660.146 456.795 659.375 454.441C658.574 457 656.826 459.246 654.883 460.242L653.945 459.031C656.445 457.82 658.594 454.52 658.613 451.551V449.285H654.57V448.016H664.023V449.285H660.117V451.551ZM667.676 446.219V453.25H670.586V454.559H667.676V463.582H666.152V446.219H667.676ZM691.406 446.219V463.582H689.941V446.219H691.406ZM687.891 446.688V462.703H686.426V456.688H683.203V455.418H686.426V452.332H683.496C682.646 455.271 680.742 457.869 677.461 459.832L676.523 458.719C680.303 456.482 682.197 453.348 682.5 449.715H677.305V448.445H684.023C684.023 449.334 683.945 450.213 683.789 451.062H686.426V446.688H687.891ZM704.746 447.82V448.992H694.492V447.82H698.848V446.121H700.371V447.82H704.746ZM699.629 449.656C702.109 449.656 703.77 450.652 703.789 452.254C703.77 453.67 702.432 454.607 700.371 454.773V455.926C701.992 455.857 703.633 455.73 705.156 455.516L705.273 456.609C701.465 457.234 697.266 457.293 694.141 457.293L693.906 456.062C695.381 456.062 697.08 456.053 698.848 455.984V454.773C696.777 454.598 695.469 453.67 695.488 452.254C695.469 450.652 697.109 449.656 699.629 449.656ZM699.629 450.75C698.008 450.73 696.934 451.316 696.934 452.254C696.934 453.152 698.008 453.738 699.629 453.719C701.23 453.738 702.305 453.152 702.305 452.254C702.305 451.316 701.23 450.73 699.629 450.75ZM708.145 446.277V457.84H706.602V446.277H708.145ZM708.145 458.66V463.582H706.602V459.891H696.426V458.66H708.145ZM722.305 450.887C722.285 454.051 724.453 457.254 727.012 458.406L726.074 459.617C724.102 458.65 722.393 456.609 721.562 454.129C720.752 456.756 719.043 458.943 717.012 459.969L716.035 458.68C718.613 457.488 720.762 454.188 720.781 450.887V447.723H722.305V450.887ZM730.449 446.219V463.621H728.906V446.219H730.449ZM747.148 447.84C747.148 450.281 750.352 452.41 753.477 452.84L752.852 454.09C750.156 453.641 747.49 452.146 746.367 450.008C745.254 452.156 742.578 453.641 739.883 454.09L739.258 452.84C742.383 452.41 745.566 450.32 745.566 447.84V446.844H747.148V447.84ZM754.258 456.004V457.293H747.07V463.582H745.566V457.293H738.438V456.004H754.258ZM764.434 447.84C764.434 450.281 767.637 452.41 770.762 452.84L770.137 454.09C767.441 453.641 764.775 452.146 763.652 450.008C762.539 452.156 759.863 453.641 757.168 454.09L756.543 452.84C759.668 452.41 762.852 450.32 762.852 447.84V446.844H764.434V447.84ZM771.543 456.004V457.293H764.355V463.582H762.852V457.293H755.723V456.004H771.543ZM788.906 460.145V461.434H773.008V460.145H777.48V456.844H775V451.492H785.391V448.777H774.961V447.508H786.895V452.762H776.523V455.574H787.305V456.844H784.59V460.145H788.906ZM778.984 460.145H783.086V456.844H778.984V460.145ZM309.141 476.219V483.289H311.953V484.578H309.141V493.582H307.617V476.219H309.141ZM304.648 478.094C304.648 483.016 302.344 487.488 296.68 490.281L295.82 489.07C300.312 486.834 302.754 483.494 303.105 479.383H296.621V478.094H304.648ZM320.254 476.961V479.461H325.312V476.961H326.836V484.52H318.75V476.961H320.254ZM320.254 483.27H325.312V480.652H320.254V483.27ZM331.582 476.219V479.988H334.199V481.277H331.582V485.203H330.059V476.219H331.582ZM331.582 486.023V490.223H322.051V492.137H332.227V493.387H320.547V489.051H330.059V487.254H320.508V486.023H331.582ZM340.469 479.676C340.469 481.59 341.816 483.543 344.043 484.383L343.242 485.555C341.572 484.91 340.371 483.67 339.746 482.176C339.102 483.836 337.861 485.311 336.152 486.043L335.312 484.852C337.598 483.855 339.004 481.609 339.004 479.676V477.312H340.469V479.676ZM350.039 476.238V486.961H348.574V482.176H346.27V486.414H344.824V476.57H346.27V480.906H348.574V476.238H350.039ZM344.297 487.352C347.891 487.352 350.137 488.484 350.137 490.457C350.137 492.41 347.891 493.543 344.297 493.543C340.684 493.543 338.457 492.41 338.477 490.457C338.457 488.484 340.684 487.352 344.297 487.352ZM344.297 488.523C341.641 488.523 339.98 489.246 340 490.457C339.98 491.648 341.641 492.352 344.297 492.352C346.934 492.352 348.594 491.648 348.613 490.457C348.594 489.246 346.934 488.523 344.297 488.523ZM366.016 476.219V483.387H368.926V484.656H366.016V493.582H364.492V476.219H366.016ZM362.812 479.012V480.281H352.48V479.012H356.953V476.434H358.477V479.012H362.812ZM357.734 481.727C360.195 481.727 361.973 483.367 361.992 485.711C361.973 488.055 360.195 489.695 357.734 489.695C355.254 489.695 353.457 488.055 353.477 485.711C353.457 483.367 355.254 481.727 357.734 481.727ZM357.734 483.016C356.113 483.016 354.922 484.148 354.941 485.711C354.922 487.293 356.113 488.406 357.734 488.387C359.336 488.406 360.508 487.293 360.527 485.711C360.508 484.148 359.336 483.016 357.734 483.016ZM376.074 481.551C376.074 484.5 378.223 487.488 380.781 488.602L379.922 489.812C377.891 488.885 376.133 486.883 375.332 484.48C374.512 487.029 372.764 489.246 370.781 490.242L369.863 489.031C372.344 487.84 374.512 484.559 374.531 481.551V479.285H370.43V478.016H380.215V479.285H376.074V481.551ZM384.18 476.219V493.582H382.637V476.219H384.18ZM397.012 477.215C399.609 477.215 401.523 478.875 401.523 481.219C401.523 483.582 399.609 485.223 397.012 485.242C394.414 485.223 392.48 483.582 392.5 481.219C392.48 478.875 394.414 477.215 397.012 477.215ZM397.012 478.504C395.312 478.504 393.984 479.656 394.004 481.219C393.984 482.82 395.312 483.973 397.012 483.973C398.73 483.973 400.02 482.82 400.02 481.219C400.02 479.656 398.73 478.504 397.012 478.504ZM405.742 476.219V480.145H408.359V481.414H405.742V484.91H404.219V476.219H405.742ZM395.508 486.785V491.844C396.514 491.814 397.852 491.668 399.082 491.258L399.316 492.488C397.617 493.055 395.977 493.113 394.844 493.113H394.023V486.785H395.508ZM407.48 486.863V488.055H398.711V486.863H402.363V485.32H403.867V486.863H407.48ZM403.086 488.641C404.98 488.641 406.328 489.598 406.348 491.102C406.328 492.605 404.98 493.543 403.086 493.543C401.172 493.543 399.844 492.605 399.863 491.102C399.844 489.598 401.172 488.641 403.086 488.641ZM403.086 489.754C402.012 489.754 401.23 490.301 401.23 491.102C401.23 491.922 402.012 492.449 403.086 492.449C404.18 492.449 404.941 491.922 404.941 491.102C404.941 490.301 404.18 489.754 403.086 489.754ZM423.809 476.219V493.582H422.266V476.219H423.809ZM418.672 478.113C418.652 483.113 416.328 487.527 410.508 490.32L409.668 489.07C414.365 486.844 416.758 483.514 417.109 479.363H410.469V478.113H418.672ZM443.262 476.609V483.328H445.371V476.219H446.836V493.582H445.371V484.598H443.262V492.723H441.836V476.609H443.262ZM436.055 478.426V479.695H433.711V487.742C434.365 487.723 435.225 487.645 436.172 487.41L436.309 488.719C434.844 489.051 433.711 489.051 432.969 489.051H432.285V478.426H436.055ZM440.664 478.426V479.695H438.203V487.742C439.014 487.732 439.98 487.654 441.035 487.352L441.172 488.66C439.727 489.051 438.535 489.051 437.52 489.051H436.816V478.426H440.664ZM464.922 485.105V486.375H457.852V489.93H456.328V486.375H449.023V485.105H464.922ZM462.852 477.078V483.113H451.094V477.078H462.852ZM452.598 478.289V481.883H461.328V478.289H452.598ZM463.145 491.922V493.211H451.055V488.211H452.598V491.922H463.145ZM481.211 476.219V493.582H479.727V476.219H481.211ZM477.715 476.59V492.703H476.25V484.266H474.023C473.857 487.645 472.422 489.754 470.273 489.754C468.008 489.754 466.543 487.41 466.543 483.719C466.543 480.027 468.008 477.684 470.273 477.684C472.383 477.684 473.809 479.725 474.004 482.996H476.25V476.59H477.715ZM470.273 479.129C468.867 479.129 467.969 480.887 467.988 483.719C467.969 486.531 468.867 488.309 470.273 488.289C471.68 488.309 472.578 486.531 472.578 483.719C472.578 480.887 471.68 479.129 470.273 479.129ZM502.949 476.219V493.621H501.406V476.219H502.949ZM491.172 477.703V482.293H496.348V477.703H497.852V489.422H489.648V477.703H491.172ZM491.172 488.133H496.348V483.523H491.172V488.133ZM519.863 477.977V479.91C519.863 482.137 519.863 484.383 519.238 487.605L517.734 487.43C518.359 484.363 518.359 482.078 518.359 479.91V479.246H507.578V477.977H519.863ZM521.738 489.852V491.121H505.918V489.852H509.844V484.129H511.367V489.852H514.18V484.129H515.684V489.852H521.738ZM529.238 479.422C529.238 481.688 530.977 483.836 533.516 484.715L532.715 485.926C530.752 485.223 529.238 483.768 528.496 481.98C527.744 483.982 526.143 485.584 524.082 486.336L523.281 485.125C525.84 484.207 527.695 481.883 527.695 479.441V478.68H523.77V477.43H533.125V478.68H529.238V479.422ZM537.598 487.547V493.582H536.055V488.816H525.918V487.547H537.598ZM537.598 476.219V486.629H536.055V482.059H532.578V480.77H536.055V476.219H537.598ZM551.387 479.52C551.387 481.785 553.086 483.816 555.645 484.656L554.922 485.867C552.92 485.213 551.406 483.826 550.664 482.078C549.912 484.07 548.311 485.623 546.23 486.375L545.449 485.145C548.047 484.266 549.863 482.02 549.883 479.52V478.777H545.918V477.508H555.293V478.777H551.387V479.52ZM559.082 476.219V480.652H561.699V481.941H559.082V486.707H557.559V476.219H559.082ZM553.516 487.176C557.09 487.176 559.238 488.348 559.238 490.34C559.238 492.371 557.09 493.543 553.516 493.543C549.941 493.543 547.754 492.371 547.754 490.34C547.754 488.348 549.941 487.176 553.516 487.176ZM553.516 488.406C550.898 488.406 549.277 489.129 549.297 490.34C549.277 491.59 550.898 492.312 553.516 492.312C556.152 492.312 557.754 491.59 557.754 490.34C557.754 489.129 556.152 488.406 553.516 488.406ZM577.148 476.219V493.582H575.605V476.219H577.148ZM572.012 478.113C571.992 483.113 569.668 487.527 563.848 490.32L563.008 489.07C567.705 486.844 570.098 483.514 570.449 479.363H563.809V478.113H572.012ZM600.977 486.746V488.016H593.75V493.582H592.246V488.016H585.078V486.746H600.977ZM599.18 483.699V484.949H587.207V477.039H598.984V478.289H588.73V480.32H598.574V481.551H588.73V483.699H599.18ZM608.262 481.551C608.242 484.344 610.254 487.41 612.773 488.602L611.895 489.812C609.941 488.865 608.291 486.795 607.52 484.441C606.719 487 604.971 489.246 603.027 490.242L602.09 489.031C604.59 487.82 606.738 484.52 606.758 481.551V479.285H602.715V478.016H612.168V479.285H608.262V481.551ZM615.82 476.219V483.25H618.73V484.559H615.82V493.582H614.297V476.219H615.82ZM634.551 476.219V493.582H633.066V476.219H634.551ZM631.055 476.59V492.703H629.59V484.266H627.363C627.197 487.645 625.762 489.754 623.613 489.754C621.348 489.754 619.883 487.41 619.883 483.719C619.883 480.027 621.348 477.684 623.613 477.684C625.723 477.684 627.148 479.725 627.344 482.996H629.59V476.59H631.055ZM623.613 479.129C622.207 479.129 621.309 480.887 621.328 483.719C621.309 486.531 622.207 488.309 623.613 488.289C625.02 488.309 625.918 486.531 625.918 483.719C625.918 480.887 625.02 479.129 623.613 479.129ZM648.008 479.422C648.008 481.688 649.746 483.836 652.285 484.715L651.484 485.926C649.521 485.223 648.008 483.768 647.266 481.98C646.514 483.982 644.912 485.584 642.852 486.336L642.051 485.125C644.609 484.207 646.465 481.883 646.465 479.441V478.68H642.539V477.43H651.895V478.68H648.008V479.422ZM656.367 487.547V493.582H654.824V488.816H644.688V487.547H656.367ZM656.367 476.219V486.629H654.824V482.059H651.348V480.77H654.824V476.219H656.367ZM672.832 476.219V480.672H675.449V481.98H672.832V486.316H671.309V476.219H672.832ZM663.379 487.078V488.934H671.309V487.078H672.832V493.348H661.855V487.078H663.379ZM663.379 492.117H671.309V490.145H663.379V492.117ZM669.648 478.016V479.285H659.297V478.016H663.711V476.062H665.234V478.016H669.648ZM664.473 480.086C666.973 480.086 668.633 481.277 668.652 483.133C668.633 484.988 666.973 486.18 664.473 486.18C661.953 486.18 660.273 484.988 660.293 483.133C660.273 481.277 661.953 480.086 664.473 480.086ZM664.473 481.277C662.832 481.258 661.738 482.02 661.758 483.133C661.738 484.266 662.832 485.008 664.473 485.008C666.094 485.008 667.188 484.266 667.207 483.133C667.188 482.02 666.094 481.258 664.473 481.277Z" fill="black"/>
<defs>
<filter id="filter0_d_568_279" x="12" y="28" width="874" height="221" filterUnits="userSpaceOnUse" color-interpolation-filters="sRGB">
<feFlood flood-opacity="0" result="BackgroundImageFix"/>
<feColorMatrix in="SourceAlpha" type="matrix" values="0 0 0 0 0 0 0 0 0 0 0 0 0 0 0 0 0 0 127 0" result="hardAlpha"/>
<feOffset dy="4"/>
<feGaussianBlur stdDeviation="2"/>
<feComposite in2="hardAlpha" operator="out"/>
<feColorMatrix type="matrix" values="0 0 0 0 0 0 0 0 0 0 0 0 0 0 0 0 0 0 0.25 0"/>
<feBlend mode="normal" in2="BackgroundImageFix" result="effect1_dropShadow_568_279"/>
<feBlend mode="normal" in="SourceGraphic" in2="effect1_dropShadow_568_279" result="shape"/>
</filter>
<filter id="filter1_d_568_279" x="12" y="320" width="874" height="221" filterUnits="userSpaceOnUse" color-interpolation-filters="sRGB">
<feFlood flood-opacity="0" result="BackgroundImageFix"/>
<feColorMatrix in="SourceAlpha" type="matrix" values="0 0 0 0 0 0 0 0 0 0 0 0 0 0 0 0 0 0 127 0" result="hardAlpha"/>
<feOffset dy="4"/>
<feGaussianBlur stdDeviation="2"/>
<feComposite in2="hardAlpha" operator="out"/>
<feColorMatrix type="matrix" values="0 0 0 0 0 0 0 0 0 0 0 0 0 0 0 0 0 0 0.25 0"/>
<feBlend mode="normal" in2="BackgroundImageFix" result="effect1_dropShadow_568_279"/>
<feBlend mode="normal" in="SourceGraphic" in2="effect1_dropShadow_568_279" result="shape"/>
</filter>
</defs>
</svg>
